<svg width="640" height="640" viewBox="0 0 640 640" fill="none" xmlns="http://www.w3.org/2000/svg">
<path d="M136.091 496C136.091 438.849 136.191 382.197 135.981 325.546C135.949 316.922 138.49 310.862 145.462 305.113C196.729 262.847 247.608 220.11 298.599 177.51C303.837 173.134 308.992 168.659 314.221 164.272C319.385 159.94 322.894 159.833 327.989 164.084C356.256 187.663 384.452 211.327 412.74 234.88C438.721 256.513 464.797 278.029 490.806 299.629C494.904 303.033 498.854 306.616 502.893 310.092C505.993 312.76 506.363 316.272 506.358 320.074C506.309 362.063 506.325 404.052 506.327 446.04C506.328 470.2 506.34 494.36 506.338 518.521C506.338 527.658 503.866 530.234 494.921 530.237C452.433 530.254 409.944 530.256 367.456 530.228C358.554 530.223 355.811 527.435 355.806 518.58C355.792 488.255 355.675 457.929 355.91 427.605C355.951 422.432 354.333 421.119 349.368 421.188C330.376 421.451 311.378 421.423 292.385 421.221C287.876 421.173 286.266 422.442 286.295 427.13C286.485 458.121 286.4 489.113 286.46 520.104C286.474 527.264 283.919 530.155 276.675 530.224C265.179 530.334 253.682 530.244 242.185 530.244C211.027 530.241 179.868 530.249 148.71 530.237C138.524 530.233 136.16 527.834 136.112 517.492C136.08 510.495 136.096 503.497 136.091 496ZM183.533 295.07C174.308 302.723 165.096 310.394 155.847 318.019C153.502 319.951 152.472 322.201 152.474 325.36C152.514 386.174 152.482 446.987 152.342 507.801C152.332 512.177 153.417 513.897 158.213 513.87C193.534 513.671 228.857 513.673 264.178 513.849C269.111 513.874 270.803 512.59 270.764 507.416C270.536 477.26 270.656 447.102 270.654 416.945C270.654 407.009 272.719 404.869 282.587 404.86C308.246 404.839 333.905 404.859 359.563 404.861C370.17 404.862 372.269 407.051 372.261 417.878C372.239 447.868 372.328 477.859 372.165 507.849C372.141 512.345 373.381 513.89 378.067 513.867C413.388 513.689 448.711 513.697 484.033 513.854C488.612 513.874 490.04 512.473 490.031 507.881C489.909 447.4 489.911 386.919 490.049 326.438C490.059 322.128 488.564 319.414 485.326 316.764C469.471 303.789 453.78 290.613 438.056 277.479C400.346 245.98 362.623 214.497 324.998 182.896C322.043 180.414 320.246 180.748 317.451 183.113C300.927 197.096 284.211 210.851 267.598 224.731C239.741 248.005 211.914 271.314 183.533 295.07Z" fill="white"/>
<path d="M234.695 182.683C260.558 160.881 285.356 138.34 312.458 118.607C321.259 112.199 321.634 112.357 330.172 118.917C367.585 147.661 402.776 179.051 438.32 210.007C476.503 243.261 514.365 276.883 552.375 310.336C554.25 311.986 556.261 313.484 558.103 315.169C562.016 318.745 562.615 324.229 559.551 327.612C556.418 331.072 551.751 331.264 547.471 327.626C534.398 316.512 521.457 305.243 508.453 294.048C478.03 267.858 447.591 241.686 417.176 215.487C387.767 190.156 358.447 164.722 328.943 139.501C319.4 131.343 322.679 131.735 313.585 139.534C265.289 180.955 217.124 222.528 168.929 264.066C144.71 284.939 120.522 305.848 96.3204 326.742C95.942 327.068 95.5835 327.42 95.1889 327.726C90.8216 331.105 86.186 331.043 83.097 327.574C79.805 323.877 80.2378 318.836 84.3829 315.156C102.441 299.122 120.546 283.14 138.64 267.146C139.388 266.484 140.155 265.832 140.976 265.266C147.515 260.758 150.026 254.945 149.796 246.659C149.034 219.189 149.126 191.695 148.943 164.21C148.896 157.046 149.116 156.877 156.184 156.866C172.514 156.842 188.847 156.977 205.175 156.773C209.738 156.716 211.35 158.202 211.238 162.828C210.97 173.986 211.121 185.155 211.167 196.32C211.175 198.069 210.613 199.951 212.261 202.16C219.715 195.69 227.073 189.305 234.695 182.683ZM180.547 230.027C184.433 226.645 188.283 223.218 192.225 219.9C193.87 218.515 194.709 216.955 194.701 214.757C194.658 202.451 194.632 190.144 194.752 177.838C194.786 174.316 193.257 173.187 189.923 173.262C183.606 173.406 177.275 173.498 170.968 173.22C166.603 173.027 165.192 174.617 165.235 178.975C165.43 198.597 165.323 218.222 165.38 237.846C165.384 239.221 164.749 240.86 166.733 242.247C171.118 238.374 175.572 234.441 180.547 230.027Z" fill="white"/>
</svg>
