<svg width="140" height="140" viewBox="0 0 140 140" fill="none" xmlns="http://www.w3.org/2000/svg">
<rect width="140" height="140" fill="white"/>
<path fill-rule="evenodd" clip-rule="evenodd" d="M26.25 8.75C21.6087 8.75 17.1575 10.5937 13.8756 13.8756C10.5937 17.1575 8.75 21.6087 8.75 26.25V113.75C8.75 118.391 10.5937 122.842 13.8756 126.124C17.1575 129.406 21.6087 131.25 26.25 131.25H113.75C118.391 131.25 122.842 129.406 126.124 126.124C129.406 122.842 131.25 118.391 131.25 113.75V26.25C131.25 21.6087 129.406 17.1575 126.124 13.8756C122.842 10.5937 118.391 8.75 113.75 8.75H26.25ZM35.8925 46.3487C38.6657 46.3487 41.3253 45.2471 43.2862 43.2862C45.2471 41.3253 46.3487 38.6657 46.3487 35.8925C46.3487 33.1193 45.2471 30.4597 43.2862 28.4988C41.3253 26.5379 38.6657 25.4363 35.8925 25.4363C33.1193 25.4363 30.4597 26.5379 28.4988 28.4988C26.5379 30.4597 25.4363 33.1193 25.4363 35.8925C25.4363 38.6657 26.5379 41.3253 28.4988 43.2862C30.4597 45.2471 33.1193 46.3487 35.8925 46.3487ZM44.6425 112.114V54.5475H27.1425V112.114H44.6425ZM56.2625 54.5475H73.7625V62.2562C76.3438 58.2137 82.0138 52.7713 92.5575 52.7713C105.14 52.7713 111.974 61.11 111.974 76.9737C111.974 77.735 112.044 81.2088 112.044 81.2088V112.105H94.5438V81.2175C94.5438 76.9737 93.6512 68.635 84.2188 68.635C74.7775 68.635 73.9813 79.1175 73.7625 85.9775V112.105H56.2625V54.5475Z" fill="black"/>
</svg>
