<svg width="368" height="129" viewBox="0 0 368 129" fill="none" xmlns="http://www.w3.org/2000/svg">
<rect width="368" height="129" fill="black"/>
<path d="M109.998 120.737L64.7499 94.6125C62.7389 93.4514 61.5 91.3056 61.5 88.9834L61.5 40.4866C61.5 38.1644 62.7389 36.0186 64.7499 34.8575L106.749 10.6085C108.76 9.44738 111.238 9.44738 113.249 10.6085L155.249 34.8575C157.26 36.0187 158.499 38.1645 158.499 40.4867V88.9833C158.499 91.3055 157.26 93.4514 155.248 94.6125L109.998 120.737ZM108.699 121.72C108.722 121.68 108.747 121.642 108.773 121.604C108.747 121.642 108.722 121.68 108.7 121.72L108.699 121.72Z" fill="black" stroke="white" stroke-width="3"/>
<path d="M117.297 38.5494C117.296 38.55 117.297 38.5511 117.298 38.5513C117.819 38.6974 118.306 38.9447 118.732 39.2791C119.158 39.6139 119.514 40.0294 119.78 40.5018C120.046 40.9743 120.215 41.4945 120.28 42.0327C120.344 42.5709 120.302 43.1165 120.156 43.6383L107.97 87.0525C107.675 88.1061 106.973 88.9991 106.019 89.5352C105.066 90.0713 103.938 90.2066 102.884 89.9112C101.831 89.6158 100.938 88.914 100.402 87.9602C99.8655 87.0063 99.7303 85.8786 100.026 84.8251L112.211 41.4053C112.357 40.8836 112.605 40.3958 112.94 39.9698C113.275 39.5438 113.69 39.188 114.163 38.9227C114.635 38.6574 115.155 38.4877 115.693 38.4234C116.231 38.3592 116.775 38.4014 117.297 38.5475C117.297 38.5478 117.298 38.5488 117.297 38.5494ZM97.8806 49.6471C98.6531 50.4205 99.087 51.4689 99.087 52.5621C99.087 53.6552 98.6531 54.7036 97.8806 55.4771C93.0502 60.312 93.0535 68.1481 97.8861 72.9808C98.6596 73.7546 99.094 74.804 99.0937 75.8982C99.0935 76.9923 98.6586 78.0415 97.8848 78.8149C97.1109 79.5884 96.0615 80.0228 94.9674 80.0225C93.8733 80.0223 92.8241 79.5874 92.0506 78.8136L80.3824 67.1453C79.6099 66.3719 79.176 65.3234 79.176 64.2303C79.176 63.1372 79.6099 62.0887 80.3824 61.3153L92.0479 49.6471C92.431 49.2637 92.8858 48.9597 93.3865 48.7522C93.8871 48.5447 94.4237 48.4379 94.9656 48.4379C95.5076 48.4379 96.0442 48.5447 96.5448 48.7522C97.0455 48.9597 97.4976 49.2637 97.8806 49.6471ZM122.301 55.4771C121.895 55.0994 121.57 54.644 121.345 54.138C121.119 53.632 120.998 53.0858 120.988 52.5319C120.979 51.9781 121.081 51.4279 121.288 50.9143C121.495 50.4006 121.804 49.934 122.196 49.5423C122.588 49.1506 123.054 48.8418 123.568 48.6344C124.081 48.4269 124.632 48.325 125.186 48.3348C125.739 48.3446 126.286 48.4658 126.792 48.6913C127.298 48.9167 127.753 49.2418 128.131 49.6471L139.799 61.3126C140.572 62.0861 141.007 63.1351 141.007 64.2289C141.007 65.3227 140.572 66.3718 139.799 67.1453L128.133 78.8136C127.75 79.1967 127.296 79.5007 126.795 79.7081C126.295 79.9156 125.758 80.0224 125.217 80.0225C124.675 80.0227 124.138 79.9161 123.638 79.7089C123.137 79.5017 122.682 79.1979 122.299 78.8149C121.916 78.4319 121.612 77.9772 121.405 77.4768C121.197 76.9763 121.09 76.4399 121.09 75.8982C121.09 75.3564 121.197 74.8199 121.404 74.3194C121.611 73.8188 121.915 73.364 122.298 72.9808C127.131 68.1476 127.132 60.3118 122.301 55.4771Z" fill="white"/>
<path d="M171.9 45.1628C171.9 42.7059 172.779 40.8257 174.537 39.5221C176.295 38.2185 178.781 37.5667 181.995 37.5667V61.7087L207.231 37.5667C208.487 38.4692 209.491 39.497 210.245 40.6502C211.048 41.7533 211.45 42.731 211.45 43.5834C211.45 44.3355 211.174 45.0875 210.621 45.8396C210.119 46.5416 209.341 47.394 208.286 48.3967L193.219 62.6112L213.936 88.4079C212.379 90.5137 210.345 91.5667 207.834 91.5667C205.423 91.5667 203.49 90.6641 202.033 88.8591L186.289 68.9288L181.995 73.1405V84.4218C181.995 86.8786 181.191 88.6836 179.584 89.8368C177.977 90.9901 175.416 91.5667 171.9 91.5667V45.1628Z" fill="white"/>
<path d="M235 91.5667C231.183 91.5667 227.743 90.8396 224.679 89.3856C221.615 87.9316 219.205 85.9511 217.447 83.4441C215.74 80.887 214.886 78.029 214.886 74.8703C214.886 72.7644 215.765 71.2853 217.522 70.4329C219.33 69.5806 221.841 69.1544 225.056 69.1544C224.905 70.0569 224.83 71.2101 224.83 72.614C224.83 75.8731 225.683 78.38 227.391 80.1349C229.149 81.8898 231.685 82.7672 235 82.7672C238.264 82.7672 240.775 81.8396 242.533 79.9845C244.291 78.0792 245.17 75.3717 245.17 71.8619V46.9678H237.561C235.201 46.9678 233.443 46.2658 232.288 44.8619C231.133 43.4079 230.555 41.2017 230.555 38.2435H250.368C251.723 38.2435 252.879 38.6948 253.833 39.5973C254.787 40.4497 255.264 41.5277 255.264 42.8313V71.8619C255.264 75.6224 254.385 79.0068 252.627 82.0151C250.92 84.9733 248.509 87.3048 245.396 89.0096C242.332 90.7143 238.867 91.5667 235 91.5667Z" fill="white"/>
<path d="M263.638 42.8313C263.638 41.5277 264.116 40.4497 265.07 39.5973C266.024 38.6948 267.229 38.2435 268.686 38.2435H288.8C294.224 38.2435 298.417 39.6725 301.38 42.5304C304.393 45.3884 305.9 49.3995 305.9 54.5639C305.9 57.5221 305.297 60.029 304.092 62.0848C302.887 64.0903 301.054 65.6948 298.593 66.8981V67.1238C303.012 69.0792 305.222 72.7895 305.222 78.2547V84.121C305.222 86.5277 304.368 88.3828 302.661 89.6864C300.953 90.9399 298.442 91.5667 295.128 91.5667V78.7059C295.128 76.0485 294.6 74.0931 293.546 72.8396C292.491 71.5862 290.884 70.9594 288.724 70.9594H273.582V84.121C273.582 86.5778 272.729 88.4329 271.021 89.6864C269.364 90.9399 266.903 91.5667 263.638 91.5667V42.8313ZM288.272 62.3856C290.683 62.3856 292.541 61.7087 293.847 60.355C295.153 58.9511 295.806 56.9956 295.806 54.4887C295.806 49.3745 293.294 46.8173 288.272 46.8173H273.582V62.3856H288.272Z" fill="white"/>
</svg>
