<svg width="1080" height="1389" viewBox="0 0 1080 1389" fill="none" xmlns="http://www.w3.org/2000/svg">
<g clip-path="url(#clip0_6168_145)">
<!-- <path d="M1081 529C1081 816.333 1081 1103.17 1081 1390C721 1390 361 1390 1 1390C1 927 1 464 1 1C361 1 721 1 1081 1C1081 176.833 1081 352.667 1081 529ZM507.149 1301.98C512.884 1301.8 518.698 1300.96 524.333 1301.63C530.479 1302.35 532.484 1301.31 532.484 1294.94C532.485 1104.29 532.485 913.637 532.484 722.985C532.484 716.475 531.995 716.001 525.317 716C432.491 715.999 339.665 715.975 246.839 716.054C240.693 716.06 239.038 715.681 239.05 708.068C239.169 630.574 239.123 553.08 239.123 475.586C239.123 474.586 239.134 473.586 239.121 472.586C239.074 468.745 241.414 467.756 244.683 468.019C256.794 468.992 268.902 469.999 281.01 471.002C289.033 471.667 297.095 472.039 305.066 473.094C318.164 474.826 331.247 476.751 344.255 479.058C362.218 482.244 380.242 485.27 397.993 489.42C431.04 497.146 463.816 506.056 495.541 518.209C520.223 527.663 544.741 537.629 568.89 548.362C585.915 555.928 602.396 564.801 618.758 573.753C635.056 582.671 651.239 591.89 666.877 601.907C697.011 621.21 726.393 641.64 753.419 665.208C771.699 681.148 789.958 697.13 807.734 713.623C818.304 723.429 827.998 734.189 837.928 744.669C842.434 749.424 846.523 754.573 850.866 759.485C854.041 763.078 857.796 765.113 862.897 765.074C884.894 764.903 906.893 765.011 928.891 764.993C934.334 764.988 935.881 763.634 935.873 758.123C935.868 753.871 934.991 749.62 934.983 745.368C934.908 706.704 934.939 668.04 934.939 629.377C934.939 627.626 934.939 625.875 934.939 623.999C922.918 623.999 911.591 623.999 900.265 623.999C888.838 623.999 877.41 623.999 865.816 623.999C865.816 640.26 865.816 655.859 865.816 672.955C750.479 557.584 615.134 477.977 459.616 432.545C460.746 432.107 461.777 432.16 462.694 431.863C481.962 425.616 501.295 419.556 520.459 413.001C554.115 401.489 586.563 387.018 618.477 371.419C635.201 363.244 651.735 354.506 667.607 344.8C693.745 328.817 719.581 312.294 744.989 295.175C778.825 272.377 809.865 245.95 839.772 218.294C853.238 205.843 865.862 192.336 877.736 178.346C890.54 163.26 902.584 147.443 913.913 131.214C924.603 115.899 932.573 99.062 935.833 79.9994C934.241 79.9994 932.923 79.9994 931.605 79.9994C679.625 79.9994 427.644 79.9988 175.664 80.0029C169.078 80.003 169.076 80.0275 169.076 86.6336C169.076 317.616 169.076 548.598 169.076 779.58C169.076 781.221 169.076 782.862 169.076 785.099C174.389 785.41 179.421 785.938 184.456 785.96C205.787 786.055 227.119 786.001 248.451 786.001C316.279 786.001 384.107 786.001 451.935 786.001C455.357 786.001 458.778 786.001 462.36 786.001C462.36 788.096 462.36 789.42 462.36 790.744C462.36 935.566 462.36 1080.39 462.36 1225.21C462.36 1225.71 462.307 1226.22 462.368 1226.71C462.772 1229.99 461.329 1231.22 458.071 1231.03C450.312 1230.6 442.541 1230.38 434.779 1229.99C419.015 1229.2 403.73 1225.83 388.71 1221.16C366.937 1214.39 347.058 1203.94 328.422 1190.82C312.341 1179.5 298.232 1166.06 285.932 1150.94C274.209 1136.52 264.656 1120.55 257.182 1103.41C245.833 1077.38 239.13 1050.35 239.216 1021.85C239.228 1017.64 237.653 1016.9 233.92 1016.93C213.589 1017.08 193.257 1016.99 172.925 1017.01C171.669 1017.02 170.414 1017.23 168.077 1017.44C169.445 1032.22 169.765 1046.78 172.335 1060.93C176.648 1084.67 183.023 1107.91 192.637 1130.25C204.865 1158.66 220.991 1184.57 242.071 1207.02C254.574 1220.33 268.511 1232.47 282.83 1243.85C307.909 1263.78 336.322 1277.56 366.869 1287.42C399.909 1298.07 433.897 1300.91 468.203 1301.94C480.857 1302.32 493.532 1302 507.149 1301.98ZM572.558 719.18C572.558 913.062 572.558 1106.94 572.558 1300.81C595.93 1300.81 618.553 1300.81 641.675 1300.81C641.675 1298.67 641.675 1296.72 641.675 1294.77C641.675 1127.78 641.675 960.792 641.676 793.804C641.676 792.304 641.425 790.742 641.759 789.319C642.338 786.857 643.29 785.012 646.631 784.912C665.335 784.349 683.757 786.207 701.919 790.653C721.733 795.503 740.454 803.031 758.221 813.105C781.455 826.278 801.246 843.542 818.124 864.014C830.792 879.379 840.944 896.454 848.896 914.816C859.67 939.692 864.85 965.752 865.775 992.705C865.932 997.252 867.651 998.996 871.83 998.998C891.162 999.006 910.495 998.926 929.826 999.056C934.458 999.087 936.09 996.363 935.835 992.689C935.124 982.431 934.505 972.111 932.803 961.991C930.343 947.366 927.559 932.741 923.834 918.395C918.314 897.135 909.309 877.22 898.515 858.072C888.756 840.762 877.459 824.54 864.105 809.905C846.497 790.611 826.828 773.599 804.755 759.471C786.512 747.793 767.261 738.265 746.855 730.921C717.097 720.211 686.233 715.932 654.878 715.131C629.397 714.48 603.885 714.927 578.389 715.141C576.441 715.158 574.51 717.204 572.558 719.18Z" fill="white"/> -->
<path d="M506.673 1301.99C493.532 1302 480.857 1302.32 468.203 1301.94C433.897 1300.91 399.909 1298.07 366.869 1287.42C336.322 1277.56 307.909 1263.78 282.83 1243.85C268.511 1232.47 254.574 1220.33 242.071 1207.02C220.991 1184.57 204.865 1158.66 192.637 1130.25C183.023 1107.91 176.648 1084.67 172.335 1060.93C169.765 1046.78 169.445 1032.22 168.077 1017.44C170.414 1017.23 171.669 1017.02 172.925 1017.01C193.257 1016.99 213.589 1017.08 233.92 1016.93C237.653 1016.9 239.228 1017.64 239.216 1021.85C239.13 1050.35 245.833 1077.38 257.182 1103.41C264.656 1120.55 274.209 1136.52 285.932 1150.94C298.232 1166.06 312.341 1179.5 328.422 1190.82C347.058 1203.94 366.937 1214.39 388.71 1221.16C403.73 1225.83 419.015 1229.2 434.779 1229.99C442.541 1230.38 450.312 1230.59 458.071 1231.03C461.329 1231.22 462.772 1229.99 462.368 1226.71C462.307 1226.22 462.36 1225.71 462.36 1225.21C462.36 1080.39 462.36 935.566 462.36 790.744C462.36 789.42 462.36 788.096 462.36 786C458.778 786 455.357 786 451.935 786C384.107 786 316.279 786 248.451 786C227.119 786 205.787 786.055 184.456 785.96C179.421 785.938 174.389 785.41 169.076 785.099C169.076 782.862 169.076 781.221 169.076 779.58C169.076 548.598 169.076 317.616 169.076 86.6335C169.076 80.0274 169.078 80.0029 175.664 80.0028C427.644 79.9987 679.625 79.9993 931.605 79.9993C932.923 79.9993 934.241 79.9993 935.833 79.9993C932.573 99.0619 924.603 115.899 913.913 131.214C902.584 147.443 890.54 163.26 877.736 178.346C865.862 192.336 853.238 205.842 839.772 218.294C809.865 245.95 778.825 272.377 744.989 295.175C719.581 312.294 693.745 328.817 667.607 344.8C651.735 354.506 635.201 363.244 618.477 371.419C586.563 387.018 554.115 401.489 520.459 413.001C501.295 419.556 481.962 425.616 462.694 431.863C461.777 432.16 460.746 432.107 459.616 432.545C615.134 477.977 750.479 557.583 865.816 672.955C865.816 655.859 865.816 640.26 865.816 623.999C877.41 623.999 888.838 623.999 900.265 623.999C911.591 623.999 922.918 623.999 934.939 623.999C934.939 625.875 934.939 627.626 934.939 629.377C934.939 668.04 934.908 706.704 934.983 745.368C934.991 749.62 935.868 753.871 935.873 758.123C935.881 763.634 934.334 764.988 928.891 764.993C906.893 765.011 884.894 764.903 862.897 765.073C857.796 765.113 854.041 763.078 850.866 759.485C846.523 754.572 842.434 749.424 837.928 744.669C827.998 734.189 818.304 723.429 807.734 713.623C789.958 697.129 771.699 681.148 753.419 665.208C726.393 641.639 697.011 621.209 666.877 601.907C651.239 591.89 635.056 582.671 618.758 573.753C602.396 564.801 585.915 555.928 568.89 548.362C544.741 537.629 520.223 527.663 495.541 518.209C463.816 506.056 431.04 497.146 397.993 489.42C380.242 485.27 362.218 482.244 344.255 479.058C331.247 476.75 318.164 474.826 305.066 473.094C297.095 472.039 289.033 471.667 281.01 471.002C268.902 469.998 256.794 468.992 244.683 468.019C241.414 467.756 239.074 468.745 239.121 472.586C239.134 473.586 239.123 474.586 239.123 475.586C239.123 553.08 239.169 630.574 239.05 708.068C239.038 715.681 240.693 716.06 246.839 716.054C339.665 715.975 432.491 715.999 525.317 716C531.995 716 532.484 716.475 532.484 722.984C532.485 913.636 532.485 1104.29 532.484 1294.94C532.484 1301.31 530.479 1302.35 524.333 1301.63C518.698 1300.96 512.884 1301.8 506.673 1301.99ZM678.5 146C533.371 146 388.242 146 243.113 146C236.128 146.001 236.123 146.002 236.123 153.228C236.122 229.708 236.122 306.189 236.122 382.669C236.122 383.502 236.131 384.335 236.121 385.168C236.085 388.467 237.201 390.326 241.015 390.053C248.262 389.534 255.528 389.248 262.791 389.016C284.976 388.305 307.168 387.779 329.348 386.942C337.884 386.62 346.456 386.077 354.906 384.887C368.948 382.909 382.944 380.532 396.89 377.947C414.353 374.711 431.953 371.896 449.118 367.449C472.784 361.317 496.258 354.323 519.522 346.795C548.322 337.477 576.262 325.762 603.177 311.956C625.14 300.69 646.909 288.841 667.75 275.649C689.327 261.99 710.16 247.021 730.41 231.444C744.639 220.499 757.362 207.596 770.724 195.529C775.514 191.203 780.264 186.829 784.931 182.371C797.244 170.608 809.5 158.788 822.809 146C773.998 146 726.749 146 678.5 146Z" fill="black"/>
<path d="M572.565 718.744C574.51 717.204 576.441 715.158 578.389 715.142C603.885 714.927 629.397 714.48 654.878 715.131C686.233 715.932 717.097 720.211 746.855 730.921C767.261 738.265 786.512 747.794 804.755 759.471C826.828 773.599 846.498 790.611 864.105 809.906C877.459 824.54 888.756 840.762 898.515 858.072C909.31 877.221 918.314 897.135 923.834 918.395C927.559 932.741 930.343 947.366 932.803 961.992C934.505 972.111 935.124 982.431 935.835 992.689C936.09 996.363 934.458 999.087 929.826 999.056C910.495 998.926 891.162 999.006 871.83 998.998C867.651 998.996 865.932 997.252 865.776 992.705C864.85 965.752 859.67 939.692 848.896 914.816C840.944 896.454 830.792 879.379 818.124 864.014C801.246 843.542 781.455 826.278 758.221 813.105C740.454 803.031 721.733 795.503 701.919 790.653C683.757 786.207 665.335 784.35 646.631 784.912C643.29 785.012 642.338 786.857 641.759 789.319C641.425 790.742 641.676 792.304 641.676 793.804C641.675 960.792 641.675 1127.78 641.675 1294.77C641.675 1296.72 641.675 1298.67 641.675 1300.81C618.553 1300.81 595.93 1300.81 572.558 1300.81C572.558 1106.94 572.558 913.062 572.565 718.744Z" fill="black"/>
<!-- <path d="M679 146.001C726.749 146.001 773.998 146.001 822.809 146.001C809.5 158.788 797.244 170.609 784.931 182.371C780.264 186.829 775.514 191.203 770.724 195.529C757.362 207.596 744.639 220.5 730.41 231.444C710.16 247.021 689.327 261.99 667.75 275.649C646.909 288.842 625.14 300.69 603.177 311.956C576.262 325.762 548.322 337.477 519.522 346.796C496.258 354.323 472.784 361.317 449.119 367.449C431.953 371.897 414.353 374.711 396.89 377.948C382.944 380.532 368.948 382.909 354.906 384.887C346.456 386.077 337.885 386.621 329.348 386.943C307.168 387.779 284.976 388.306 262.791 389.016C255.528 389.249 248.262 389.534 241.015 390.053C237.201 390.327 236.085 388.467 236.121 385.168C236.131 384.335 236.123 383.502 236.123 382.669C236.123 306.189 236.122 229.709 236.123 153.228C236.123 146.002 236.129 146.001 243.114 146.001C388.242 146 533.371 146.001 679 146.001Z" fill="white"/> -->
</g>
<defs>
<clipPath id="clip0_6168_145">
<rect width="1080" height="1389" fill="white"/>
</clipPath>
</defs>
</svg>
