<svg width="753" height="968" viewBox="0 0 753 968" fill="none" xmlns="http://www.w3.org/2000/svg">
<g clip-path="url(#clip0_6282_2)">
<mask id="mask0_6282_2" style="mask-type:luminance" maskUnits="userSpaceOnUse" x="0" y="0" width="753" height="968">
<path d="M753 0H0V968H753V0Z" fill="white"/>
</mask>
<g mask="url(#mask0_6282_2)">
<path d="M353.264 907.362C344.102 907.369 335.265 907.592 326.442 907.328C302.523 906.61 278.826 904.631 255.79 897.209C234.492 890.337 214.681 880.734 197.196 866.844C187.212 858.914 177.495 850.453 168.778 841.177C154.08 825.532 142.837 807.475 134.311 787.676C127.608 772.107 123.163 755.911 120.156 739.367C118.364 729.506 118.141 719.359 117.188 709.058C118.817 708.912 119.692 708.766 120.568 708.759C134.744 708.745 148.919 708.807 163.095 708.703C165.697 708.682 166.796 709.198 166.787 712.132C166.727 731.993 171.401 750.831 179.313 768.971C184.525 780.916 191.185 792.046 199.359 802.095C207.934 812.632 217.772 821.999 228.984 829.888C241.977 839.031 255.837 846.314 271.018 851.032C281.49 854.286 292.147 856.635 303.138 857.185C308.55 857.457 313.968 857.604 319.378 857.91C321.649 858.043 322.655 857.185 322.374 854.899C322.331 854.558 322.368 854.203 322.368 853.854C322.368 752.928 322.368 652 322.368 551.073C322.368 550.15 322.368 549.228 322.368 547.767C319.871 547.767 317.486 547.767 315.1 547.767C267.808 547.767 220.517 547.767 173.226 547.767C158.353 547.767 143.48 547.805 128.607 547.739C125.097 547.724 121.588 547.356 117.884 547.139C117.884 545.58 117.884 544.436 117.884 543.293C117.884 382.32 117.884 221.348 117.884 60.3754C117.884 55.7716 117.885 55.7545 122.477 55.7544C298.163 55.7516 473.85 55.752 649.536 55.752C650.455 55.752 651.374 55.752 652.484 55.752C650.211 69.0368 644.654 80.7706 637.201 91.4437C629.302 102.754 620.905 113.777 611.978 124.29C603.699 134.04 594.897 143.452 585.508 152.13C564.656 171.404 543.015 189.821 519.423 205.709C501.708 217.639 483.695 229.154 465.471 240.293C454.405 247.057 442.877 253.146 431.216 258.844C408.965 269.715 386.342 279.8 362.876 287.822C349.514 292.39 336.035 296.614 322.601 300.967C321.962 301.174 321.243 301.137 320.455 301.443C428.886 333.104 523.251 388.582 603.667 468.985C603.667 457.071 603.667 446.2 603.667 434.868C611.75 434.868 619.718 434.868 627.685 434.868C635.582 434.868 643.479 434.868 651.861 434.868C651.861 436.175 651.861 437.395 651.861 438.616C651.861 465.56 651.839 492.505 651.891 519.45C651.897 522.413 652.508 525.376 652.512 528.339C652.518 532.18 651.439 533.123 647.644 533.127C632.306 533.14 616.968 533.064 601.631 533.183C598.075 533.211 595.457 531.792 593.243 529.288C590.215 525.865 587.364 522.277 584.222 518.963C577.299 511.66 570.54 504.161 563.171 497.327C550.777 485.832 538.046 474.695 525.301 463.586C506.458 447.161 485.972 432.923 464.962 419.472C454.059 412.491 442.776 406.066 431.412 399.851C420.004 393.612 408.513 387.429 396.643 382.156C379.806 374.676 362.712 367.731 345.503 361.142C323.383 352.673 300.531 346.463 277.49 341.079C265.114 338.187 252.547 336.078 240.023 333.858C230.953 332.249 221.832 330.908 212.699 329.701C207.142 328.966 201.521 328.707 195.927 328.243C187.485 327.544 179.043 326.843 170.599 326.165C168.32 325.981 166.688 326.671 166.721 329.347C166.73 330.044 166.722 330.741 166.722 331.438C166.722 385.444 166.754 439.45 166.671 493.456C166.663 498.761 167.817 499.025 172.102 499.021C236.822 498.966 301.543 498.983 366.263 498.984C370.919 498.984 371.26 499.315 371.26 503.851C371.261 636.717 371.261 769.584 371.26 902.449C371.26 906.889 369.862 907.613 365.577 907.112C361.648 906.645 357.595 907.23 353.264 907.362ZM473.066 101.748C371.879 101.748 270.691 101.748 169.504 101.748C164.634 101.749 164.631 101.75 164.631 106.785C164.63 160.085 164.63 213.385 164.63 266.684C164.63 267.264 164.636 267.845 164.629 268.425C164.604 270.724 165.382 272.02 168.041 271.83C173.094 271.468 178.16 271.269 183.224 271.107C198.692 270.612 214.165 270.245 229.629 269.662C235.581 269.437 241.557 269.059 247.449 268.23C257.239 266.851 266.998 265.194 276.721 263.393C288.897 261.138 301.168 259.176 313.136 256.077C329.636 251.803 346.003 246.929 362.223 241.683C382.303 235.189 401.783 227.025 420.549 217.404C435.862 209.552 451.04 201.295 465.571 192.101C480.615 182.582 495.14 172.15 509.259 161.294C519.179 153.667 528.05 144.675 537.366 136.265C540.706 133.25 544.018 130.202 547.272 127.095C555.857 118.898 564.402 110.66 573.681 101.748C539.649 101.748 506.706 101.748 473.066 101.748Z" fill="white"/>
<path d="M399.205 500.896C400.561 499.822 401.908 498.397 403.266 498.385C421.042 498.236 438.83 497.924 456.596 498.378C478.457 498.936 499.976 501.918 520.724 509.382C534.951 514.5 548.374 521.141 561.093 529.278C576.483 539.124 590.197 550.98 602.473 564.427C611.784 574.625 619.66 585.931 626.465 597.994C633.991 611.339 640.269 625.217 644.118 640.033C646.715 650.031 648.656 660.223 650.371 670.416C651.558 677.468 651.989 684.66 652.485 691.809C652.663 694.37 651.525 696.268 648.295 696.246C634.817 696.156 621.338 696.211 607.859 696.206C604.946 696.204 603.747 694.989 603.638 691.82C602.993 673.037 599.381 654.875 591.869 637.539C586.325 624.743 579.247 612.843 570.414 602.135C558.647 587.868 544.848 575.837 528.649 566.656C516.261 559.636 503.208 554.389 489.394 551.009C476.731 547.911 463.886 546.617 450.846 547.008C448.516 547.078 447.852 548.364 447.449 550.08C447.216 551.071 447.391 552.16 447.391 553.205C447.39 669.58 447.39 785.955 447.39 902.331C447.39 903.69 447.39 905.049 447.39 906.54C431.269 906.54 415.496 906.54 399.2 906.54C399.2 771.431 399.2 636.317 399.205 500.896Z" fill="white"/>
</g>
</g>
<defs>
<clipPath id="clip0_6282_2">
<rect width="753" height="968" fill="white"/>
</clipPath>
</defs>
</svg>
