<svg width="1080" height="1389" viewBox="0 0 1080 1389" fill="none" xmlns="http://www.w3.org/2000/svg">
<g clip-path="url(#clip0_6173_2)">
<mask id="mask0_6173_2" style="mask-type:luminance" maskUnits="userSpaceOnUse" x="0" y="0" width="1080" height="1389">
<path d="M1080 0H0V1389H1080V0Z" fill="white"/>
</mask>
<g mask="url(#mask0_6173_2)">
<path d="M506.673 1301.99C493.532 1302 480.857 1302.32 468.203 1301.94C433.897 1300.91 399.909 1298.07 366.869 1287.42C336.322 1277.56 307.909 1263.78 282.83 1243.85C268.511 1232.47 254.574 1220.33 242.071 1207.02C220.991 1184.57 204.865 1158.66 192.637 1130.25C183.023 1107.91 176.648 1084.67 172.335 1060.93C169.765 1046.78 169.445 1032.22 168.077 1017.44C170.414 1017.23 171.669 1017.02 172.925 1017.01C193.257 1016.99 213.589 1017.08 233.92 1016.93C237.653 1016.9 239.228 1017.64 239.216 1021.85C239.13 1050.35 245.833 1077.38 257.182 1103.41C264.656 1120.55 274.209 1136.52 285.932 1150.94C298.232 1166.06 312.341 1179.5 328.422 1190.82C347.058 1203.94 366.937 1214.39 388.71 1221.16C403.73 1225.83 419.015 1229.2 434.779 1229.99C442.541 1230.38 450.312 1230.59 458.071 1231.03C461.329 1231.22 462.772 1229.99 462.368 1226.71C462.307 1226.22 462.36 1225.71 462.36 1225.21C462.36 1080.39 462.36 935.566 462.36 790.744C462.36 789.42 462.36 788.096 462.36 786C458.778 786 455.357 786 451.935 786C384.107 786 316.279 786 248.451 786C227.119 786 205.787 786.055 184.456 785.96C179.421 785.938 174.389 785.41 169.076 785.099C169.076 782.862 169.076 781.221 169.076 779.58C169.076 548.598 169.076 317.616 169.076 86.6335C169.076 80.0274 169.078 80.0029 175.664 80.0028C427.644 79.9987 679.625 79.9993 931.605 79.9993C932.923 79.9993 934.241 79.9993 935.833 79.9993C932.573 99.0619 924.603 115.899 913.913 131.214C902.584 147.443 890.54 163.26 877.736 178.346C865.862 192.336 853.238 205.842 839.772 218.294C809.865 245.95 778.825 272.377 744.989 295.175C719.581 312.294 693.745 328.817 667.607 344.8C651.735 354.506 635.201 363.244 618.477 371.419C586.563 387.018 554.115 401.489 520.459 413.001C501.295 419.556 481.962 425.616 462.694 431.863C461.777 432.16 460.746 432.107 459.616 432.545C615.134 477.977 750.479 557.583 865.816 672.955C865.816 655.859 865.816 640.26 865.816 623.999C877.41 623.999 888.838 623.999 900.265 623.999C911.591 623.999 922.918 623.999 934.939 623.999C934.939 625.875 934.939 627.626 934.939 629.377C934.939 668.04 934.908 706.704 934.983 745.368C934.991 749.62 935.868 753.871 935.873 758.123C935.881 763.634 934.334 764.988 928.891 764.993C906.893 765.011 884.894 764.903 862.897 765.073C857.796 765.113 854.041 763.078 850.866 759.485C846.523 754.572 842.434 749.424 837.928 744.669C827.998 734.189 818.304 723.429 807.734 713.623C789.958 697.129 771.699 681.148 753.419 665.208C726.393 641.639 697.011 621.209 666.877 601.907C651.239 591.89 635.056 582.671 618.758 573.753C602.396 564.801 585.915 555.928 568.89 548.362C544.741 537.629 520.223 527.663 495.541 518.209C463.816 506.056 431.04 497.146 397.993 489.42C380.242 485.27 362.218 482.244 344.255 479.058C331.247 476.75 318.164 474.826 305.066 473.094C297.095 472.039 289.033 471.667 281.01 471.002C268.902 469.998 256.794 468.992 244.683 468.019C241.414 467.756 239.074 468.745 239.121 472.586C239.134 473.586 239.123 474.586 239.123 475.586C239.123 553.08 239.169 630.574 239.05 708.068C239.038 715.681 240.693 716.06 246.839 716.054C339.665 715.975 432.491 715.999 525.317 716C531.995 716 532.484 716.475 532.484 722.984C532.485 913.636 532.485 1104.29 532.484 1294.94C532.484 1301.31 530.479 1302.35 524.333 1301.63C518.698 1300.96 512.884 1301.8 506.673 1301.99ZM678.5 146C533.371 146 388.242 146 243.113 146C236.128 146.001 236.123 146.002 236.123 153.228C236.122 229.708 236.122 306.189 236.122 382.669C236.122 383.502 236.131 384.335 236.121 385.168C236.085 388.467 237.201 390.326 241.015 390.053C248.262 389.534 255.528 389.248 262.791 389.016C284.976 388.305 307.168 387.779 329.348 386.942C337.884 386.62 346.456 386.077 354.906 384.887C368.948 382.909 382.944 380.532 396.89 377.947C414.353 374.711 431.953 371.896 449.118 367.449C472.784 361.317 496.258 354.323 519.522 346.795C548.322 337.477 576.262 325.762 603.177 311.956C625.14 300.69 646.909 288.841 667.75 275.649C689.327 261.99 710.16 247.021 730.41 231.444C744.639 220.499 757.362 207.596 770.724 195.529C775.514 191.203 780.264 186.829 784.931 182.371C797.244 170.608 809.5 158.788 822.809 146C773.998 146 726.749 146 678.5 146Z" fill="#AAAAAA"/>
<path d="M572.565 718.744C574.51 717.204 576.441 715.158 578.389 715.142C603.885 714.927 629.397 714.48 654.878 715.131C686.233 715.932 717.097 720.211 746.855 730.921C767.261 738.265 786.512 747.794 804.755 759.471C826.828 773.599 846.498 790.611 864.105 809.906C877.459 824.54 888.756 840.762 898.515 858.072C909.31 877.221 918.314 897.135 923.834 918.395C927.559 932.741 930.343 947.366 932.803 961.992C934.505 972.111 935.124 982.431 935.835 992.689C936.09 996.363 934.458 999.087 929.826 999.056C910.495 998.926 891.162 999.006 871.83 998.998C867.651 998.996 865.932 997.252 865.776 992.705C864.85 965.752 859.67 939.692 848.896 914.816C840.944 896.454 830.792 879.379 818.124 864.014C801.246 843.542 781.455 826.278 758.221 813.105C740.454 803.031 721.733 795.503 701.919 790.653C683.757 786.207 665.335 784.35 646.631 784.912C643.29 785.012 642.338 786.857 641.759 789.319C641.425 790.742 641.676 792.304 641.676 793.804C641.675 960.792 641.675 1127.78 641.675 1294.77C641.675 1296.72 641.675 1298.67 641.675 1300.81C618.553 1300.81 595.93 1300.81 572.558 1300.81C572.558 1106.94 572.558 913.062 572.565 718.744Z" fill="#AAAAAA"/>
</g>
</g>
<defs>
<clipPath id="clip0_6173_2">
<rect width="1080" height="1389" fill="white"/>
</clipPath>
</defs>
</svg>
