<svg width="110" height="110" viewBox="0 0 110 110" fill="none" xmlns="http://www.w3.org/2000/svg">
<path d="M93.775 16.0051C88.7326 10.9117 82.7265 6.87326 76.107 4.12536C69.4875 1.37747 62.3872 -0.0248848 55.22 8.34923e-05C25.19 8.34923e-05 0.715025 24.4751 0.715025 54.5051C0.715025 64.1301 3.24502 73.4801 7.97503 81.7301L0.275024 110L29.15 102.41C37.125 106.755 46.09 109.065 55.22 109.065C85.25 109.065 109.725 84.5901 109.725 54.5601C109.725 39.9851 104.06 26.2901 93.775 16.0051ZM55.22 99.8251C47.08 99.8251 39.105 97.6251 32.12 93.5001L30.47 92.5101L13.31 97.0201L17.875 80.3001L16.775 78.5951C12.2526 71.3734 9.8513 63.0259 9.84502 54.5051C9.84502 29.5351 30.195 9.18508 55.165 9.18508C67.265 9.18508 78.65 13.9151 87.175 22.4951C91.3962 26.6969 94.7414 31.6947 97.0167 37.1989C99.292 42.7031 100.452 48.6042 100.43 54.5601C100.54 79.5301 80.19 99.8251 55.22 99.8251ZM80.08 65.9451C78.705 65.2851 71.995 61.9851 70.785 61.4901C69.52 61.0501 68.64 60.8301 67.705 62.1501C66.77 63.5251 64.185 66.6051 63.415 67.4851C62.645 68.4201 61.82 68.5301 60.445 67.8151C59.07 67.1551 54.67 65.6701 49.5 61.0501C45.43 57.4201 42.735 52.9651 41.91 51.5901C41.14 50.2151 41.8 49.5001 42.515 48.7851C43.12 48.1801 43.89 47.1901 44.55 46.4201C45.21 45.6501 45.485 45.0451 45.925 44.1651C46.365 43.2301 46.145 42.4601 45.815 41.8001C45.485 41.1401 42.735 34.4301 41.635 31.6801C40.535 29.0401 39.38 29.3701 38.555 29.3151H35.915C34.98 29.3151 33.55 29.6451 32.285 31.0201C31.075 32.3951 27.555 35.6951 27.555 42.4051C27.555 49.1151 32.45 55.6051 33.11 56.4851C33.77 57.4201 42.735 71.1701 56.375 77.0551C59.62 78.4851 62.15 79.3101 64.13 79.9151C67.375 80.9601 70.345 80.7951 72.71 80.4651C75.35 80.0801 80.795 77.1651 81.895 73.9751C83.05 70.7851 83.05 68.0901 82.665 67.4851C82.28 66.8801 81.455 66.6051 80.08 65.9451Z" fill="white"/>
</svg>
