<svg width="140" height="140" viewBox="0 0 140 140" fill="none" xmlns="http://www.w3.org/2000/svg">
<path d="M111.125 28.6419C105.777 23.2398 99.4069 18.9566 92.3863 16.0421C85.3656 13.1277 77.8349 11.6404 70.2334 11.6669C38.3834 11.6669 12.425 37.6252 12.425 69.4752C12.425 79.6835 15.1084 89.6002 20.125 98.3502L11.9584 128.334L42.5834 120.284C51.0417 124.892 60.55 127.342 70.2334 127.342C102.083 127.342 128.042 101.384 128.042 69.5335C128.042 54.0752 122.033 39.5502 111.125 28.6419ZM70.2334 117.542C61.6 117.542 53.1417 115.209 45.7334 110.834L43.9834 109.784L25.7834 114.567L30.625 96.8335L29.4584 95.0252C24.6619 87.3658 22.115 78.5124 22.1084 69.4752C22.1084 42.9918 43.6917 21.4085 70.175 21.4085C83.0084 21.4085 95.0834 26.4252 104.125 35.5252C108.602 39.9816 112.15 45.2824 114.563 51.1202C116.976 56.9579 118.207 63.2167 118.183 69.5335C118.3 96.0169 96.7167 117.542 70.2334 117.542ZM96.6 81.6085C95.1417 80.9085 88.025 77.4085 86.7417 76.8835C85.4 76.4169 84.4667 76.1835 83.475 77.5835C82.4834 79.0419 79.7417 82.3085 78.925 83.2419C78.1084 84.2335 77.2334 84.3502 75.775 83.5919C74.3167 82.8919 69.65 81.3169 64.1667 76.4169C59.85 72.5669 56.9917 67.8419 56.1167 66.3835C55.3 64.9252 56 64.1668 56.7584 63.4085C57.4 62.7668 58.2167 61.7168 58.9167 60.9002C59.6167 60.0835 59.9084 59.4418 60.375 58.5085C60.8417 57.5168 60.6084 56.7002 60.2584 56.0002C59.9084 55.3002 56.9917 48.1835 55.825 45.2669C54.6584 42.4669 53.4334 42.8169 52.5584 42.7585H49.7584C48.7667 42.7585 47.25 43.1085 45.9084 44.5669C44.625 46.0252 40.8917 49.5252 40.8917 56.6419C40.8917 63.7585 46.0834 70.6419 46.7834 71.5752C47.4834 72.5669 56.9917 87.1502 71.4584 93.3919C74.9 94.9085 77.5834 95.7835 79.6834 96.4252C83.125 97.5335 86.275 97.3585 88.7834 97.0085C91.5834 96.6002 97.3584 93.5085 98.525 90.1252C99.75 86.7418 99.75 83.8835 99.3417 83.2419C98.9334 82.6002 98.0584 82.3085 96.6 81.6085Z" fill="#25D366"/>
</svg>
