<svg width="118" height="118" viewBox="0 0 118 118" fill="none" xmlns="http://www.w3.org/2000/svg">
<path d="M100.125 17.6423C94.7771 12.2402 88.407 7.95704 81.3864 5.04254C74.3657 2.12814 66.835 0.64084 59.2335 0.66734C27.3835 0.66734 1.4251 26.6256 1.4251 58.4756C1.4251 68.6839 4.1085 78.6006 9.1251 87.3506L0.958496 117.334L31.5835 109.284C40.0418 113.892 49.5501 116.342 59.2335 116.342C91.0831 116.342 117.042 90.3844 117.042 58.5339C117.042 43.0756 111.033 28.5506 100.125 17.6423ZM59.2335 106.542C50.6001 106.542 42.1418 104.209 34.7335 99.8344L32.9835 98.7844L14.7835 103.567L19.6251 85.8339L18.4585 84.0256C13.662 76.3662 11.1151 67.5128 11.1085 58.4756C11.1085 31.9922 32.6918 10.4089 59.1751 10.4089C72.0085 10.4089 84.0835 15.4256 93.1251 24.5256C97.6021 28.982 101.15 34.2828 103.563 40.1206C105.976 45.9583 107.207 52.2171 107.183 58.5339C107.3 85.0173 85.7168 106.542 59.2335 106.542ZM85.6001 70.6089C84.1418 69.9089 77.0251 66.4089 75.7418 65.8839C74.4001 65.4173 73.4668 65.1839 72.4751 66.5839C71.4835 68.0423 68.7418 71.3089 67.9251 72.2423C67.1085 73.2339 66.2335 73.3506 64.7751 72.5923C63.3168 71.8923 58.6501 70.3173 53.1668 65.4173C48.8501 61.5673 45.9918 56.8423 45.1168 55.3839C44.3001 53.9256 45.0001 53.1672 45.7585 52.4089C46.4001 51.7672 47.2168 50.7172 47.9168 49.9006C48.6168 49.0839 48.9085 48.4422 49.3751 47.5089C49.8418 46.5172 49.6085 45.7006 49.2585 45.0006C48.9085 44.3006 45.9918 37.1839 44.8251 34.2673C43.6585 31.4673 42.4335 31.8173 41.5585 31.7589H38.7585C37.7668 31.7589 36.2501 32.1089 34.9085 33.5673C33.6251 35.0256 29.8918 38.5256 29.8918 45.6423C29.8918 52.7589 35.0835 59.6423 35.7835 60.5756C36.4835 61.5673 45.9918 76.1506 60.4585 82.3923C63.9001 83.9089 66.5835 84.7839 68.6835 85.4256C72.1251 86.5339 75.2751 86.3589 77.7835 86.0089C80.5835 85.6006 86.3585 82.5089 87.5251 79.1256C88.7501 75.7422 88.7501 72.8839 88.3418 72.2423C87.9335 71.6006 87.0585 71.3089 85.6001 70.6089Z" fill="#58CCE9"/>
</svg>
