<svg version="1.1" id="Layer_1" xmlns="http://www.w3.org/2000/svg" xmlns:xlink="http://www.w3.org/1999/xlink" x="0px" y="0px"
	 width="100%" viewBox="0 0 360 360" enable-background="new 0 0 360 360" xml:space="preserve">
<path fill="#E9F3F8" opacity="1.000000" stroke="none" 
	d="
M346.000000,1.000000 
	C350.994293,1.000000 355.988556,1.000000 360.964661,1.000000 
	C360.964661,121.000008 360.964661,241.000015 360.964661,361.000000 
	C356.267975,361.000000 351.606628,361.000000 346.456848,360.584747 
	C343.763367,357.414520 333.099274,356.929199 331.155029,359.538391 
	C330.903168,359.876434 331.042114,360.505646 331.000000,361.000000 
	C326.310760,361.000000 321.621490,361.000000 316.450317,360.584747 
	C313.763367,357.414520 303.099243,356.929199 301.155060,359.538391 
	C300.903168,359.876434 301.042114,360.505646 301.000000,361.000000 
	C296.310760,361.000000 291.621490,361.000000 286.450317,360.584747 
	C283.763367,357.414520 273.099274,356.929230 271.155060,359.538391 
	C270.903198,359.876434 271.042084,360.505646 271.000000,361.000000 
	C266.310760,361.000000 261.621490,361.000000 256.450317,360.584747 
	C253.763367,357.414520 243.099289,356.929199 241.154999,359.538391 
	C240.903137,359.876434 241.042084,360.505646 241.000000,361.000000 
	C236.310745,361.000000 231.621490,361.000000 226.450302,360.584747 
	C223.763321,357.414520 213.099304,356.929230 211.155029,359.538391 
	C210.903168,359.876434 211.042084,360.505646 211.000000,361.000000 
	C206.310745,361.000000 201.621490,361.000000 196.450302,360.584747 
	C193.763321,357.414520 183.099274,356.929199 181.155014,359.538391 
	C180.903137,359.876404 181.042099,360.505646 181.000000,361.000000 
	C176.310745,361.000000 171.621490,361.000000 166.450302,360.584747 
	C163.763321,357.414520 153.099304,356.929230 151.155029,359.538391 
	C150.903168,359.876434 151.042084,360.505646 151.000000,361.000000 
	C146.310745,361.000000 141.621490,361.000000 136.450302,360.584747 
	C133.763306,357.414520 123.099228,356.929199 121.155029,359.538391 
	C120.903145,359.876434 121.042091,360.505646 121.000000,361.000000 
	C116.310745,361.000000 111.621490,361.000000 106.450287,360.584747 
	C103.763405,357.414520 93.099258,356.929230 91.155045,359.538391 
	C90.903168,359.876434 91.042091,360.505646 91.000000,361.000000 
	C86.310745,361.000000 81.621490,361.000000 76.450287,360.584747 
	C73.763420,357.414520 63.099323,356.929199 61.155033,359.538391 
	C60.903152,359.876404 61.042099,360.505646 61.000000,361.000000 
	C56.310745,361.000000 51.621487,361.000000 46.450287,360.584747 
	C43.763325,357.414520 33.099319,356.929230 31.155052,359.538391 
	C30.903170,359.876434 31.042097,360.505646 31.000000,361.000000 
	C26.310745,361.000000 21.621489,361.000000 16.450968,360.589233 
	C14.649751,359.452209 13.392505,358.554504 11.993995,358.043121 
	C10.239393,357.401489 8.368972,357.076599 6.976515,356.634583 
	C124.136200,356.654144 240.867905,356.654144 357.872498,356.654144 
	C357.972992,354.712830 358.114410,353.255157 358.114532,351.797516 
	C358.124786,237.686310 358.128204,123.575111 358.076477,9.463940 
	C358.075806,8.019244 357.360107,6.574874 356.523743,5.076606 
	C352.707062,4.960601 349.344788,4.898343 345.988342,4.452522 
	C345.996124,3.045973 345.998047,2.022986 346.000000,1.000000 
z"/>
<path fill="#FFFFFE" opacity="1.000000" stroke="none" 
	d="
M1.000000,16.000000 
	C1.000000,11.075478 1.000000,6.150956 1.000000,1.000000 
	C5.683317,1.000000 10.368995,1.000000 15.527325,1.383404 
	C15.994975,2.789186 15.989973,3.811563 15.547091,4.905158 
	C12.744498,5.028053 10.379787,5.079732 7.571711,5.210323 
	C6.866096,10.502639 6.603847,15.716041 6.119530,20.937590 
	C5.602528,20.979940 5.306609,20.995783 5.009880,20.580147 
	C5.416926,17.100149 4.292143,15.507218 1.000000,16.000000 
z"/>
<path fill="#FFFFFE" opacity="1.000000" stroke="none" 
	d="
M1.000000,106.000000 
	C1.000000,101.310745 1.000000,96.621490 1.382421,91.465164 
	C3.283400,90.313644 4.801959,89.629211 6.432494,89.342491 
	C6.476847,96.803284 6.409222,103.866356 6.119530,110.937592 
	C5.602526,110.979927 5.306608,110.995781 5.009880,110.580170 
	C5.416919,107.100166 4.292172,105.507202 1.000000,106.000000 
z"/>
<path fill="#FFFFFE" opacity="1.000000" stroke="none" 
	d="
M1.000000,346.000000 
	C1.000000,341.310760 1.000000,336.621490 1.382416,331.465149 
	C3.283393,330.313660 4.801953,329.629242 6.432491,329.342529 
	C6.476741,336.803741 6.409013,343.867218 6.119262,350.938416 
	C5.602369,350.980072 5.306530,350.995605 5.009888,350.579590 
	C5.416996,347.099548 4.291613,345.507324 1.000000,346.000000 
z"/>
<path fill="#FFFFFE" opacity="1.000000" stroke="none" 
	d="
M1.000000,136.000000 
	C1.000000,131.310745 1.000000,126.621490 1.382420,121.465164 
	C3.283399,120.313644 4.801958,119.629211 6.432494,119.342491 
	C6.476847,126.803291 6.409222,133.866379 6.119530,140.937592 
	C5.602527,140.979935 5.306609,140.995789 5.009880,140.580170 
	C5.416955,137.100143 4.292096,135.507278 1.000000,136.000000 
z"/>
<path fill="#FFFFFE" opacity="1.000000" stroke="none" 
	d="
M1.000000,226.000000 
	C1.000000,221.310745 1.000000,216.621490 1.382425,211.465164 
	C3.283406,210.313660 4.801964,209.629227 6.432496,209.342499 
	C6.476846,216.803284 6.409222,223.866364 6.119530,230.937592 
	C5.602527,230.979935 5.306609,230.995789 5.009880,230.580170 
	C5.416955,227.100143 4.292096,225.507278 1.000000,226.000000 
z"/>
<path fill="#FFFFFE" opacity="1.000000" stroke="none" 
	d="
M1.000000,76.000000 
	C1.000000,71.310745 1.000000,66.621490 1.382421,61.465157 
	C3.283402,60.313656 4.801961,59.629230 6.432496,59.342510 
	C6.476847,66.803291 6.409222,73.866364 6.119530,80.937592 
	C5.602526,80.979927 5.306608,80.995781 5.009880,80.580170 
	C5.416919,77.100166 4.292172,75.507202 1.000000,76.000000 
z"/>
<path fill="#FFFFFE" opacity="1.000000" stroke="none" 
	d="
M1.000000,316.000000 
	C1.000000,311.310760 1.000000,306.621490 1.382422,301.465149 
	C3.283404,300.313660 4.801964,299.629242 6.432497,299.342529 
	C6.476845,306.803314 6.409222,313.866394 6.119534,320.937592 
	C5.602535,320.979950 5.306617,320.995605 5.009883,320.579590 
	C5.416999,317.099548 4.291612,315.507324 1.000000,316.000000 
z"/>
<path fill="#FFFFFE" opacity="1.000000" stroke="none" 
	d="
M1.000000,256.000000 
	C1.000000,251.310745 1.000000,246.621490 1.382424,241.465149 
	C3.283405,240.313644 4.801962,239.629211 6.432496,239.342484 
	C6.476847,246.803284 6.409223,253.866379 6.119534,260.937592 
	C5.602535,260.979950 5.306617,260.995605 5.009883,260.579590 
	C5.416999,257.099548 4.291612,255.507339 1.000000,256.000000 
z"/>
<path fill="#FFFFFE" opacity="1.000000" stroke="none" 
	d="
M1.000000,196.000000 
	C1.000000,191.310745 1.000000,186.621490 1.382422,181.465149 
	C3.283402,180.313644 4.801959,179.629211 6.432494,179.342484 
	C6.476847,186.803284 6.409223,193.866364 6.119530,200.937592 
	C5.602527,200.979935 5.306609,200.995789 5.009880,200.580170 
	C5.416955,197.100143 4.292096,195.507278 1.000000,196.000000 
z"/>
<path fill="#FFFFFE" opacity="1.000000" stroke="none" 
	d="
M1.000000,46.000000 
	C1.000000,41.310745 1.000000,36.621490 1.382322,31.465160 
	C3.282801,30.314152 4.800958,29.630217 6.417053,29.352032 
	C6.457193,36.815006 6.399395,43.872231 6.119530,50.937595 
	C5.602528,50.979946 5.306609,50.995789 5.009880,50.580154 
	C5.416927,47.100151 4.292147,45.507217 1.000000,46.000000 
z"/>
<path fill="#FFFFFE" opacity="1.000000" stroke="none" 
	d="
M1.000000,286.000000 
	C1.000000,281.310760 1.000000,276.621490 1.382307,271.465149 
	C3.282683,270.314117 4.800754,269.630188 6.409806,269.358276 
	C6.447724,276.823364 6.394661,283.876434 6.119534,290.937592 
	C5.602535,290.979950 5.306617,290.995605 5.009883,290.579590 
	C5.416999,287.099548 4.291612,285.507324 1.000000,286.000000 
z"/>
<path fill="#FFFFFE" opacity="1.000000" stroke="none" 
	d="
M1.000000,166.000000 
	C1.000000,161.310745 1.000000,156.621490 1.382307,151.465149 
	C3.282685,150.314163 4.800756,149.630249 6.409809,149.358368 
	C6.447727,156.823395 6.394662,163.876434 6.119530,170.937592 
	C5.602527,170.979935 5.306609,170.995789 5.009880,170.580170 
	C5.416955,167.100143 4.292096,165.507278 1.000000,166.000000 
z"/>
<path fill="#EFEFEF" opacity="1.000000" stroke="none" 
	d="
M1.000000,346.472656 
	C4.291613,345.507324 5.416996,347.099548 5.007171,350.974243 
	C5.460382,352.906372 5.916476,354.030853 6.449328,355.355347 
	C6.526087,355.555359 6.362230,355.951324 6.142501,356.025635 
	C6.101168,356.283112 6.279565,356.466278 6.481864,356.644226 
	C6.505766,356.639008 6.548531,356.615051 6.548532,356.615051 
	C8.368972,357.076599 10.239393,357.401489 11.993995,358.043121 
	C13.392505,358.554504 14.649751,359.452209 15.984852,360.589233 
	C11.075477,361.000000 6.150953,361.000000 1.000000,361.000000 
	C1.000000,356.316681 1.000000,351.630981 1.000000,346.472656 
z"/>
<path fill="#EFEFEF" opacity="1.000000" stroke="none" 
	d="
M6.320518,238.944778 
	C4.801962,239.629211 3.283405,240.313644 1.382424,240.999039 
	C1.000000,236.310745 1.000000,231.621490 1.000000,226.466125 
	C4.292096,225.507278 5.416955,227.100143 5.009712,230.938873 
	C5.463884,233.856827 5.918398,236.002945 6.440779,238.353333 
	C6.508647,238.557587 6.320517,238.944778 6.320518,238.944778 
z"/>
<path fill="#EFEFEF" opacity="1.000000" stroke="none" 
	d="
M1.000000,76.466118 
	C4.292172,75.507202 5.416919,77.100166 5.009713,80.938873 
	C5.463887,83.856819 5.918401,86.002945 6.440783,88.353325 
	C6.508649,88.557587 6.320518,88.944778 6.320518,88.944778 
	C4.801959,89.629211 3.283400,90.313644 1.382421,90.999039 
	C1.000000,86.310745 1.000000,81.621490 1.000000,76.466118 
z"/>
<path fill="#EFEFEF" opacity="1.000000" stroke="none" 
	d="
M1.000000,46.466118 
	C4.292147,45.507217 5.416927,47.100151 5.009713,50.938866 
	C5.463887,53.856819 5.918400,56.002949 6.440781,58.353336 
	C6.508647,58.557598 6.320518,58.944801 6.320519,58.944801 
	C4.801961,59.629230 3.283402,60.313656 1.382421,60.999039 
	C1.000000,56.310745 1.000000,51.621487 1.000000,46.466118 
z"/>
<path fill="#EFEFEF" opacity="1.000000" stroke="none" 
	d="
M6.320518,118.944778 
	C4.801958,119.629211 3.283399,120.313644 1.382420,120.999039 
	C1.000000,116.310745 1.000000,111.621490 1.000000,106.466118 
	C4.292172,105.507202 5.416919,107.100166 5.009713,110.938873 
	C5.463886,113.856819 5.918400,116.002945 6.440782,118.353325 
	C6.508649,118.557587 6.320518,118.944778 6.320518,118.944778 
z"/>
<path fill="#EFEFEF" opacity="1.000000" stroke="none" 
	d="
M1.000000,286.466125 
	C4.291612,285.507324 5.416999,287.099548 5.009711,290.938385 
	C5.463887,293.856506 5.918403,296.002747 6.440784,298.353302 
	C6.508649,298.557587 6.320520,298.944824 6.320522,298.944824 
	C4.801964,299.629242 3.283404,300.313660 1.382422,300.999023 
	C1.000000,296.310760 1.000000,291.621490 1.000000,286.466125 
z"/>
<path fill="#EFEFEF" opacity="1.000000" stroke="none" 
	d="
M6.318829,148.946350 
	C4.800756,149.630249 3.282685,150.314163 1.382307,150.999039 
	C1.000000,146.310745 1.000000,141.621490 1.000000,136.466125 
	C4.292096,135.507278 5.416955,137.100143 5.009712,140.938873 
	C5.463885,143.856827 5.918399,146.002945 6.440283,148.353867 
	C6.507653,148.558670 6.318830,148.946350 6.318829,148.946350 
z"/>
<path fill="#EFEFEF" opacity="1.000000" stroke="none" 
	d="
M6.319116,28.946281 
	C4.800958,29.630217 3.282801,30.314152 1.382322,30.999043 
	C1.000000,26.310745 1.000000,21.621489 1.000000,16.466118 
	C4.292143,15.507218 5.416926,17.100149 5.009713,20.938860 
	C5.463886,23.856817 5.918399,26.002947 6.440343,28.353836 
	C6.507774,28.558596 6.319116,28.946281 6.319116,28.946281 
z"/>
<path fill="#EFEFEF" opacity="1.000000" stroke="none" 
	d="
M1.000000,166.466125 
	C4.292096,165.507278 5.416955,167.100143 5.009712,170.938873 
	C5.463885,173.856827 5.918399,176.002945 6.440780,178.353333 
	C6.508647,178.557587 6.320517,178.944778 6.320517,178.944778 
	C4.801959,179.629211 3.283402,180.313644 1.382422,180.999039 
	C1.000000,176.310745 1.000000,171.621490 1.000000,166.466125 
z"/>
<path fill="#EFEFEF" opacity="1.000000" stroke="none" 
	d="
M6.318826,268.946259 
	C4.800754,269.630188 3.282683,270.314117 1.382307,270.999023 
	C1.000000,266.310760 1.000000,261.621490 1.000000,256.466125 
	C4.291612,255.507339 5.416999,257.099548 5.009710,260.938385 
	C5.463885,263.856506 5.918401,266.002747 6.440286,268.353821 
	C6.507655,268.558624 6.318827,268.946259 6.318826,268.946259 
z"/>
<path fill="#EFEFEF" opacity="1.000000" stroke="none" 
	d="
M1.000000,316.466125 
	C4.291612,315.507324 5.416999,317.099548 5.009712,320.938385 
	C5.463889,323.856506 5.918404,326.002747 6.440784,328.353302 
	C6.508649,328.557587 6.320520,328.944824 6.320517,328.944824 
	C4.801953,329.629242 3.283393,330.313660 1.382416,330.999023 
	C1.000000,326.310760 1.000000,321.621490 1.000000,316.466125 
z"/>
<path fill="#EFEFEF" opacity="1.000000" stroke="none" 
	d="
M1.000000,196.466125 
	C4.292096,195.507278 5.416955,197.100143 5.009713,200.938873 
	C5.463886,203.856827 5.918400,206.002945 6.440781,208.353333 
	C6.508647,208.557587 6.320517,208.944778 6.320519,208.944794 
	C4.801964,209.629227 3.283406,210.313660 1.382425,210.999054 
	C1.000000,206.310745 1.000000,201.621490 1.000000,196.466125 
z"/>
<path fill="#EFEFEF" opacity="1.000000" stroke="none" 
	d="
M256.000000,1.000000 
	C260.689240,1.000000 265.378510,1.000000 270.533875,1.383417 
	C271.005066,2.789206 271.010162,3.811578 270.552612,4.903954 
	C265.388306,4.927286 260.686615,4.880614 255.989777,4.450583 
	C255.996399,3.044816 255.998199,2.022408 256.000000,1.000000 
z"/>
<path fill="#EFEFEF" opacity="1.000000" stroke="none" 
	d="
M286.000000,1.000000 
	C290.689240,1.000000 295.378510,1.000000 300.533875,1.383417 
	C301.005066,2.789206 301.010162,3.811578 300.552612,4.903954 
	C295.388275,4.927286 290.686584,4.880614 285.989746,4.450575 
	C285.996399,3.044805 285.998169,2.022402 286.000000,1.000000 
z"/>
<path fill="#EFEFEF" opacity="1.000000" stroke="none" 
	d="
M15.984972,4.833941 
	C15.989973,3.811563 15.994975,2.789186 15.999989,1.383404 
	C20.689255,1.000000 25.378511,1.000000 30.533894,1.383404 
	C31.005047,2.789187 31.010073,3.811566 30.552485,4.903954 
	C25.388237,4.927288 20.686604,4.880615 15.984972,4.833941 
z"/>
<path fill="#FFFFFE" opacity="1.000000" stroke="none" 
	d="
M31.015099,4.833945 
	C31.010073,3.811566 31.005047,2.789187 31.000011,1.383404 
	C35.689255,1.000000 40.378513,1.000000 45.533875,1.383404 
	C45.994976,2.789185 45.989971,3.811563 45.524643,4.905395 
	C40.381241,4.929214 35.698170,4.881580 31.015099,4.833945 
z"/>
<path fill="#EFEFEF" opacity="1.000000" stroke="none" 
	d="
M45.984970,4.833941 
	C45.989971,3.811563 45.994976,2.789185 45.999992,1.383404 
	C50.689255,1.000000 55.378513,1.000000 60.533894,1.383404 
	C61.005043,2.789187 61.010067,3.811566 60.552483,4.903954 
	C55.388237,4.927288 50.686600,4.880614 45.984970,4.833941 
z"/>
<path fill="#FFFFFE" opacity="1.000000" stroke="none" 
	d="
M61.015091,4.833945 
	C61.010067,3.811566 61.005043,2.789187 61.000008,1.383404 
	C65.689255,1.000000 70.378510,1.000000 75.533882,1.383404 
	C75.994995,2.789185 75.989990,3.811563 75.524658,4.905395 
	C70.381248,4.929215 65.698174,4.881580 61.015091,4.833945 
z"/>
<path fill="#FFFFFE" opacity="1.000000" stroke="none" 
	d="
M345.533875,1.000000 
	C345.998047,2.022986 345.996124,3.045973 345.528137,4.523063 
	C340.379822,4.929428 335.697510,4.881689 331.010376,4.450591 
	C331.003693,3.044821 331.001862,2.022410 331.000000,1.000000 
	C335.689240,1.000000 340.378510,1.000000 345.533875,1.000000 
z"/>
<path fill="#EFEFEF" opacity="1.000000" stroke="none" 
	d="
M330.533875,1.000000 
	C331.001862,2.022410 331.003693,3.044821 330.547729,4.520594 
	C325.388275,4.927286 320.686584,4.880614 315.989746,4.450576 
	C315.996399,3.044805 315.998199,2.022403 316.000000,1.000000 
	C320.689240,1.000000 325.378510,1.000000 330.533875,1.000000 
z"/>
<path fill="#FFFFFE" opacity="1.000000" stroke="none" 
	d="
M315.533875,1.000000 
	C315.998199,2.022403 315.996399,3.044805 315.529419,4.522030 
	C310.381226,4.929219 305.698242,4.881585 301.015228,4.833951 
	C301.010162,3.811578 301.005066,2.789206 301.000000,1.383417 
	C305.689240,1.000000 310.378510,1.000000 315.533875,1.000000 
z"/>
<path fill="#FFFFFE" opacity="1.000000" stroke="none" 
	d="
M285.533875,1.000000 
	C285.998169,2.022402 285.996399,3.044805 285.529419,4.522029 
	C280.381226,4.929218 275.698242,4.881585 271.015228,4.833951 
	C271.010162,3.811578 271.005066,2.789206 271.000000,1.383417 
	C275.689240,1.000000 280.378510,1.000000 285.533875,1.000000 
z"/>
<path fill="#EFEFEF" opacity="1.000000" stroke="none" 
	d="
M75.984985,4.833941 
	C75.989990,3.811563 75.994995,2.789185 76.000000,1.383404 
	C80.689255,1.000000 85.378510,1.000000 90.533890,1.383416 
	C91.005035,2.789203 91.010056,3.811574 90.552467,4.903954 
	C85.388229,4.927289 80.686600,4.880615 75.984985,4.833941 
z"/>
<path fill="#EFEFEF" opacity="1.000000" stroke="none" 
	d="
M106.000000,1.000000 
	C110.689255,1.000000 115.378510,1.000000 120.533890,1.383416 
	C121.005020,2.789202 121.010025,3.811572 120.552444,4.903957 
	C115.388237,4.927295 110.686607,4.880618 105.989838,4.450572 
	C105.996468,3.044803 105.998230,2.022402 106.000000,1.000000 
z"/>
<path fill="#FFFFFE" opacity="1.000000" stroke="none" 
	d="
M255.533875,1.000000 
	C255.998199,2.022408 255.996399,3.044816 255.529434,4.522036 
	C250.381226,4.929214 245.698166,4.881581 241.010284,4.450587 
	C241.003647,3.044818 241.001831,2.022409 241.000000,1.000000 
	C245.689255,1.000000 250.378510,1.000000 255.533875,1.000000 
z"/>
<path fill="#EFEFEF" opacity="1.000000" stroke="none" 
	d="
M240.533890,1.000000 
	C241.001831,2.022409 241.003647,3.044818 240.547668,4.520596 
	C235.388245,4.927289 230.686600,4.880616 225.989777,4.450583 
	C225.996399,3.044815 225.998199,2.022408 226.000000,1.000000 
	C230.689255,1.000000 235.378510,1.000000 240.533890,1.000000 
z"/>
<path fill="#FFFFFE" opacity="1.000000" stroke="none" 
	d="
M225.533875,1.000000 
	C225.998199,2.022408 225.996399,3.044815 225.529434,4.522035 
	C220.381226,4.929214 215.698166,4.881580 211.010284,4.450587 
	C211.003647,3.044818 211.001831,2.022409 211.000000,1.000000 
	C215.689255,1.000000 220.378510,1.000000 225.533875,1.000000 
z"/>
<path fill="#FFFFFE" opacity="1.000000" stroke="none" 
	d="
M105.533882,1.000000 
	C105.998230,2.022402 105.996468,3.044803 105.529510,4.522027 
	C100.381241,4.929214 95.698166,4.881579 91.015083,4.833944 
	C91.010056,3.811574 91.005035,2.789203 91.000000,1.383416 
	C95.689255,1.000000 100.378510,1.000000 105.533882,1.000000 
z"/>
<path fill="#EFEFEF" opacity="1.000000" stroke="none" 
	d="
M210.533890,1.000000 
	C211.001831,2.022409 211.003647,3.044818 210.547668,4.520595 
	C205.388245,4.927289 200.686600,4.880616 195.989777,4.450583 
	C195.996384,3.044816 195.998199,2.022408 196.000000,1.000000 
	C200.689255,1.000000 205.378510,1.000000 210.533890,1.000000 
z"/>
<path fill="#FFFFFE" opacity="1.000000" stroke="none" 
	d="
M195.533875,1.000000 
	C195.998199,2.022408 195.996384,3.044816 195.529434,4.522036 
	C190.381226,4.929214 185.698166,4.881580 181.010284,4.450587 
	C181.003647,3.044818 181.001831,2.022409 181.000000,1.000000 
	C185.689255,1.000000 190.378510,1.000000 195.533875,1.000000 
z"/>
<path fill="#EFEFEF" opacity="1.000000" stroke="none" 
	d="
M180.533890,1.000000 
	C181.001831,2.022409 181.003647,3.044818 180.547668,4.520596 
	C175.388245,4.927289 170.686600,4.880616 165.989777,4.450583 
	C165.996384,3.044815 165.998199,2.022408 166.000000,1.000000 
	C170.689255,1.000000 175.378510,1.000000 180.533890,1.000000 
z"/>
<path fill="#FFFFFE" opacity="1.000000" stroke="none" 
	d="
M165.533875,1.000000 
	C165.998199,2.022408 165.996384,3.044815 165.529434,4.522035 
	C160.381226,4.929214 155.698166,4.881580 151.010284,4.450587 
	C151.003647,3.044818 151.001831,2.022409 151.000000,1.000000 
	C155.689255,1.000000 160.378510,1.000000 165.533875,1.000000 
z"/>
<path fill="#EFEFEF" opacity="1.000000" stroke="none" 
	d="
M150.533890,1.000000 
	C151.001831,2.022409 151.003647,3.044818 150.547668,4.520595 
	C145.388245,4.927290 140.686600,4.880616 135.989822,4.450575 
	C135.996460,3.044805 135.998230,2.022403 136.000000,1.000000 
	C140.689255,1.000000 145.378510,1.000000 150.533890,1.000000 
z"/>
<path fill="#FFFFFE" opacity="1.000000" stroke="none" 
	d="
M135.533875,1.000000 
	C135.998230,2.022403 135.996460,3.044805 135.529480,4.522028 
	C130.381195,4.929212 125.698112,4.881577 121.015030,4.833941 
	C121.010025,3.811572 121.005020,2.789202 121.000000,1.383416 
	C125.689255,1.000000 130.378510,1.000000 135.533875,1.000000 
z"/>
<path fill="#EFEFEF" opacity="1.000000" stroke="none" 
	d="
M331.466125,361.000000 
	C331.042114,360.505646 330.903168,359.876434 331.155029,359.538391 
	C333.099274,356.929199 343.763367,357.414520 345.984192,360.584747 
	C341.310760,361.000000 336.621490,361.000000 331.466125,361.000000 
z"/>
<path fill="#EFEFEF" opacity="1.000000" stroke="none" 
	d="
M31.466118,361.000000 
	C31.042097,360.505646 30.903170,359.876434 31.155052,359.538391 
	C33.099319,356.929230 43.763325,357.414520 45.984173,360.584747 
	C41.310745,361.000000 36.621490,361.000000 31.466118,361.000000 
z"/>
<path fill="#EFEFEF" opacity="1.000000" stroke="none" 
	d="
M61.466118,361.000000 
	C61.042099,360.505646 60.903152,359.876404 61.155033,359.538391 
	C63.099323,356.929199 73.763420,357.414520 75.984177,360.584747 
	C71.310745,361.000000 66.621490,361.000000 61.466118,361.000000 
z"/>
<path fill="#EFEFEF" opacity="1.000000" stroke="none" 
	d="
M91.466118,361.000000 
	C91.042091,360.505646 90.903168,359.876434 91.155045,359.538391 
	C93.099258,356.929230 103.763405,357.414520 105.984177,360.584747 
	C101.310745,361.000000 96.621490,361.000000 91.466118,361.000000 
z"/>
<path fill="#EFEFEF" opacity="1.000000" stroke="none" 
	d="
M121.466110,361.000000 
	C121.042091,360.505646 120.903145,359.876434 121.155029,359.538391 
	C123.099228,356.929199 133.763306,357.414520 135.984192,360.584747 
	C131.310745,361.000000 126.621490,361.000000 121.466110,361.000000 
z"/>
<path fill="#EFEFEF" opacity="1.000000" stroke="none" 
	d="
M151.466125,361.000000 
	C151.042084,360.505646 150.903168,359.876434 151.155029,359.538391 
	C153.099304,356.929230 163.763321,357.414520 165.984192,360.584747 
	C161.310745,361.000000 156.621490,361.000000 151.466125,361.000000 
z"/>
<path fill="#EFEFEF" opacity="1.000000" stroke="none" 
	d="
M181.466125,361.000000 
	C181.042099,360.505646 180.903137,359.876404 181.155014,359.538391 
	C183.099274,356.929199 193.763321,357.414520 195.984192,360.584747 
	C191.310745,361.000000 186.621490,361.000000 181.466125,361.000000 
z"/>
<path fill="#EFEFEF" opacity="1.000000" stroke="none" 
	d="
M211.466125,361.000000 
	C211.042084,360.505646 210.903168,359.876434 211.155029,359.538391 
	C213.099304,356.929230 223.763321,357.414520 225.984192,360.584747 
	C221.310745,361.000000 216.621490,361.000000 211.466125,361.000000 
z"/>
<path fill="#EFEFEF" opacity="1.000000" stroke="none" 
	d="
M241.466110,361.000000 
	C241.042084,360.505646 240.903137,359.876434 241.154999,359.538391 
	C243.099289,356.929199 253.763367,357.414520 255.984177,360.584747 
	C251.310745,361.000000 246.621490,361.000000 241.466110,361.000000 
z"/>
<path fill="#EFEFEF" opacity="1.000000" stroke="none" 
	d="
M271.466125,361.000000 
	C271.042084,360.505646 270.903198,359.876434 271.155060,359.538391 
	C273.099274,356.929230 283.763367,357.414520 285.984192,360.584747 
	C281.310760,361.000000 276.621490,361.000000 271.466125,361.000000 
z"/>
<path fill="#EFEFEF" opacity="1.000000" stroke="none" 
	d="
M301.466125,361.000000 
	C301.042114,360.505646 300.903168,359.876434 301.155060,359.538391 
	C303.099243,356.929199 313.763367,357.414520 315.984192,360.584747 
	C311.310760,361.000000 306.621490,361.000000 301.466125,361.000000 
z"/>
<path fill="#007ACC" opacity="1.000000" stroke="none" 
	d="
M120.552444,4.903957 
	C125.698112,4.881577 130.381195,4.929212 135.524628,4.905396 
	C140.686600,4.880616 145.388245,4.927290 150.552490,4.903955 
	C155.698166,4.881580 160.381226,4.929214 165.524628,4.905395 
	C170.686600,4.880616 175.388245,4.927289 180.552490,4.903955 
	C185.698166,4.881580 190.381226,4.929214 195.524628,4.905396 
	C200.686600,4.880616 205.388245,4.927289 210.552490,4.903955 
	C215.698166,4.881580 220.381226,4.929214 225.524628,4.905395 
	C230.686600,4.880616 235.388245,4.927289 240.552490,4.903955 
	C245.698166,4.881581 250.381226,4.929214 255.524628,4.905396 
	C260.686615,4.880614 265.388306,4.927286 270.552612,4.903954 
	C275.698242,4.881585 280.381226,4.929218 285.524567,4.905397 
	C290.686584,4.880614 295.388275,4.927286 300.552612,4.903954 
	C305.698242,4.881585 310.381226,4.929219 315.524567,4.905398 
	C320.686584,4.880614 325.388275,4.927286 330.552612,4.903954 
	C335.697510,4.881689 340.379822,4.929428 345.522339,4.906626 
	C349.344788,4.898343 352.707062,4.960601 356.537720,5.536295 
	C357.009827,120.543274 356.998505,235.036835 357.082397,349.530304 
	C357.085205,353.340302 356.554047,355.119690 352.030914,355.114716 
	C239.037445,354.990326 126.043793,355.000732 13.050248,355.087402 
	C9.238402,355.090332 7.890373,354.211060 7.894660,350.111511 
	C8.014904,235.118225 8.004230,120.124809 8.015076,5.131411 
	C10.379787,5.079732 12.744498,5.028053 15.547091,4.905158 
	C20.686604,4.880615 25.388237,4.927288 30.552485,4.903954 
	C35.698170,4.881580 40.381241,4.929214 45.524639,4.905395 
	C50.686600,4.880614 55.388237,4.927288 60.552483,4.903954 
	C65.698174,4.881580 70.381248,4.929215 75.524651,4.905395 
	C80.686600,4.880615 85.388229,4.927289 90.552467,4.903954 
	C95.698166,4.881579 100.381241,4.929214 105.524651,4.905395 
	C110.686607,4.880618 115.388237,4.927295 120.552444,4.903957 
M273.033325,260.856812 
	C273.688995,261.135773 274.344635,261.414734 275.583862,262.004852 
	C276.393463,262.323273 277.203094,262.641724 278.527588,263.403931 
	C280.641632,264.365692 282.755707,265.327484 285.333344,266.765106 
	C288.163361,268.637939 290.993378,270.510773 294.033661,273.056458 
	C297.349182,276.827148 297.250000,281.421875 296.906921,286.672211 
	C294.881439,293.039581 289.746643,295.928101 283.270294,298.114471 
	C281.829102,298.716278 280.270081,300.022491 278.966095,299.804352 
	C271.160583,298.498291 262.914124,298.642242 255.700256,293.105133 
	C253.025772,290.691132 250.351303,288.277161 247.327332,285.206299 
	C245.927856,283.326874 244.528366,281.447418 242.858185,279.204437 
	C241.390594,280.333496 240.217026,281.236359 238.602036,282.471436 
	C238.114532,282.995392 237.627045,283.519379 236.390442,284.079987 
	C232.594864,286.055969 228.799286,288.031952 224.302216,290.115845 
	C221.797272,291.553223 219.292313,292.990570 216.383881,294.659485 
	C223.540359,304.612610 229.714722,314.522339 241.459229,319.568817 
	C242.194794,319.863098 242.930359,320.157379 243.728729,320.044617 
	C243.728729,320.044617 243.695068,320.454559 244.039917,320.866150 
	C244.694336,321.143951 245.348755,321.421753 246.587524,322.007385 
	C247.395813,322.326630 248.204086,322.645844 249.422836,323.331177 
	C249.949646,323.453979 250.476456,323.576782 251.478455,323.944000 
	C251.656433,323.951019 251.834412,323.958038 252.422836,324.331146 
	C252.949646,324.453949 253.476456,324.576782 254.499481,324.927826 
	C254.679031,324.897644 254.858566,324.867493 255.801315,325.081207 
	C262.942383,325.855835 270.083466,326.630432 277.601776,327.512970 
	C277.601776,327.512970 277.886414,327.241638 278.828003,327.309967 
	C287.550323,327.117554 296.137360,326.291504 304.687958,321.926727 
	C307.442505,320.276459 310.197052,318.626221 313.572815,316.761139 
	C314.842499,315.565765 316.112183,314.370392 318.007172,312.994476 
	C320.772095,309.040375 323.537048,305.086243 326.772644,300.579041 
	C329.873077,293.005341 330.543823,285.115204 329.971222,276.270447 
	C329.844025,275.504639 329.716797,274.738800 329.574280,273.204193 
	C328.306519,265.999603 326.238892,259.137970 320.989838,252.969681 
	C319.665375,251.638184 318.340881,250.306702 316.728455,248.370483 
	C306.518799,242.469193 296.309113,236.567917 285.636719,230.171234 
	C284.730896,229.778549 283.798309,229.437698 282.923431,228.985138 
	C274.414459,224.583450 264.330902,222.487915 259.157501,212.049469 
	C258.163208,205.884766 259.205170,200.355576 264.866058,195.928909 
	C266.922363,195.203430 268.978668,194.477951 271.903107,193.843643 
	C273.935516,193.814392 275.967896,193.785141 278.488831,193.930893 
	C278.658722,193.898544 278.828644,193.866180 279.690338,194.051804 
	C287.166290,195.662582 291.521515,201.208420 295.620209,207.339050 
	C297.971924,205.690521 299.962921,204.294861 302.625732,202.755905 
	C305.402985,200.830612 308.180267,198.905319 311.608063,196.742981 
	C314.434448,194.799728 317.260834,192.856491 320.806122,190.418961 
	C317.683777,186.690079 314.870544,183.330383 311.823364,179.339706 
	C308.852386,176.981125 305.881409,174.622543 302.309296,171.880127 
	C296.883667,170.002625 291.458038,168.125137 285.292358,166.043198 
	C280.850342,165.832535 276.408356,165.621872 271.162323,165.349533 
	C266.111206,166.257690 261.060059,167.165848 255.282303,168.086731 
	C245.276413,171.608444 237.526505,177.889755 231.644852,187.561371 
	C230.911880,189.252106 230.178909,190.942841 229.496109,192.814926 
	C229.496109,192.814926 229.684296,192.812729 229.100494,193.248322 
	C228.454407,200.816666 227.808319,208.385025 227.029388,216.780136 
	C227.801071,219.862793 228.572739,222.945435 229.533081,226.679901 
	C236.028641,242.413193 249.191559,250.511627 264.706238,256.959076 
	C266.458252,257.639008 268.210297,258.318939 270.168182,259.639526 
	C271.018433,259.905396 271.868652,260.171265 272.710114,260.053192 
	C272.710114,260.053192 272.694550,260.438690 273.033325,260.856812 
M161.312439,325.860260 
	C161.312439,325.860260 161.709991,325.871613 162.430374,325.443146 
	C162.620255,323.487305 162.974152,321.531586 162.975769,319.575592 
	C163.008224,280.452454 163.061035,241.329086 162.911316,202.206497 
	C162.895309,198.024857 164.116882,196.822083 168.249649,196.909866 
	C180.230896,197.164383 192.223404,197.112381 204.204956,196.865082 
	C205.810867,196.831909 208.707230,195.039673 208.754715,193.962738 
	C209.132111,185.405685 208.964981,176.824631 208.964981,168.250931 
	C208.750290,168.258286 208.535599,168.265656 208.320908,168.273010 
	C207.997498,170.186661 207.674103,172.100327 207.136032,173.130539 
	C207.037231,171.228790 206.938431,169.327057 206.826157,167.166016 
	C203.066025,167.166016 199.540710,167.166016 195.090317,167.025986 
	C190.388412,167.072662 185.686523,167.119339 180.064026,167.023148 
	C175.381546,167.070740 170.699051,167.118347 165.091278,167.026016 
	C160.392166,167.068405 155.693054,167.110779 150.067780,167.005219 
	C140.375320,167.063797 130.682861,167.122375 120.071030,167.025238 
	C115.384697,167.075623 110.698372,167.126022 105.082245,167.040024 
	C98.220894,167.040024 91.359535,167.040024 84.365623,167.040024 
	C84.085258,168.545029 83.854431,169.784119 82.898788,171.280533 
	C82.599258,178.006760 82.457031,184.744995 81.945404,191.455048 
	C81.599129,195.996536 83.555855,197.156891 87.784081,197.074860 
	C99.109138,196.855133 110.451157,197.277496 121.766113,196.874451 
	C126.869339,196.692673 128.151306,198.152878 128.122314,203.231674 
	C127.899712,242.216568 127.977165,281.203400 128.068634,320.189362 
	C128.073120,322.102844 129.076614,324.013947 129.856720,325.834229 
	C129.856720,325.834229 130.018311,326.036255 130.611816,326.618591 
	C137.689880,326.745728 144.768402,326.979401 151.845825,326.950165 
	C154.889801,326.937592 157.931519,326.379730 161.312439,325.860260 
z"/>
<path fill="#1A7BCD" opacity="1.000000" stroke="none" 
	d="
M7.571711,5.210323 
	C8.004230,120.124809 8.014904,235.118225 7.894660,350.111511 
	C7.890373,354.211060 9.238402,355.090332 13.050248,355.087402 
	C126.043793,355.000732 239.037445,354.990326 352.030914,355.114716 
	C356.554047,355.119690 357.085205,353.340302 357.082397,349.530304 
	C356.998505,235.036835 357.009827,120.543274 356.992188,5.590042 
	C357.360107,6.574874 358.075806,8.019244 358.076477,9.463940 
	C358.128204,123.575111 358.124786,237.686310 358.114532,351.797516 
	C358.114410,353.255157 357.972992,354.712830 357.872498,356.654144 
	C240.867905,356.654144 124.136200,356.654144 6.976514,356.634583 
	C6.548531,356.615051 6.505766,356.639008 6.510954,356.463409 
	C6.516141,356.287811 6.362230,355.951324 6.362230,355.951324 
	C6.362230,355.951324 6.526087,355.555359 6.576461,355.018890 
	C6.531651,353.298523 6.436469,352.114624 6.341286,350.930725 
	C6.409013,343.867218 6.476741,336.803741 6.432494,329.342529 
	C6.320520,328.944824 6.508649,328.557587 6.569819,327.980164 
	C6.534526,325.244995 6.438062,323.087250 6.341599,320.929474 
	C6.409222,313.866394 6.476845,306.803314 6.432494,299.342529 
	C6.320520,298.944824 6.508649,298.557587 6.569819,297.980164 
	C6.534525,295.244995 6.438061,293.087250 6.341598,290.929474 
	C6.394661,283.876434 6.447724,276.823364 6.409807,269.358276 
	C6.318827,268.946259 6.507655,268.558624 6.569322,267.980713 
	C6.534525,265.244995 6.438062,263.087250 6.341599,260.929474 
	C6.409223,253.866379 6.476847,246.803284 6.432494,239.342484 
	C6.320517,238.944778 6.508647,238.557587 6.569822,237.980194 
	C6.534531,235.245010 6.438065,233.087234 6.341598,230.929459 
	C6.409222,223.866364 6.476846,216.803284 6.432494,209.342484 
	C6.320517,208.944778 6.508647,208.557587 6.569822,207.980194 
	C6.534531,205.245010 6.438064,203.087234 6.341598,200.929459 
	C6.409223,193.866364 6.476847,186.803284 6.432494,179.342484 
	C6.320517,178.944778 6.508647,178.557587 6.569822,177.980194 
	C6.534531,175.245010 6.438065,173.087234 6.341598,170.929459 
	C6.394662,163.876434 6.447727,156.823395 6.409811,149.358368 
	C6.318830,148.946350 6.507653,148.558670 6.569325,147.980728 
	C6.534532,145.245010 6.438065,143.087234 6.341598,140.929459 
	C6.409222,133.866379 6.476847,126.803291 6.432495,119.342491 
	C6.320518,118.944778 6.508649,118.557587 6.569821,117.980186 
	C6.534528,115.245003 6.438063,113.087219 6.341597,110.929436 
	C6.409222,103.866356 6.476847,96.803284 6.432495,89.342491 
	C6.320518,88.944778 6.508649,88.557587 6.569821,87.980186 
	C6.534528,85.245003 6.438062,83.087219 6.341597,80.929436 
	C6.409222,73.866364 6.476847,66.803291 6.432495,59.342506 
	C6.320518,58.944801 6.508647,58.557598 6.569820,57.980202 
	C6.534528,55.245018 6.438063,53.087234 6.341598,50.929451 
	C6.399395,43.872231 6.457193,36.815006 6.417053,29.352032 
	C6.319116,28.946281 6.507774,28.558596 6.569383,27.980701 
	C6.534527,25.245020 6.438062,23.087231 6.341597,20.929443 
	C6.603847,15.716041 6.866096,10.502639 7.571711,5.210323 
z"/>
<path fill="#E9F3F8" opacity="1.000000" stroke="none" 
	d="
M6.119530,20.937590 
	C6.438062,23.087231 6.534527,25.245020 6.501953,27.775944 
	C5.918399,26.002947 5.463886,23.856817 5.009540,21.351974 
	C5.306609,20.995783 5.602528,20.979940 6.119530,20.937590 
z"/>
<path fill="#E9F3F8" opacity="1.000000" stroke="none" 
	d="
M6.119530,110.937592 
	C6.438063,113.087219 6.534528,115.245003 6.501954,117.775925 
	C5.918400,116.002945 5.463886,113.856819 5.009540,111.351990 
	C5.306608,110.995781 5.602526,110.979927 6.119530,110.937592 
z"/>
<path fill="#E9F3F8" opacity="1.000000" stroke="none" 
	d="
M6.119262,350.938416 
	C6.436469,352.114624 6.531651,353.298523 6.499702,354.818848 
	C5.916476,354.030853 5.460382,352.906372 5.007005,351.387299 
	C5.306530,350.995605 5.602369,350.980072 6.119262,350.938416 
z"/>
<path fill="#E9F3F8" opacity="1.000000" stroke="none" 
	d="
M6.119530,140.937592 
	C6.438065,143.087234 6.534532,145.245010 6.501956,147.775925 
	C5.918399,146.002945 5.463885,143.856827 5.009540,141.351990 
	C5.306609,140.995789 5.602527,140.979935 6.119530,140.937592 
z"/>
<path fill="#E9F3F8" opacity="1.000000" stroke="none" 
	d="
M6.119530,230.937592 
	C6.438065,233.087234 6.534531,235.245010 6.501955,237.775925 
	C5.918398,236.002945 5.463884,233.856827 5.009539,231.351990 
	C5.306609,230.995789 5.602527,230.979935 6.119530,230.937592 
z"/>
<path fill="#E9F3F8" opacity="1.000000" stroke="none" 
	d="
M6.119530,80.937592 
	C6.438062,83.087219 6.534528,85.245003 6.501955,87.775925 
	C5.918401,86.002945 5.463887,83.856819 5.009540,81.351990 
	C5.306608,80.995781 5.602526,80.979927 6.119530,80.937592 
z"/>
<path fill="#E9F3F8" opacity="1.000000" stroke="none" 
	d="
M6.119534,320.937592 
	C6.438062,323.087250 6.534526,325.244995 6.501955,327.775879 
	C5.918404,326.002747 5.463889,323.856506 5.009544,321.351440 
	C5.306617,320.995605 5.602535,320.979950 6.119534,320.937592 
z"/>
<path fill="#E9F3F8" opacity="1.000000" stroke="none" 
	d="
M6.119534,260.937592 
	C6.438062,263.087250 6.534525,265.244995 6.501953,267.775879 
	C5.918401,266.002747 5.463885,263.856506 5.009542,261.351440 
	C5.306617,260.995605 5.602535,260.979950 6.119534,260.937592 
z"/>
<path fill="#E9F3F8" opacity="1.000000" stroke="none" 
	d="
M6.119530,200.937592 
	C6.438064,203.087234 6.534531,205.245010 6.501956,207.775925 
	C5.918400,206.002945 5.463886,203.856827 5.009540,201.351990 
	C5.306609,200.995789 5.602527,200.979935 6.119530,200.937592 
z"/>
<path fill="#E9F3F8" opacity="1.000000" stroke="none" 
	d="
M6.119530,50.937595 
	C6.438063,53.087234 6.534528,55.245018 6.501954,57.775940 
	C5.918400,56.002949 5.463887,53.856819 5.009541,51.351982 
	C5.306609,50.995789 5.602528,50.979946 6.119530,50.937595 
z"/>
<path fill="#E9F3F8" opacity="1.000000" stroke="none" 
	d="
M6.119534,290.937592 
	C6.438061,293.087250 6.534525,295.244995 6.501953,297.775879 
	C5.918403,296.002747 5.463887,293.856506 5.009543,291.351440 
	C5.306617,290.995605 5.602535,290.979950 6.119534,290.937592 
z"/>
<path fill="#E9F3F8" opacity="1.000000" stroke="none" 
	d="
M6.119530,170.937592 
	C6.438065,173.087234 6.534531,175.245010 6.501955,177.775925 
	C5.918399,176.002945 5.463885,173.856827 5.009539,171.351990 
	C5.306609,170.995789 5.602527,170.979935 6.119530,170.937592 
z"/>
<path fill="#E9F3F8" opacity="1.000000" stroke="none" 
	d="
M6.142501,356.025635 
	C6.362230,355.951324 6.516141,356.287811 6.487051,356.468628 
	C6.279565,356.466278 6.101168,356.283112 6.142501,356.025635 
z"/>
<path fill="#EFF6FA" opacity="1.000000" stroke="none" 
	d="
M130.018311,326.036255 
	C130.018311,326.036255 129.856720,325.834229 129.629059,325.422729 
	C129.401413,282.086212 129.401413,239.161224 129.401413,196.141510 
	C125.995308,195.982040 123.357468,195.858551 120.796509,195.221268 
	C120.916206,190.141098 120.959015,185.574707 121.000916,181.004745 
	C121.000000,181.001175 120.997559,180.997360 121.463852,180.999069 
	C126.621727,181.003571 131.313309,181.006363 136.003998,181.474304 
	C136.000656,186.624863 135.998184,191.310272 135.563873,195.998459 
	C133.760269,196.913147 131.338318,197.694077 131.205307,198.760513 
	C130.725525,202.606918 131.016693,206.549469 131.016693,210.720062 
	C133.097031,210.838837 134.546371,210.921570 135.997986,211.470154 
	C135.998734,216.622543 135.997208,221.309113 135.563873,225.998459 
	C133.760269,226.913147 131.338318,227.694077 131.205307,228.760513 
	C130.725525,232.606918 131.016693,236.549469 131.016693,240.720123 
	C133.097031,240.838867 134.546371,240.921600 135.997986,241.470154 
	C135.998734,246.622543 135.997208,251.309113 135.563858,255.998413 
	C133.760254,256.913116 131.338348,257.694061 131.205322,258.760529 
	C130.725540,262.606903 131.016708,266.549438 131.016708,270.720123 
	C133.094238,270.838684 134.544968,270.921478 135.997986,271.470093 
	C135.998734,276.622528 135.997208,281.309143 135.563873,285.998474 
	C133.760269,286.913116 131.338348,287.694061 131.205322,288.760529 
	C130.725540,292.606903 131.016708,296.549438 131.016708,300.720184 
	C133.094437,300.838715 134.545059,300.921478 135.997986,301.470093 
	C135.997726,306.623138 135.995163,311.310333 135.566666,316.000366 
	C132.056854,315.590515 130.742157,316.774963 130.925049,320.029907 
	C131.027374,321.850677 130.317841,323.717133 129.985077,325.681335 
	C129.996033,325.799652 130.018311,326.036255 130.018311,326.036255 
z"/>
<path fill="#F7F7F7" opacity="1.000000" stroke="none" 
	d="
M136.004883,181.009155 
	C131.313309,181.006363 126.621727,181.003571 121.463028,180.535889 
	C120.994072,175.774307 120.992233,171.477646 120.990395,167.180969 
	C130.682861,167.122375 140.375320,167.063797 150.534393,167.533691 
	C151.000702,172.374786 151.000381,176.687439 150.533966,181.001801 
	C145.380188,181.005402 140.692535,181.007278 136.004883,181.009155 
z"/>
<path fill="#EEEFF0" opacity="1.000000" stroke="none" 
	d="
M255.038116,324.837311 
	C254.858566,324.867493 254.679031,324.897644 254.205887,324.546265 
	C253.278992,324.098145 252.645691,324.031616 252.012390,323.965088 
	C251.834412,323.958038 251.656433,323.951019 251.195374,323.554352 
	C250.278976,323.098175 249.645676,323.031647 249.012375,322.965088 
	C248.204086,322.645844 247.395813,322.326630 246.221039,321.540894 
	C245.134735,320.867767 244.414902,320.661163 243.695068,320.454559 
	C243.695068,320.454559 243.728729,320.044617 243.680450,319.917786 
	C242.853241,319.524628 242.074310,319.258240 241.295395,318.991882 
	C229.714722,314.522339 223.540359,304.612610 216.383881,294.659485 
	C219.292313,292.990570 221.797272,291.553223 224.817169,290.439941 
	C225.554718,292.716980 226.090591,294.695740 225.932281,296.617340 
	C225.635468,300.220490 227.163437,301.279083 230.548141,301.052094 
	C234.018951,300.819397 237.517654,301.002808 241.001953,301.002014 
	C240.999741,301.000000 240.995728,300.995819 240.997345,301.463501 
	C241.151520,306.340149 239.621597,312.592102 241.900177,314.672241 
	C244.505157,317.050354 250.496979,315.719818 255.017426,315.995941 
	C255.344940,316.015961 255.674866,315.996643 256.002319,316.422150 
	C255.680023,319.511566 255.359070,322.174438 255.038116,324.837311 
z"/>
<path fill="#EEEFF0" opacity="1.000000" stroke="none" 
	d="
M259.337494,212.923859 
	C264.330902,222.487915 274.414459,224.583450 282.923431,228.985138 
	C283.798309,229.437698 284.730896,229.778549 285.835602,230.895355 
	C286.023804,234.747650 286.013123,237.875854 285.536041,241.002625 
	C280.378265,240.999374 275.686920,240.997559 270.997772,240.997864 
	C271.000000,241.000000 271.004242,241.004395 271.002563,240.536713 
	C270.848328,235.659912 272.378265,229.407623 270.099640,227.327621 
	C267.494385,224.949448 261.502533,226.280060 256.981873,226.003983 
	C256.654358,225.983963 256.324432,226.003311 255.996948,225.537964 
	C255.997513,220.380234 255.996735,215.688904 256.327362,211.042480 
	C257.551697,211.699554 258.444580,212.311707 259.337494,212.923859 
z"/>
<path fill="#F5F5F4" opacity="1.000000" stroke="none" 
	d="
M83.623596,171.023209 
	C83.854431,169.784119 84.085258,168.545029 84.365623,167.040024 
	C91.359535,167.040024 98.220894,167.040024 105.544823,167.561279 
	C106.004929,172.389771 106.002464,176.697021 105.999977,181.002136 
	C105.999962,181.000000 106.004128,181.000000 105.537537,181.001602 
	C100.377373,181.002136 95.683807,181.001068 90.553741,181.002335 
	C88.555771,181.114578 86.994293,181.224487 85.683945,181.316711 
	C85.038147,186.251480 84.461716,190.656219 83.778488,194.598358 
	C83.655663,186.431580 83.639626,178.727386 83.623596,171.023209 
z"/>
<path fill="#FCFDFD" opacity="1.000000" stroke="none" 
	d="
M286.002441,241.004044 
	C286.013123,237.875854 286.023804,234.747650 286.066956,231.143051 
	C296.309113,236.567917 306.518799,242.469193 316.714722,249.033768 
	C316.466888,251.798447 316.232819,253.899826 315.999390,256.000610 
	C316.000000,256.000000 316.002441,255.998169 315.536072,255.999680 
	C310.378571,255.999985 305.687469,255.998779 300.998169,255.998779 
	C301.000000,256.000000 301.002441,256.003662 301.000732,255.536011 
	C300.846344,250.660110 302.375793,244.409424 300.097534,242.329376 
	C297.492828,239.951279 291.502045,241.280746 286.982330,241.003540 
	C286.654755,240.983444 286.324982,240.998718 285.998108,240.998779 
	C286.000000,241.000000 286.002441,241.004044 286.002441,241.004044 
z"/>
<path fill="#FEFEFE" opacity="1.000000" stroke="none" 
	d="
M278.000305,193.755890 
	C275.967896,193.785141 273.935516,193.814392 271.460419,193.351349 
	C271.013031,188.905014 271.008301,184.950989 271.001801,180.998474 
	C271.000000,181.000000 270.996368,181.003052 271.462708,181.001053 
	C276.620575,181.000381 281.312103,181.001709 286.001801,181.001526 
	C286.000000,181.000000 285.996338,180.996338 285.997986,181.461746 
	C286.001526,185.230850 286.076874,188.536636 285.983307,191.837631 
	C285.900604,194.755905 287.134552,196.093842 290.100830,196.017395 
	C293.732422,195.923843 297.368378,196.000351 301.001221,196.001663 
	C301.000000,196.000000 300.997559,195.998169 300.999390,196.399948 
	C301.318817,198.834213 301.636353,200.866714 301.953888,202.899200 
	C299.962921,204.294861 297.971924,205.690521 295.620209,207.339050 
	C291.521515,201.208420 287.166290,195.662582 279.254883,193.797379 
	C278.546356,193.613937 278.273346,193.684921 278.000305,193.755890 
z"/>
<path fill="#EFEFEF" opacity="1.000000" stroke="none" 
	d="
M269.962311,258.998840 
	C268.210297,258.318939 266.458252,257.639008 264.273468,256.528015 
	C256.927856,253.295761 254.640228,248.092331 256.463959,240.997360 
	C261.621643,241.000732 266.312958,241.002563 271.004242,241.004395 
	C271.004242,241.004395 271.000000,241.000000 270.999420,241.465591 
	C271.151398,246.340210 269.621490,252.592178 271.900085,254.672363 
	C274.505066,257.050507 280.496918,255.720016 285.017426,255.996124 
	C285.344910,256.016113 285.674866,255.996704 286.002258,256.435242 
	C285.669678,259.584747 285.338501,262.294647 284.695251,264.867676 
	C282.259674,264.140594 280.136200,263.550354 278.012695,262.960144 
	C277.203094,262.641724 276.393463,262.323273 275.217865,261.537170 
	C274.132751,260.859253 273.413666,260.648956 272.694550,260.438690 
	C272.694550,260.438690 272.710114,260.053192 272.650208,259.891815 
	C271.714294,259.486572 270.838318,259.242706 269.962311,258.998840 
z"/>
<path fill="#EEEFF0" opacity="1.000000" stroke="none" 
	d="
M232.112442,187.028320 
	C237.526505,177.889755 245.276413,171.608444 255.642578,168.538635 
	C256.000641,172.995682 255.998459,177.000839 255.998138,181.002747 
	C255.999985,180.999496 256.006104,180.996078 255.538239,180.997559 
	C250.661057,181.151398 244.409027,179.621094 242.328323,181.899765 
	C239.949936,184.504410 241.280304,190.496765 241.003983,195.017365 
	C240.983948,195.344910 241.003296,195.674835 240.545349,196.002258 
	C237.932693,195.999832 235.674286,196.396591 233.660004,195.866211 
	C232.170074,195.473877 230.997986,193.874405 229.684296,192.812729 
	C229.684296,192.812729 229.496109,192.814926 229.833939,192.727417 
	C230.818665,190.769363 231.465561,188.898849 232.112442,187.028320 
z"/>
<path fill="#FEFEFE" opacity="1.000000" stroke="none" 
	d="
M241.004150,301.004059 
	C237.517654,301.002808 234.018951,300.819397 230.548141,301.052094 
	C227.163437,301.279083 225.635468,300.220490 225.932281,296.617340 
	C226.090591,294.695740 225.554718,292.716980 225.167923,290.385986 
	C228.799286,288.031952 232.594864,286.055969 237.063446,284.010620 
	C238.172119,283.340546 238.607788,282.739899 239.043457,282.139221 
	C240.217026,281.236359 241.390594,280.333496 242.858185,279.204437 
	C244.528366,281.447418 245.927856,283.326874 247.016373,285.567139 
	C242.299500,285.318024 240.369400,286.965942 240.930634,291.631836 
	C241.301392,294.714264 241.002975,297.877167 241.004150,301.004059 
z"/>
<path fill="#FCFDFD" opacity="1.000000" stroke="none" 
	d="
M255.997559,240.995819 
	C254.640228,248.092331 256.927856,253.295761 263.907135,256.426483 
	C249.191559,250.511627 236.028641,242.413193 229.876434,226.349045 
	C233.814545,226.012939 237.409302,226.007690 241.002014,226.001221 
	C241.000000,226.000000 240.997559,225.995819 240.999298,226.463531 
	C241.153641,231.339554 239.624039,237.590256 241.902344,239.670471 
	C244.506958,242.048645 250.497864,240.719208 255.017639,240.996460 
	C255.345230,241.016556 255.675003,241.001266 256.001892,241.001221 
	C256.000000,241.000000 255.997559,240.995819 255.997559,240.995819 
z"/>
<path fill="#FCFDFD" opacity="1.000000" stroke="none" 
	d="
M312.057312,179.970688 
	C314.870544,183.330383 317.683777,186.690079 320.806122,190.418961 
	C317.260834,192.856491 314.434448,194.799728 310.912994,196.697632 
	C307.144470,196.434265 304.071014,196.216217 300.997559,195.998169 
	C300.997559,195.998169 301.000000,196.000000 300.999512,195.535172 
	C301.000153,190.379120 301.001282,185.687897 301.001221,180.998337 
	C301.000000,181.000000 300.996338,181.002441 301.444702,181.000809 
	C305.281158,180.656357 308.669220,180.313522 312.057312,179.970688 
z"/>
<path fill="#ECEEEF" opacity="1.000000" stroke="none" 
	d="
M286.003601,181.003052 
	C281.312103,181.001709 276.620575,181.000381 271.465057,180.536774 
	C271.322815,175.186722 271.644562,170.298965 271.966339,165.411194 
	C276.408356,165.621872 280.850342,165.832535 285.654480,166.595032 
	C286.012268,171.765579 286.007935,176.384323 286.003601,181.003052 
z"/>
<path fill="#006AC7" opacity="1.000000" stroke="none" 
	d="
M83.261185,171.151871 
	C83.639626,178.727386 83.655663,186.431580 83.975586,194.955750 
	C86.196976,195.755234 88.114479,195.734695 90.399094,195.785553 
	C91.511841,195.826157 92.257469,195.795364 93.250595,195.849091 
	C93.663124,195.877396 93.828163,195.821167 94.327011,195.813553 
	C95.108253,195.829651 95.555672,195.797104 96.250595,195.849091 
	C96.663124,195.877396 96.828163,195.821167 97.327011,195.813553 
	C98.108253,195.829651 98.555672,195.797119 99.250595,195.849091 
	C99.663124,195.877396 99.828163,195.821167 100.327011,195.813553 
	C101.108253,195.829651 101.555672,195.797119 102.250595,195.849091 
	C102.663124,195.877396 102.828163,195.821167 103.329338,195.813583 
	C104.115974,195.830093 104.566475,195.797928 105.426025,195.855408 
	C107.225250,195.876816 108.615417,195.808624 110.252739,195.802307 
	C110.664665,195.822937 110.829430,195.781677 111.326263,195.820496 
	C112.107414,195.847168 112.556496,195.793793 113.252739,195.802307 
	C113.664665,195.822937 113.829430,195.781677 114.326263,195.820480 
	C115.107414,195.847168 115.556496,195.793793 116.252739,195.802292 
	C116.664665,195.822937 116.829430,195.781677 117.265167,195.822464 
	C118.092896,195.844833 118.649658,195.785156 119.426361,195.765930 
	C119.646294,195.806396 120.077835,195.688873 120.233841,195.762085 
	C120.389854,195.835312 120.719627,195.735046 120.719627,195.735046 
	C123.357468,195.858551 125.995308,195.982040 129.401413,196.141510 
	C129.401413,239.161224 129.401413,282.086212 129.508163,325.468689 
	C129.076614,324.013947 128.073120,322.102844 128.068634,320.189362 
	C127.977165,281.203400 127.899712,242.216568 128.122314,203.231674 
	C128.151306,198.152878 126.869339,196.692673 121.766113,196.874451 
	C110.451157,197.277496 99.109138,196.855133 87.784081,197.074860 
	C83.555855,197.156891 81.599129,195.996536 81.945404,191.455048 
	C82.457031,184.744995 82.599258,178.006760 83.261185,171.151871 
z"/>
<path fill="#FFFFFE" opacity="1.000000" stroke="none" 
	d="
M317.381866,313.175049 
	C316.112183,314.370392 314.842499,315.565765 312.888458,316.701904 
	C308.468597,316.427216 304.733063,316.211792 300.998779,315.998169 
	C301.000000,316.000000 301.003754,316.002441 301.002350,315.536041 
	C301.001892,310.378937 301.002808,305.688263 301.001892,300.998779 
	C301.000000,301.000000 300.997559,301.003754 301.463928,301.002350 
	C306.621429,301.002136 311.312531,301.003326 316.001831,301.002258 
	C316.000000,301.000000 315.995605,300.996338 315.997162,301.457367 
	C316.459747,305.670624 316.920807,309.422821 317.381866,313.175049 
z"/>
<path fill="#006AC7" opacity="1.000000" stroke="none" 
	d="
M207.350708,174.013992 
	C207.674103,172.100327 207.997498,170.186661 208.320908,168.273010 
	C208.535599,168.265656 208.750290,168.258286 208.964981,168.250931 
	C208.964981,176.824631 209.132111,185.405685 208.754715,193.962738 
	C208.707230,195.039673 205.810867,196.831909 204.204956,196.865082 
	C192.223404,197.112381 180.230896,197.164383 168.249649,196.909866 
	C164.116882,196.822083 162.895309,198.024857 162.911316,202.206497 
	C163.061035,241.329086 163.008224,280.452454 162.975769,319.575592 
	C162.974152,321.531586 162.620255,323.487305 162.137482,325.215240 
	C161.799637,321.985077 161.754684,318.982819 161.783569,315.520874 
	C161.808167,310.380798 161.758957,305.700439 161.803238,300.561035 
	C161.834412,295.394836 161.772079,290.687683 161.783554,285.520874 
	C161.808151,280.380798 161.758942,275.700439 161.803253,270.561096 
	C161.834396,265.392792 161.772018,260.683502 161.783569,255.515320 
	C161.815475,250.385223 161.773468,245.714005 161.828613,240.582413 
	C161.861008,235.402069 161.796219,230.682083 161.796112,225.502502 
	C161.810410,220.370361 161.760025,215.697815 161.803040,210.568420 
	C161.834152,206.064438 161.771896,202.017349 161.773438,197.578217 
	C162.894058,196.712448 163.950867,196.238739 165.466858,195.853180 
	C170.958618,195.865631 175.991211,195.789917 181.349915,195.784210 
	C182.118393,195.824326 182.560730,195.794449 183.250580,195.849091 
	C183.663132,195.877380 183.828171,195.821136 184.327026,195.813538 
	C185.108261,195.829636 185.555664,195.797104 186.250580,195.849091 
	C186.663132,195.877380 186.828171,195.821136 187.327026,195.813538 
	C188.108261,195.829636 188.555664,195.797104 189.250580,195.849091 
	C189.663132,195.877380 189.828171,195.821136 190.329041,195.813553 
	C191.114975,195.830032 191.565109,195.797882 192.381653,195.857117 
	C193.499863,195.897537 194.251648,195.846588 195.456146,195.868744 
	C199.633118,195.646286 203.357376,195.350739 207.187103,194.592896 
	C207.311935,187.425079 207.331314,180.719528 207.350708,174.013992 
z"/>
<path fill="#FEFEFE" opacity="1.000000" stroke="none" 
	d="
M271.564331,165.380371 
	C271.644562,170.298965 271.322815,175.186722 270.998718,180.538757 
	C270.996368,181.003052 271.000000,181.000000 270.535278,181.000626 
	C265.379150,181.002823 260.687714,181.004410 255.996277,181.005981 
	C255.998459,177.000839 256.000641,172.995682 256.005890,168.532272 
	C261.060059,167.165848 266.111206,166.257690 271.564331,165.380371 
z"/>
<path fill="#ECEEEF" opacity="1.000000" stroke="none" 
	d="
M255.998138,181.002747 
	C260.687714,181.004410 265.379150,181.002823 270.537079,180.999100 
	C271.008301,184.950989 271.013031,188.905014 271.026367,193.305756 
	C268.978668,194.477951 266.922363,195.203430 264.054626,195.972366 
	C260.827759,196.011215 258.412354,196.006622 255.998810,195.535690 
	C256.002472,190.378265 256.004272,185.687164 256.006104,180.996078 
	C256.006104,180.996078 255.999985,180.999496 255.998138,181.002747 
z"/>
<path fill="#FEFEFE" opacity="1.000000" stroke="none" 
	d="
M229.392395,193.030518 
	C230.997986,193.874405 232.170074,195.473877 233.660004,195.866211 
	C235.674286,196.396591 237.932693,195.999832 240.543060,196.000427 
	C240.999756,196.000000 240.996338,195.995605 240.997955,196.462189 
	C240.998505,201.620636 240.997421,206.312515 240.998047,211.002197 
	C240.999756,211.000000 241.004333,210.996338 240.539520,210.997742 
	C236.299255,210.999161 232.523804,210.999161 228.807175,210.999161 
	C228.163452,212.937897 227.662842,214.445633 227.162231,215.953369 
	C227.808319,208.385025 228.454407,200.816666 229.392395,193.030518 
z"/>
<path fill="#FEFEFE" opacity="1.000000" stroke="none" 
	d="
M285.007324,265.004517 
	C285.338501,262.294647 285.669678,259.584747 286.000427,256.437439 
	C286.000000,256.000000 285.995483,256.003662 286.462036,256.002075 
	C291.619904,256.001556 296.311157,256.002625 301.002441,256.003662 
	C301.002441,256.003662 301.000000,256.000000 300.999817,256.465179 
	C301.001190,261.621613 301.002747,266.312897 300.569275,271.003113 
	C298.030609,271.462585 295.927002,271.923096 293.823395,272.383636 
	C290.993378,270.510773 288.163361,268.637939 285.145508,266.207001 
	C284.974213,265.434113 284.990753,265.219330 285.007324,265.004517 
z"/>
<path fill="#EFEFEF" opacity="1.000000" stroke="none" 
	d="
M180.984619,167.166016 
	C185.686523,167.119339 190.388412,167.072662 195.547974,167.549713 
	C196.005234,172.383759 196.004822,176.694092 195.537781,181.002777 
	C190.378723,180.999405 185.686295,180.997681 180.996796,180.997742 
	C180.999725,180.999557 181.004013,181.006104 181.002731,180.542145 
	C180.995834,175.774124 180.990219,171.470062 180.984619,167.166016 
z"/>
<path fill="#FFFFFE" opacity="1.000000" stroke="none" 
	d="
M180.524323,167.094574 
	C180.990219,171.470062 180.995834,175.774124 180.536163,180.540604 
	C175.379181,181.000610 170.687469,180.998199 165.997787,180.997787 
	C165.999802,180.999802 166.004410,181.004410 166.003006,180.540558 
	C166.006592,175.773117 166.011581,171.469528 166.016571,167.165955 
	C170.699051,167.118347 175.381546,167.070740 180.524323,167.094574 
z"/>
<path fill="#EFEFEF" opacity="1.000000" stroke="none" 
	d="
M165.553925,167.095978 
	C166.011581,171.469528 166.006592,175.773117 165.536377,180.538910 
	C160.379303,180.999283 155.687439,180.997421 150.997650,180.997635 
	C150.999710,180.999710 151.000076,181.000076 151.000076,181.000076 
	C151.000381,176.687439 151.000702,172.374786 150.997482,167.607651 
	C155.693054,167.110779 160.392166,167.068405 165.553925,167.095978 
z"/>
<path fill="#FFFFFE" opacity="1.000000" stroke="none" 
	d="
M106.000000,181.004272 
	C106.002464,176.697021 106.004929,172.389771 106.009720,167.629456 
	C110.698372,167.126022 115.384697,167.075623 120.530716,167.103104 
	C120.992233,171.477646 120.994072,175.774307 120.996735,180.534180 
	C120.997559,180.997360 121.000000,181.001175 120.534592,181.002350 
	C115.379463,181.003769 110.689728,181.004028 106.000000,181.004272 
z"/>
<path fill="#FEFEFE" opacity="1.000000" stroke="none" 
	d="
M329.837280,277.045746 
	C330.543823,285.115204 329.873077,293.005341 326.063293,300.821533 
	C322.234528,301.041473 319.115051,301.018921 315.995605,300.996338 
	C315.995605,300.996338 316.000000,301.000000 316.000183,300.535645 
	C315.998749,295.379395 315.997162,290.687469 316.461182,285.996674 
	C320.817963,285.997772 324.709167,285.997772 328.398804,285.997772 
	C328.968109,282.454834 329.402710,279.750305 329.837280,277.045746 
z"/>
<path fill="#EEEFF0" opacity="1.000000" stroke="none" 
	d="
M227.095795,216.366760 
	C227.662842,214.445633 228.163452,212.937897 228.807175,210.999161 
	C232.523804,210.999161 236.299255,210.999161 240.537964,211.464294 
	C241.002167,216.620422 241.003098,221.311432 241.004044,226.002441 
	C237.409302,226.007690 233.814545,226.012939 229.782104,226.023132 
	C228.572739,222.945435 227.801071,219.862793 227.095795,216.366760 
z"/>
<path fill="#FEFEFE" opacity="1.000000" stroke="none" 
	d="
M286.001801,181.001526 
	C286.007935,176.384323 286.012268,171.765579 286.024506,166.697235 
	C291.458038,168.125137 296.883667,170.002625 302.358154,172.335663 
	C301.936798,175.528290 301.466583,178.265366 300.996338,181.002441 
	C300.996338,181.002441 301.000000,181.000000 300.534821,180.999847 
	C295.378540,180.998566 290.687439,180.997452 285.996338,180.996338 
	C285.996338,180.996338 286.000000,181.000000 286.001801,181.001526 
z"/>
<path fill="#EFEFEF" opacity="1.000000" stroke="none" 
	d="
M329.904266,276.658081 
	C329.402710,279.750305 328.968109,282.454834 328.398804,285.997772 
	C324.709167,285.997772 320.817963,285.997772 316.463379,285.998901 
	C316.000000,286.000000 316.004517,286.004517 316.002869,285.537964 
	C316.002319,280.379425 316.003418,275.687439 316.002258,270.997742 
	C316.000000,271.000000 315.996246,271.003754 316.456787,271.003357 
	C321.263977,271.469940 326.230225,269.293427 329.589600,273.972992 
	C329.716797,274.738800 329.844025,275.504639 329.904266,276.658081 
z"/>
<path fill="#EEEFF0" opacity="1.000000" stroke="none" 
	d="
M241.001953,301.002014 
	C241.002975,297.877167 241.301392,294.714264 240.930634,291.631836 
	C240.369400,286.965942 242.299500,285.318024 247.191116,285.895569 
	C250.351303,288.277161 253.025772,290.691132 255.876053,293.813477 
	C256.034576,296.681213 256.017303,298.840607 255.533875,301.000000 
	C250.377075,300.998596 245.686401,300.997192 240.995728,300.995819 
	C240.995728,300.995819 240.999741,301.000000 241.001953,301.002014 
z"/>
<path fill="#FCFDFD" opacity="1.000000" stroke="none" 
	d="
M329.581940,273.588593 
	C326.230225,269.293427 321.263977,271.469940 316.457336,270.536835 
	C315.999084,265.379852 316.000763,260.688995 316.002441,255.998169 
	C316.002441,255.998169 316.000000,256.000000 316.416687,255.998489 
	C318.274017,255.187820 319.714630,254.378677 321.155273,253.569534 
	C326.238892,259.137970 328.306519,265.999603 329.581940,273.588593 
z"/>
<path fill="#FFFFFE" opacity="1.000000" stroke="none" 
	d="
M196.004410,181.004410 
	C196.004822,176.694092 196.005234,172.383759 196.010529,167.619720 
	C199.540710,167.166016 203.066025,167.166016 206.826157,167.166016 
	C206.938431,169.327057 207.037231,171.228790 207.243362,173.572266 
	C207.331314,180.719528 207.311935,187.425079 206.875793,194.304718 
	C206.306076,193.358978 206.040146,192.241348 206.017838,191.118896 
	C205.816940,181.009567 205.829483,181.009323 195.997681,180.997681 
	C195.999741,180.999741 196.004410,181.004410 196.004410,181.004410 
z"/>
<path fill="#FEFEFE" opacity="1.000000" stroke="none" 
	d="
M255.419708,324.959259 
	C255.359070,322.174438 255.680023,319.511566 256.000488,316.424347 
	C256.000000,316.000000 255.995605,316.003662 256.462189,316.002014 
	C261.621216,315.999023 266.313660,315.997681 271.005188,316.452881 
	C271.004272,319.813477 271.004272,322.717499 271.004272,324.872101 
	C273.728088,325.981262 275.476318,326.693176 277.224548,327.405060 
	C270.083466,326.630432 262.942383,325.855835 255.419708,324.959259 
z"/>
<path fill="#FCFDFD" opacity="1.000000" stroke="none" 
	d="
M303.971558,321.940338 
	C296.137360,326.291504 287.550323,327.117554 278.618591,326.940552 
	C280.776642,326.214111 283.144135,325.857056 285.994415,325.427216 
	C285.994415,322.167786 285.994415,319.082428 286.461121,315.997314 
	C291.619812,315.999176 296.311798,316.000824 301.003754,316.002441 
	C301.003754,316.002441 301.000000,316.000000 301.001068,316.383453 
	C300.820435,319.163788 300.558502,321.606750 303.971558,321.940338 
z"/>
<path fill="#ECEEEF" opacity="1.000000" stroke="none" 
	d="
M285.994415,315.997101 
	C285.994415,319.082428 285.994415,322.167786 285.994415,325.427216 
	C283.144135,325.857056 280.776642,326.214111 278.147766,326.906403 
	C277.886414,327.241638 277.601776,327.512970 277.413147,327.459015 
	C275.476318,326.693176 273.728088,325.981262 271.004272,324.872101 
	C271.004272,322.717499 271.004272,319.813477 271.001923,316.454712 
	C270.999573,316.000000 270.996094,316.006104 271.462616,316.004639 
	C276.620728,316.004150 281.312317,316.005127 286.002197,316.003052 
	C286.000458,316.000000 285.994415,315.997101 285.994415,315.997101 
z"/>
<path fill="#FCFDFD" opacity="1.000000" stroke="none" 
	d="
M284.037811,298.174377 
	C289.746643,295.928101 294.881439,293.039581 297.418091,286.338074 
	C298.954041,286.001404 299.978851,285.998871 301.003113,286.462891 
	C301.000854,291.620880 300.999207,296.312317 300.997559,301.003754 
	C300.997559,301.003754 301.000000,301.000000 300.535339,301.000488 
	C295.380463,301.001465 290.690216,301.001953 285.970306,300.700439 
	C285.306335,299.657104 284.672089,298.915741 284.037811,298.174377 
z"/>
<path fill="#EFEFEF" opacity="1.000000" stroke="none" 
	d="
M161.709747,315.980591 
	C161.754684,318.982819 161.799637,321.985077 161.777283,325.429474 
	C161.709991,325.871613 161.312439,325.860260 160.696808,325.907654 
	C157.379959,325.873260 154.678757,325.791504 151.911316,325.326355 
	C151.564865,321.960449 151.284637,318.977966 151.002213,315.997742 
	C151.000000,316.000000 150.995575,316.004517 151.448669,316.002899 
	C155.171097,315.994385 158.440414,315.987488 161.709747,315.980591 
z"/>
<path fill="#F7F7F7" opacity="1.000000" stroke="none" 
	d="
M283.654053,298.144409 
	C284.672089,298.915741 285.306335,299.657104 285.520782,300.700958 
	C280.401031,301.002289 275.701141,301.001160 270.535034,301.001740 
	C265.379028,301.002319 260.689209,301.001160 255.999695,301.000000 
	C256.017303,298.840607 256.034576,296.681213 256.087494,294.054504 
	C262.914124,298.642242 271.160583,298.498291 278.966095,299.804352 
	C280.270081,300.022491 281.829102,298.716278 283.654053,298.144409 
z"/>
<path fill="#EEEFF0" opacity="1.000000" stroke="none" 
	d="
M315.997162,301.457397 
	C319.115051,301.018921 322.234528,301.041473 325.827972,301.098083 
	C323.537048,305.086243 320.772095,309.040375 317.694519,313.084778 
	C316.920807,309.422821 316.459747,305.670624 315.997162,301.457397 
z"/>
<path fill="#EEEFF0" opacity="1.000000" stroke="none" 
	d="
M301.003662,285.996338 
	C299.978851,285.998871 298.954041,286.001404 297.544983,286.009094 
	C297.250000,281.421875 297.349182,276.827148 293.928528,272.720032 
	C295.927002,271.923096 298.030609,271.462585 300.567108,271.001038 
	C301.000000,271.000000 300.995758,270.995544 300.997437,271.462158 
	C300.997986,276.620667 300.996887,281.312561 300.997864,286.002228 
	C301.000000,286.000000 301.003662,285.996338 301.003662,285.996338 
z"/>
<path fill="#EEEFF0" opacity="1.000000" stroke="none" 
	d="
M301.444702,181.000809 
	C301.466583,178.265366 301.936798,175.528290 302.658752,172.527588 
	C305.881409,174.622543 308.852386,176.981125 311.940338,179.655197 
	C308.669220,180.313522 305.281158,180.656357 301.444702,181.000809 
z"/>
<path fill="#FCFDFD" opacity="1.000000" stroke="none" 
	d="
M255.996948,196.002029 
	C258.412354,196.006622 260.827759,196.011215 263.697784,196.030518 
	C259.205170,200.355576 258.163208,205.884766 259.247498,212.486664 
	C258.444580,212.311707 257.551697,211.699554 256.329407,211.043701 
	C256.000000,211.000000 256.002441,211.004181 256.000702,210.537598 
	C256.000122,205.379288 256.001282,200.687546 256.001221,195.997910 
	C256.000000,196.000000 255.996948,196.002029 255.996948,196.002029 
z"/>
<path fill="#ECEEEF" opacity="1.000000" stroke="none" 
	d="
M304.329773,321.933533 
	C300.558502,321.606750 300.820435,319.163788 300.999847,316.381622 
	C304.733063,316.211792 308.468597,316.427216 312.577850,316.809326 
	C310.197052,318.626221 307.442505,320.276459 304.329773,321.933533 
z"/>
<path fill="#ECEEEF" opacity="1.000000" stroke="none" 
	d="
M300.999390,196.399948 
	C304.071014,196.216217 307.144470,196.434265 310.587708,196.816162 
	C308.180267,198.905319 305.402985,200.830612 302.289795,202.827545 
	C301.636353,200.866714 301.318817,198.834213 300.999390,196.399948 
z"/>
<path fill="#006AC7" opacity="1.000000" stroke="none" 
	d="
M151.977554,325.709747 
	C154.678757,325.791504 157.379959,325.873260 160.527710,326.012299 
	C157.931519,326.379730 154.889801,326.937592 151.845825,326.950165 
	C144.768402,326.979401 137.689880,326.745728 130.315063,326.327423 
	C130.018311,326.036255 129.996033,325.799652 130.425827,325.856262 
	C137.237762,325.873444 143.619919,325.834045 150.251709,325.834229 
	C150.660767,325.819092 150.820160,325.764404 151.229050,325.769775 
	C151.644897,325.789795 151.811234,325.749756 151.977554,325.709747 
z"/>
<path fill="#ECEEEF" opacity="1.000000" stroke="none" 
	d="
M321.072571,253.269608 
	C319.714630,254.378677 318.274017,255.187820 316.416077,255.999100 
	C316.232819,253.899826 316.466888,251.798447 316.858704,249.336121 
	C318.340881,250.306702 319.665375,251.638184 321.072571,253.269608 
z"/>
<path fill="#EEEFF0" opacity="1.000000" stroke="none" 
	d="
M284.695251,264.867676 
	C284.990753,265.219330 284.974213,265.434113 284.913696,265.969055 
	C282.755707,265.327484 280.641632,264.365692 278.270142,263.182037 
	C280.136200,263.550354 282.259674,264.140594 284.695251,264.867676 
z"/>
<path fill="#FEFEFE" opacity="1.000000" stroke="none" 
	d="
M231.878647,187.294846 
	C231.465561,188.898849 230.818665,190.769363 229.808838,192.636749 
	C230.178909,190.942841 230.911880,189.252106 231.878647,187.294846 
z"/>
<path fill="#FCFDFD" opacity="1.000000" stroke="none" 
	d="
M238.822754,282.305328 
	C238.607788,282.739899 238.172119,283.340546 237.437988,283.992310 
	C237.627045,283.519379 238.114532,282.995392 238.822754,282.305328 
z"/>
<path fill="#ECEEEF" opacity="1.000000" stroke="none" 
	d="
M252.217621,324.148132 
	C252.645691,324.031616 253.278992,324.098145 253.957779,324.432129 
	C253.476456,324.576782 252.949646,324.453949 252.217621,324.148132 
z"/>
<path fill="#ECEEEF" opacity="1.000000" stroke="none" 
	d="
M249.217606,323.148132 
	C249.645676,323.031647 250.278976,323.098175 250.957764,323.432159 
	C250.476456,323.576782 249.949646,323.453979 249.217606,323.148132 
z"/>
<path fill="#ECEEEF" opacity="1.000000" stroke="none" 
	d="
M243.867493,320.660339 
	C244.414902,320.661163 245.134735,320.867767 245.928864,321.386963 
	C245.348755,321.421753 244.694336,321.143951 243.867493,320.660339 
z"/>
<path fill="#ECEEEF" opacity="1.000000" stroke="none" 
	d="
M241.377319,319.280334 
	C242.074310,319.258240 242.853241,319.524628 243.649048,320.121338 
	C242.930359,320.157379 242.194794,319.863098 241.377319,319.280334 
z"/>
<path fill="#EEEFF0" opacity="1.000000" stroke="none" 
	d="
M270.065247,259.319183 
	C270.838318,259.242706 271.714294,259.486572 272.654602,260.083801 
	C271.868652,260.171265 271.018433,259.905396 270.065247,259.319183 
z"/>
<path fill="#EEEFF0" opacity="1.000000" stroke="none" 
	d="
M272.863953,260.647766 
	C273.413666,260.648956 274.132751,260.859253 274.926086,261.381622 
	C274.344635,261.414734 273.688995,261.135773 272.863953,260.647766 
z"/>
<path fill="#ECEEEF" opacity="1.000000" stroke="none" 
	d="
M278.244568,193.843399 
	C278.273346,193.684921 278.546356,193.613937 278.908997,193.688385 
	C278.828644,193.866180 278.658722,193.898544 278.244568,193.843399 
z"/>
<path fill="#EFEFEF" opacity="1.000000" stroke="none" 
	d="
M135.995697,285.995758 
	C135.997208,281.309143 135.998734,276.622528 136.000092,271.467957 
	C135.999939,271.000000 135.995575,271.004517 136.462189,271.002838 
	C141.620682,271.002289 146.312561,271.003387 151.002213,271.002258 
	C151.000000,271.000000 150.995575,270.995483 150.997192,271.462036 
	C150.997742,276.620575 150.996658,281.312561 150.997787,286.002258 
	C151.000000,286.000000 151.004425,285.995483 150.537842,285.997131 
	C145.379379,285.997681 140.687469,285.996582 135.997757,285.997742 
	C135.999939,286.000000 135.995697,285.995758 135.995697,285.995758 
z"/>
<path fill="#EFEFEF" opacity="1.000000" stroke="none" 
	d="
M136.003998,181.474304 
	C140.692535,181.007278 145.380188,181.005402 150.533966,181.001801 
	C151.000076,181.000076 150.999710,180.999710 150.999268,181.464294 
	C150.997757,186.620712 150.996674,191.312561 150.997940,196.002060 
	C151.000290,195.999710 151.004425,195.995575 150.537842,195.997192 
	C145.379379,195.997742 140.687469,195.996658 135.997772,195.997772 
	C135.999954,195.999954 135.995697,195.995682 135.995697,195.995682 
	C135.998184,191.310272 136.000656,186.624863 136.003998,181.474304 
z"/>
<path fill="#EFEFEF" opacity="1.000000" stroke="none" 
	d="
M135.995697,225.995682 
	C135.997208,221.309113 135.998734,216.622543 136.000107,211.468018 
	C135.999954,211.000046 135.995575,211.004425 136.462189,211.002792 
	C141.620682,211.002243 146.312561,211.003326 151.002350,211.002350 
	C151.000275,211.000275 150.995590,210.995590 150.997009,211.462006 
	C150.999588,216.624542 151.000748,221.320663 151.000183,226.007629 
	C150.998474,225.998474 151.016769,226.001907 150.548981,226.001190 
	C145.386002,225.998840 140.690781,225.997208 135.997772,225.997772 
	C135.999954,225.999954 135.995697,225.995682 135.995697,225.995682 
z"/>
<path fill="#EFEFEF" opacity="1.000000" stroke="none" 
	d="
M135.992615,315.997559 
	C135.995163,311.310333 135.997726,306.623138 136.000107,301.467957 
	C135.999939,301.000000 135.995575,301.004517 136.462189,301.002838 
	C141.620682,301.002289 146.312561,301.003387 151.002213,301.002258 
	C151.000000,301.000000 150.995575,300.995483 150.997192,301.462036 
	C150.997726,306.620575 150.996643,311.312561 150.995575,316.004517 
	C150.995575,316.004517 151.000000,316.000000 150.535583,315.999420 
	C145.378723,315.997925 140.686295,315.997009 135.996841,315.998047 
	C135.999832,316.000000 135.992615,315.997559 135.992615,315.997559 
z"/>
<path fill="#EFEFEF" opacity="1.000000" stroke="none" 
	d="
M135.995697,255.995682 
	C135.997208,251.309113 135.998734,246.622543 136.000107,241.468018 
	C135.999954,241.000046 135.995575,241.004425 136.462219,241.002792 
	C141.624832,241.000137 146.320801,240.999115 151.009430,241.000000 
	C151.002075,241.001892 151.002716,240.983627 151.001831,241.450806 
	C150.999176,246.613464 150.997375,251.308960 150.997925,256.002075 
	C151.000259,255.999725 151.004425,255.995575 150.537842,255.997192 
	C145.379379,255.997742 140.687469,255.996658 135.997772,255.997772 
	C135.999954,255.999954 135.995697,255.995682 135.995697,255.995682 
z"/>
<path fill="#ECEEEF" opacity="1.000000" stroke="none" 
	d="
M105.999985,181.002136 
	C110.689728,181.004028 115.379463,181.003769 120.535507,181.005920 
	C120.959015,185.574707 120.916206,190.141098 120.796509,195.221268 
	C120.719627,195.735046 120.389854,195.835312 120.170380,195.487946 
	C119.702744,195.335541 119.454582,195.530502 119.206421,195.725479 
	C118.649658,195.785156 118.092896,195.844833 117.243790,195.598434 
	C116.799889,195.060989 116.648331,194.829636 116.496780,194.598267 
	C116.333046,194.978989 116.169312,195.359695 116.005585,195.740417 
	C115.556496,195.793793 115.107414,195.847168 114.304886,195.596451 
	C113.799881,195.060989 113.648331,194.829636 113.496780,194.598267 
	C113.333038,194.978973 113.169312,195.359695 113.005585,195.740417 
	C112.556496,195.793793 112.107414,195.847168 111.304886,195.596466 
	C110.799881,195.060989 110.648331,194.829636 110.496780,194.598267 
	C110.333046,194.978989 110.169319,195.359695 110.005585,195.740417 
	C108.615417,195.808624 107.225250,195.876816 105.614120,195.499802 
	C105.596809,190.369720 105.800468,185.684860 106.004128,181.000000 
	C106.004128,181.000000 105.999962,181.000000 105.999985,181.002136 
M107.407616,194.481384 
	C107.407616,194.481384 107.523216,194.411514 107.407616,194.481384 
z"/>
<path fill="#EFEFEF" opacity="1.000000" stroke="none" 
	d="
M135.997818,271.002136 
	C134.544968,270.921478 133.094238,270.838684 131.016708,270.720123 
	C131.016708,266.549438 130.725540,262.606903 131.205322,258.760529 
	C131.338348,257.694061 133.760254,256.913116 135.563873,255.998413 
	C135.995697,255.995682 135.999954,255.999954 135.999390,256.464386 
	C135.997742,261.620697 135.996658,266.312622 135.995575,271.004517 
	C135.995575,271.004517 135.999939,271.000000 135.997818,271.002136 
z"/>
<path fill="#EFEFEF" opacity="1.000000" stroke="none" 
	d="
M135.997833,241.002182 
	C134.546371,240.921600 133.097031,240.838867 131.016693,240.720123 
	C131.016693,236.549469 130.725525,232.606918 131.205307,228.760513 
	C131.338318,227.694077 133.760269,226.913147 135.563873,225.998459 
	C135.995697,225.995682 135.999954,225.999954 135.999390,226.464386 
	C135.997757,231.620682 135.996658,236.312561 135.995575,241.004425 
	C135.995575,241.004425 135.999954,241.000046 135.997833,241.002182 
z"/>
<path fill="#EFEFEF" opacity="1.000000" stroke="none" 
	d="
M135.997833,211.002182 
	C134.546371,210.921570 133.097031,210.838837 131.016693,210.720062 
	C131.016693,206.549469 130.725525,202.606918 131.205307,198.760513 
	C131.338318,197.694077 133.760269,196.913147 135.563873,195.998459 
	C135.995697,195.995682 135.999954,195.999954 135.999390,196.464386 
	C135.997757,201.620682 135.996658,206.312561 135.995575,211.004425 
	C135.995575,211.004425 135.999954,211.000046 135.997833,211.002182 
z"/>
<path fill="#EFEFEF" opacity="1.000000" stroke="none" 
	d="
M135.997818,301.002136 
	C134.545059,300.921478 133.094437,300.838715 131.016708,300.720184 
	C131.016708,296.549438 130.725540,292.606903 131.205322,288.760529 
	C131.338348,287.694061 133.760269,286.913116 135.563873,285.998474 
	C135.995697,285.995758 135.999939,286.000000 135.999390,286.464355 
	C135.997742,291.620636 135.996658,296.312592 135.995575,301.004517 
	C135.995575,301.004517 135.999939,301.000000 135.997818,301.002136 
z"/>
<path fill="#ECEEEF" opacity="1.000000" stroke="none" 
	d="
M150.002060,325.794678 
	C143.619919,325.834045 137.237762,325.873444 130.414856,325.737915 
	C130.317841,323.717133 131.027374,321.850677 130.925049,320.029907 
	C130.742157,316.774963 132.056854,315.590515 135.566666,316.000366 
	C135.992615,315.997559 135.999832,316.000000 135.998398,316.454041 
	C136.126404,326.149353 134.819397,324.873322 144.102692,324.987976 
	C146.068954,325.012238 148.035706,324.996552 150.002319,325.198120 
	C150.002380,325.396973 150.002060,325.794678 150.002060,325.794678 
z"/>
<path fill="#FFFFFE" opacity="1.000000" stroke="none" 
	d="
M240.997345,301.463501 
	C245.686401,300.997192 250.377075,300.998596 255.533813,301.466125 
	C255.998444,306.622711 255.997009,311.313202 255.995605,316.003662 
	C255.995605,316.003662 256.000000,316.000000 256.001831,315.997803 
	C255.674866,315.996643 255.344940,316.015961 255.017426,315.995941 
	C250.496979,315.719818 244.505157,317.050354 241.900177,314.672241 
	C239.621597,312.592102 241.151520,306.340149 240.997345,301.463501 
z"/>
<path fill="#FFFFFE" opacity="1.000000" stroke="none" 
	d="
M241.002014,226.001221 
	C241.003098,221.311432 241.002167,216.620422 241.002777,211.462875 
	C241.004333,210.996338 240.999756,211.000000 241.464584,211.000565 
	C246.620422,211.002151 251.311432,211.003174 256.002441,211.004181 
	C256.002441,211.004181 256.000000,211.000000 255.997986,210.998779 
	C255.996735,215.688904 255.997513,220.380234 255.999146,225.535614 
	C256.000000,225.999634 256.004517,225.995575 255.537949,225.997192 
	C250.380112,225.997818 245.688828,225.996826 240.997559,225.995819 
	C240.997559,225.995819 241.000000,226.000000 241.002014,226.001221 
z"/>
<path fill="#FFFFFE" opacity="1.000000" stroke="none" 
	d="
M271.002563,240.536713 
	C266.312958,241.002563 261.621643,241.000732 256.463959,240.997360 
	C255.997559,240.995819 256.000000,241.000000 256.000488,240.534821 
	C256.002136,235.378281 256.003326,230.686935 256.004517,225.995575 
	C256.004517,225.995575 256.000000,225.999634 255.997803,226.001999 
	C256.324432,226.003311 256.654358,225.983963 256.981873,226.003983 
	C261.502533,226.280060 267.494385,224.949448 270.099640,227.327621 
	C272.378265,229.407623 270.848328,235.659912 271.002563,240.536713 
z"/>
<path fill="#FFFFFE" opacity="1.000000" stroke="none" 
	d="
M286.001831,255.997803 
	C285.674866,255.996704 285.344910,256.016113 285.017426,255.996124 
	C280.496918,255.720016 274.505066,257.050507 271.900085,254.672363 
	C269.621490,252.592178 271.151398,246.340210 270.997192,241.463455 
	C275.686920,240.997559 280.378265,240.999374 285.536041,241.002625 
	C286.002441,241.004044 286.000000,241.000000 285.999512,241.465179 
	C285.997864,246.621460 285.996674,251.312561 285.995483,256.003662 
	C285.995483,256.003662 286.000000,256.000000 286.001831,255.997803 
z"/>
<path fill="#FFFFFE" opacity="1.000000" stroke="none" 
	d="
M105.537537,181.001602 
	C105.800468,185.684860 105.596809,190.369720 105.205063,195.410187 
	C104.566475,195.797928 104.115974,195.830093 103.234840,195.674683 
	C102.537170,195.579590 102.270134,195.672089 102.003098,195.764587 
	C101.555672,195.797119 101.108253,195.829651 100.232513,195.674637 
	C99.537170,195.579590 99.270134,195.672089 99.003098,195.764572 
	C98.555672,195.797119 98.108253,195.829651 97.232513,195.674637 
	C96.537170,195.579590 96.270134,195.672073 96.003098,195.764572 
	C95.555672,195.797104 95.108253,195.829651 94.232513,195.674637 
	C93.537170,195.579590 93.270134,195.672089 93.003098,195.764572 
	C92.257469,195.795364 91.511841,195.826157 90.464615,195.393021 
	C90.438751,190.286057 90.714493,185.643036 90.990234,181.000000 
	C95.683807,181.001068 100.377373,181.002136 105.537537,181.001602 
z"/>
<path fill="#ECEEEF" opacity="1.000000" stroke="none" 
	d="
M90.553741,181.002335 
	C90.714493,185.643036 90.438751,190.286057 90.097496,195.321625 
	C88.114479,195.734695 86.196976,195.755234 84.082382,195.418365 
	C84.461716,190.656219 85.038147,186.251480 85.683945,181.316711 
	C86.994293,181.224487 88.555771,181.114578 90.553741,181.002335 
z"/>
<path fill="#EFEFEF" opacity="1.000000" stroke="none" 
	d="
M315.536072,255.999680 
	C316.000763,260.688995 315.999084,265.379852 315.996826,270.537231 
	C315.996246,271.003754 316.000000,271.000000 315.535645,270.999420 
	C310.379456,270.997742 305.687592,270.996643 300.995758,270.995544 
	C300.995758,270.995544 301.000000,271.000000 301.002136,271.002075 
	C301.002747,266.312897 301.001190,261.621613 300.997986,256.463959 
	C305.687469,255.998779 310.378571,255.999985 315.536072,255.999680 
z"/>
<path fill="#EFEFEF" opacity="1.000000" stroke="none" 
	d="
M286.462036,256.002075 
	C285.996674,251.312561 285.997864,246.621460 285.997650,241.463959 
	C286.324982,240.998718 286.654755,240.983444 286.982330,241.003540 
	C291.502045,241.280746 297.492828,239.951279 300.097534,242.329376 
	C302.375793,244.409424 300.846344,250.660110 301.000732,255.536011 
	C296.311157,256.002625 291.619904,256.001556 286.462036,256.002075 
z"/>
<path fill="#EFEFEF" opacity="1.000000" stroke="none" 
	d="
M285.997986,181.461746 
	C290.687439,180.997452 295.378540,180.998566 300.536041,180.998184 
	C301.001282,185.687897 301.000153,190.379120 301.000732,195.536835 
	C297.368378,196.000351 293.732422,195.923843 290.100830,196.017395 
	C287.134552,196.093842 285.900604,194.755905 285.983307,191.837631 
	C286.076874,188.536636 286.001526,185.230850 285.997986,181.461746 
z"/>
<path fill="#FFFFFE" opacity="1.000000" stroke="none" 
	d="
M255.538208,180.997559 
	C256.004272,185.687164 256.002472,190.378265 255.998810,195.535690 
	C255.996948,196.002029 256.000000,196.000000 255.534821,195.999451 
	C250.378540,195.997803 245.687439,195.996704 240.996338,195.995605 
	C240.996338,195.995605 240.999756,196.000000 241.002045,196.001831 
	C241.003296,195.674835 240.983948,195.344910 241.003983,195.017365 
	C241.280304,190.496765 239.949936,184.504410 242.328323,181.899765 
	C244.409027,179.621094 250.661057,181.151398 255.538208,180.997559 
z"/>
<path fill="#EFEFEF" opacity="1.000000" stroke="none" 
	d="
M255.537949,225.997192 
	C256.003326,230.686935 256.002136,235.378281 256.002350,240.536041 
	C255.675003,241.001266 255.345230,241.016556 255.017639,240.996460 
	C250.497864,240.719208 244.506958,242.048645 241.902344,239.670471 
	C239.624039,237.590256 241.153641,231.339554 240.999298,226.463531 
	C245.688828,225.996826 250.380112,225.997818 255.537949,225.997192 
z"/>
<path fill="#EFF6FA" opacity="1.000000" stroke="none" 
	d="
M116.252739,195.802307 
	C116.169312,195.359695 116.333046,194.978989 116.496780,194.598267 
	C116.648331,194.829636 116.799889,195.060989 116.972824,195.516388 
	C116.829430,195.781677 116.664665,195.822937 116.252739,195.802307 
z"/>
<path fill="#EFF6FA" opacity="1.000000" stroke="none" 
	d="
M110.252739,195.802307 
	C110.169319,195.359695 110.333046,194.978989 110.496780,194.598267 
	C110.648331,194.829636 110.799881,195.060989 110.972824,195.516388 
	C110.829430,195.781677 110.664665,195.822937 110.252739,195.802307 
z"/>
<path fill="#EFF6FA" opacity="1.000000" stroke="none" 
	d="
M113.252731,195.802307 
	C113.169312,195.359695 113.333038,194.978973 113.496780,194.598267 
	C113.648331,194.829636 113.799881,195.060989 113.972824,195.516388 
	C113.829430,195.781677 113.664665,195.822937 113.252731,195.802307 
z"/>
<path fill="#ECEEEF" opacity="1.000000" stroke="none" 
	d="
M102.250595,195.849091 
	C102.270134,195.672089 102.537170,195.579590 102.898705,195.626007 
	C102.828163,195.821167 102.663124,195.877396 102.250595,195.849091 
z"/>
<path fill="#ECEEEF" opacity="1.000000" stroke="none" 
	d="
M99.250595,195.849091 
	C99.270134,195.672089 99.537170,195.579590 99.898705,195.626007 
	C99.828163,195.821167 99.663124,195.877396 99.250595,195.849091 
z"/>
<path fill="#ECEEEF" opacity="1.000000" stroke="none" 
	d="
M96.250595,195.849091 
	C96.270134,195.672073 96.537170,195.579590 96.898705,195.626007 
	C96.828163,195.821167 96.663124,195.877396 96.250595,195.849091 
z"/>
<path fill="#ECEEEF" opacity="1.000000" stroke="none" 
	d="
M93.250595,195.849091 
	C93.270134,195.672089 93.537170,195.579590 93.898705,195.626007 
	C93.828163,195.821167 93.663124,195.877396 93.250595,195.849091 
z"/>
<path fill="#EFF6FA" opacity="1.000000" stroke="none" 
	d="
M119.426361,195.765930 
	C119.454582,195.530502 119.702744,195.335541 120.014374,195.414719 
	C120.077835,195.688873 119.646294,195.806396 119.426361,195.765930 
z"/>
<path fill="#EFEFEF" opacity="1.000000" stroke="none" 
	d="
M286.000000,301.001221 
	C290.690216,301.001953 295.380463,301.001465 300.537231,300.999268 
	C301.002808,305.688263 301.001892,310.378937 301.002350,315.536041 
	C296.311798,316.000824 291.619812,315.999176 286.461121,315.997314 
	C285.994415,315.997101 286.000458,316.000000 286.000732,315.536224 
	C286.000671,310.381622 286.000336,305.690826 286.000000,301.001221 
z"/>
<path fill="#EFEFEF" opacity="1.000000" stroke="none" 
	d="
M301.463928,301.002350 
	C300.999207,296.312317 301.000854,291.620880 301.003113,286.462891 
	C301.003662,285.996338 301.000000,286.000000 301.464478,286.000549 
	C306.620789,286.002258 311.312653,286.003387 316.004517,286.004517 
	C316.004517,286.004517 316.000000,286.000000 315.997803,285.997803 
	C315.997162,290.687469 315.998749,295.379395 316.002014,300.537903 
	C311.312531,301.003326 306.621429,301.002136 301.463928,301.002350 
z"/>
<path fill="#FFFFFE" opacity="1.000000" stroke="none" 
	d="
M150.995590,196.004410 
	C150.996674,191.312561 150.997757,186.620712 150.997208,181.462219 
	C155.687439,180.997421 160.379303,180.999283 165.537781,181.002777 
	C166.004410,181.004410 165.999802,180.999802 166.000061,181.461212 
	C165.669449,186.536758 165.338562,191.150894 165.007690,195.765015 
	C163.950867,196.238739 162.894058,196.712448 161.421631,197.488007 
	C157.669220,197.194687 154.332413,196.599548 150.995590,196.004410 
z"/>
<path fill="#ECEEEF" opacity="1.000000" stroke="none" 
	d="
M165.466858,195.853180 
	C165.338562,191.150894 165.669449,186.536758 165.998047,181.459198 
	C170.687469,180.998199 175.379181,181.000610 180.537445,181.004578 
	C181.004013,181.006104 180.999725,180.999557 180.998352,181.463135 
	C181.005905,186.522552 181.014862,191.118393 181.023804,195.714218 
	C175.991211,195.789917 170.958618,195.865631 165.466858,195.853180 
z"/>
<path fill="#FFFFFE" opacity="1.000000" stroke="none" 
	d="
M181.349915,195.784210 
	C181.014862,191.118393 181.005905,186.522552 180.995407,181.461334 
	C185.686295,180.997681 190.378723,180.999405 195.537781,181.002777 
	C196.004410,181.004410 195.999741,180.999741 195.999252,181.461578 
	C195.666245,186.281448 195.333725,190.639511 194.677887,194.992508 
	C193.574768,195.246887 192.794998,195.506302 192.015228,195.765717 
	C191.565109,195.797882 191.114975,195.830032 190.234528,195.674652 
	C189.537155,195.579590 189.270126,195.672073 189.003082,195.764557 
	C188.555664,195.797104 188.108261,195.829636 187.232513,195.674622 
	C186.537155,195.579590 186.270126,195.672073 186.003082,195.764572 
	C185.555664,195.797104 185.108261,195.829636 184.232513,195.674637 
	C183.537155,195.579590 183.270126,195.672089 183.003082,195.764572 
	C182.560730,195.794449 182.118393,195.824326 181.349915,195.784210 
z"/>
<path fill="#EFEFEF" opacity="1.000000" stroke="none" 
	d="
M161.709747,285.980591 
	C161.772079,290.687683 161.834412,295.394836 161.364349,300.559998 
	C157.553177,301.010529 154.274368,301.002991 150.995575,300.995483 
	C150.995575,300.995483 151.000000,301.000000 151.000580,300.535645 
	C151.002243,295.379364 151.003342,290.687408 151.004425,285.995483 
	C151.004425,285.995483 151.000000,286.000000 151.450882,286.000641 
	C155.171097,285.994385 158.440414,285.987488 161.709747,285.980591 
z"/>
<path fill="#FFFFFE" opacity="1.000000" stroke="none" 
	d="
M150.995575,256.004456 
	C150.997375,251.308960 150.999176,246.613464 151.454590,241.451218 
	C155.182617,241.003906 158.457031,241.023346 161.731445,241.042770 
	C161.773468,245.714005 161.815475,250.385223 161.344696,255.518188 
	C157.553131,255.988098 154.274368,255.996277 150.995575,256.004456 
z"/>
<path fill="#EFEFEF" opacity="1.000000" stroke="none" 
	d="
M150.997925,256.002075 
	C154.274368,255.996277 157.553131,255.988098 161.270782,255.977051 
	C161.772018,260.683502 161.834396,265.392792 161.364380,270.560059 
	C157.553177,271.010529 154.274368,271.003021 150.995575,270.995483 
	C150.995575,270.995483 151.000000,271.000000 151.000580,270.535645 
	C151.002243,265.379395 151.003342,260.687469 151.004425,255.995575 
	C151.004425,255.995575 151.000259,255.999725 150.997925,256.002075 
z"/>
<path fill="#FFFFFE" opacity="1.000000" stroke="none" 
	d="
M150.997192,301.462036 
	C154.274368,301.002991 157.553177,301.010529 161.270859,301.019043 
	C161.758957,305.700439 161.808167,310.380798 161.783569,315.520874 
	C158.440414,315.987488 155.171097,315.994385 151.448669,316.002899 
	C150.996643,311.312561 150.997726,306.620575 150.997192,301.462036 
z"/>
<path fill="#E0E9F0" opacity="1.000000" stroke="none" 
	d="
M161.828613,240.582413 
	C158.457031,241.023346 155.182617,241.003906 151.455460,240.984039 
	C151.002716,240.983627 151.002075,241.001892 151.008835,240.534088 
	C151.015976,235.378159 151.016373,230.690033 151.016769,226.001907 
	C151.016769,226.001907 150.998474,225.998474 151.453033,226.007050 
	C155.182205,225.997772 158.456818,225.979935 161.731445,225.962097 
	C161.796219,230.682083 161.861008,235.402069 161.828613,240.582413 
z"/>
<path fill="#FFFFFE" opacity="1.000000" stroke="none" 
	d="
M150.997192,271.462036 
	C154.274368,271.003021 157.553177,271.010529 161.270844,271.019043 
	C161.758942,275.700439 161.808151,280.380798 161.783554,285.520874 
	C158.440414,285.987488 155.171097,285.994385 151.448669,286.002899 
	C150.996658,281.312561 150.997742,276.620575 150.997192,271.462036 
z"/>
<path fill="#FFFFFE" opacity="1.000000" stroke="none" 
	d="
M161.796112,225.502502 
	C158.456818,225.979935 155.182205,225.997772 151.454742,226.016190 
	C151.000748,221.320663 150.999588,216.624542 151.450104,211.463623 
	C155.171051,211.007645 158.440353,211.016464 161.709641,211.025284 
	C161.760025,215.697815 161.810410,220.370361 161.796112,225.502502 
z"/>
<path fill="#EFEFEF" opacity="1.000000" stroke="none" 
	d="
M161.803040,210.568420 
	C158.440353,211.016464 155.171051,211.007645 151.448669,210.997208 
	C150.995590,210.995590 151.000275,211.000275 151.000717,210.535736 
	C151.002243,205.379318 151.003342,200.687439 151.004425,195.995575 
	C151.004425,195.995575 151.000290,195.999710 150.997940,196.002060 
	C154.332413,196.599548 157.669220,197.194687 161.357834,197.880035 
	C161.771896,202.017349 161.834152,206.064438 161.803040,210.568420 
z"/>
<path fill="#EEEFF0" opacity="1.000000" stroke="none" 
	d="
M195.001221,194.997559 
	C195.333725,190.639511 195.666245,186.281448 195.997192,181.459503 
	C205.829483,181.009323 205.816940,181.009567 206.017838,191.118896 
	C206.040146,192.241348 206.306076,193.358978 206.770340,194.766998 
	C203.357376,195.350739 199.633118,195.646286 195.455627,195.669220 
	C195.002411,195.396606 195.001221,194.997559 195.001221,194.997559 
z"/>
<path fill="#ECEEEF" opacity="1.000000" stroke="none" 
	d="
M194.677887,194.992508 
	C195.001221,194.997559 195.002411,195.396606 195.002930,195.596130 
	C194.251648,195.846588 193.499863,195.897537 192.381653,195.857101 
	C192.794998,195.506302 193.574768,195.246887 194.677887,194.992508 
z"/>
<path fill="#ECEEEF" opacity="1.000000" stroke="none" 
	d="
M189.250580,195.849091 
	C189.270126,195.672073 189.537155,195.579590 189.898712,195.626007 
	C189.828171,195.821136 189.663132,195.877380 189.250580,195.849091 
z"/>
<path fill="#ECEEEF" opacity="1.000000" stroke="none" 
	d="
M186.250580,195.849091 
	C186.270126,195.672073 186.537155,195.579590 186.898712,195.626007 
	C186.828171,195.821136 186.663132,195.877380 186.250580,195.849091 
z"/>
<path fill="#ECEEEF" opacity="1.000000" stroke="none" 
	d="
M183.250580,195.849091 
	C183.270126,195.672089 183.537155,195.579590 183.898712,195.626007 
	C183.828171,195.821136 183.663132,195.877380 183.250580,195.849091 
z"/>
<path fill="#EFEFEF" opacity="1.000000" stroke="none" 
	d="
M240.997955,196.462189 
	C245.687439,195.996704 250.378540,195.997803 255.536041,195.997360 
	C256.001282,200.687546 256.000122,205.379288 256.000702,210.537598 
	C251.311432,211.003174 246.620422,211.002151 241.462875,211.002762 
	C240.997421,206.312515 240.998505,201.620636 240.997955,196.462189 
z"/>
<path fill="#FFFFFE" opacity="1.000000" stroke="none" 
	d="
M316.002869,285.537964 
	C311.312653,286.003387 306.620789,286.002258 301.462341,286.002808 
	C300.996887,281.312561 300.997986,276.620667 300.997437,271.462158 
	C305.687592,270.996643 310.379456,270.997742 315.537903,270.997162 
	C316.003418,275.687439 316.002319,280.379425 316.002869,285.537964 
z"/>
<path fill="#EFEFEF" opacity="1.000000" stroke="none" 
	d="
M256.462189,316.002014 
	C255.997009,311.313202 255.998444,306.622711 255.999634,301.466125 
	C260.689209,301.001160 265.379028,301.002319 270.534546,301.467865 
	C270.998871,306.623535 270.997467,311.314819 270.996094,316.006104 
	C270.996094,316.006104 270.999573,316.000000 271.002838,315.998169 
	C266.313660,315.997681 261.621216,315.999023 256.462189,316.002014 
z"/>
<path fill="#FFFFFE" opacity="1.000000" stroke="none" 
	d="
M271.462616,316.004639 
	C270.997467,311.314819 270.998871,306.623535 271.000732,301.466125 
	C275.701141,301.001160 280.401031,301.002289 285.550476,301.001709 
	C286.000336,305.690826 286.000671,310.381622 286.002441,315.539276 
	C281.312317,316.005127 276.620728,316.004150 271.462616,316.004639 
z"/>
<path fill="#FFFFFE" opacity="1.000000" stroke="none" 
	d="
M150.002243,324.999268 
	C148.035706,324.996552 146.068954,325.012238 144.102692,324.987976 
	C134.819397,324.873322 136.126404,326.149353 135.995407,316.452087 
	C140.686295,315.997009 145.378723,315.997925 150.537796,315.997162 
	C151.284637,318.977966 151.564865,321.960449 151.911316,325.326355 
	C151.811234,325.749756 151.644897,325.789795 151.111908,325.596527 
	C150.534042,325.167511 150.286362,325.046204 150.002243,324.999268 
z"/>
<path fill="#EFEFEF" opacity="1.000000" stroke="none" 
	d="
M150.002319,325.198120 
	C150.286362,325.046204 150.534042,325.167511 150.862427,325.536438 
	C150.820160,325.764404 150.660767,325.819092 150.251709,325.834229 
	C150.002060,325.794678 150.002380,325.396973 150.002319,325.198120 
z"/>
<path fill="#FFFFFE" opacity="1.000000" stroke="none" 
	d="
M150.537842,285.997131 
	C151.003342,290.687408 151.002243,295.379364 151.002792,300.537903 
	C146.312561,301.003387 141.620682,301.002289 136.462189,301.002838 
	C135.996658,296.312592 135.997742,291.620636 135.997208,286.462097 
	C140.687469,285.996582 145.379379,285.997681 150.537842,285.997131 
z"/>
<path fill="#FFFFFE" opacity="1.000000" stroke="none" 
	d="
M150.537842,255.997192 
	C151.003342,260.687469 151.002243,265.379395 151.002792,270.537903 
	C146.312561,271.003387 141.620682,271.002289 136.462189,271.002838 
	C135.996658,266.312622 135.997742,261.620697 135.997208,256.462189 
	C140.687469,255.996658 145.379379,255.997742 150.537842,255.997192 
z"/>
<path fill="#FFFFFE" opacity="1.000000" stroke="none" 
	d="
M150.537842,195.997192 
	C151.003342,200.687439 151.002243,205.379318 151.002792,210.537811 
	C146.312561,211.003326 141.620682,211.002243 136.462189,211.002792 
	C135.996658,206.312561 135.997757,201.620682 135.997208,196.462189 
	C140.687469,195.996658 145.379379,195.997742 150.537842,195.997192 
z"/>
<path fill="#FFFFFE" opacity="1.000000" stroke="none" 
	d="
M150.548981,226.001190 
	C151.016373,230.690033 151.015976,235.378159 151.016174,240.532196 
	C146.320801,240.999115 141.624832,241.000137 136.462219,241.002792 
	C135.996658,236.312561 135.997757,231.620682 135.997208,226.462189 
	C140.690781,225.997208 145.386002,225.998840 150.548981,226.001190 
z"/>
<path fill="#EFF6FA" opacity="1.000000" stroke="none" 
	d="
M107.465416,194.446442 
	C107.523216,194.411514 107.407616,194.481384 107.465416,194.446442 
z"/>
</svg>