<svg width="444" height="266" viewBox="0 0 444 266" fill="none" xmlns="http://www.w3.org/2000/svg">
<path d="M125.115 96.8295C125.115 102.281 125.707 106.682 126.743 109.905C127.927 113.147 129.407 116.683 131.479 120.513C132.219 121.674 132.515 122.852 132.515 123.884C132.515 125.357 131.627 126.83 129.703 128.304L120.398 134.473C119.273 135.28 117.935 135.741 116.55 135.799C115.07 135.799 113.59 135.062 112.128 133.736C110.141 131.608 108.363 129.296 106.819 126.83C105.165 124.006 103.634 121.112 102.231 118.156C90.7238 131.674 76.2383 138.433 58.8113 138.433C46.4163 138.433 36.5188 134.915 29.2853 127.862C22.0518 120.79 18.3703 111.397 18.3703 99.6288C18.3703 87.1423 22.7918 76.9763 31.8013 69.3518C40.8108 61.7089 52.7618 57.8782 67.9688 57.8782C73.0008 57.8782 78.1623 58.3202 83.6198 59.0569C89.0958 59.7935 94.7198 60.9722 100.603 62.2982V51.5613C100.603 40.3824 98.2533 32.5921 93.6653 28.0432C88.9478 23.4759 80.9743 21.2843 69.6153 21.2843C64.4353 21.2843 59.1073 21.8552 53.6498 23.1812C48.1923 24.5072 42.8643 26.1279 37.7028 28.1905C36.0199 28.9407 34.2895 29.5805 32.5228 30.1059C31.7619 30.35 30.9718 30.4924 30.1733 30.5295C28.1013 30.5295 27.0653 29.0561 27.0653 25.9806V18.7796C27.0653 16.4223 27.3613 14.6543 28.1013 13.623C29.2188 12.2859 30.639 11.2318 32.2453 10.5474C37.4068 7.89538 43.6043 5.68539 50.8378 3.91739C58.3676 1.99836 66.1164 1.06353 73.8888 1.13647C91.4638 1.13647 104.303 5.11447 112.572 13.052C120.694 20.9712 124.819 33.0341 124.819 49.204V96.8295H125.115ZM65.1753 119.187C70.0408 119.187 75.0543 118.303 80.3823 116.535C85.6918 114.767 90.4278 111.544 94.4053 107.143C96.7733 104.343 98.5493 101.249 99.4373 97.7135C100.307 94.1959 100.917 89.9232 100.917 84.9323V78.7627C96.4355 77.6751 91.8958 76.8389 87.3198 76.258C82.7178 75.676 78.0838 75.3808 73.4448 75.3741C63.5473 75.3741 56.3138 77.2894 51.4298 81.2674C46.5643 85.227 44.2148 90.8072 44.2148 98.1555C44.2148 105.062 45.9723 110.218 49.6723 113.736C53.2058 117.419 58.3673 119.187 65.1753 119.187ZM183.76 135.062C181.096 135.062 179.32 134.62 178.136 133.589C176.952 132.705 175.916 130.642 175.028 127.862L140.341 14.2123C139.666 12.3067 139.219 10.3286 139.009 8.31897C139.009 5.96163 140.193 4.63564 142.542 4.63564H157.028C159.821 4.63564 161.745 5.09605 162.763 6.10897C163.965 6.99297 164.853 9.05563 165.723 11.855L190.55 109.169L213.582 11.855C214.322 8.9083 215.21 6.99297 216.376 6.10897C218.151 5.02538 220.217 4.51105 222.296 4.63564H234.099C236.911 4.63564 238.835 5.09605 240.019 6.10897C241.184 6.99297 242.239 9.05563 242.812 11.855L266.141 110.347L291.689 11.855C292.577 8.9083 293.613 6.99297 294.649 6.10897C296.363 5.02588 298.377 4.51018 300.403 4.63564H314.148C316.498 4.63564 317.848 5.83272 317.848 8.31897C317.848 9.05563 317.682 9.7923 317.534 10.6763C317.302 11.933 316.955 13.1659 316.498 14.3596L280.922 127.99C280.034 130.937 278.998 132.834 277.814 133.718C276.147 134.783 274.186 135.298 272.209 135.191H259.499C256.706 135.191 254.782 134.749 253.579 133.718C252.414 132.687 251.378 130.771 250.804 127.825L227.901 33.0157L205.146 127.677C204.406 130.624 203.537 132.539 202.371 133.571C201.169 134.602 199.097 135.044 196.451 135.044L183.76 135.062ZM373.496 139.022C365.819 139.022 358.141 138.138 350.76 136.388C343.378 134.62 337.625 132.705 333.777 130.495C331.409 129.188 329.799 127.714 329.207 126.388C328.63 125.088 328.328 123.684 328.319 122.263V114.767C328.319 111.692 329.503 110.218 331.705 110.218C332.593 110.218 333.481 110.366 334.369 110.66C335.257 110.955 336.589 111.544 338.069 112.134C343.082 114.344 348.54 116.093 354.312 117.272C360.213 118.451 365.967 119.04 371.887 119.04C381.174 119.04 388.426 117.419 393.439 114.178C395.843 112.732 397.819 110.68 399.167 108.228C400.516 105.776 401.188 103.012 401.117 100.218C401.171 98.3255 400.847 96.441 400.164 94.6738C399.482 92.9066 398.453 91.2919 397.139 89.9232C394.475 87.1423 389.443 84.6376 382.21 82.2803L360.805 75.6503C350.02 72.28 342.046 67.2891 337.181 60.6775C332.419 54.5758 329.817 47.0778 329.781 39.351C329.781 33.1815 331.131 27.7485 333.777 23.0339C336.441 18.3376 339.974 14.2123 344.414 10.9894C348.854 7.60072 353.849 5.09605 359.769 3.34647C365.689 1.57847 371.887 0.841797 378.38 0.841797C381.618 0.841797 385.022 0.989131 388.278 1.43113C391.663 1.87313 394.753 2.46246 397.861 3.05179C400.821 3.78846 403.633 4.52513 406.278 5.39072C408.942 6.27472 411.014 7.15872 412.494 8.04272C414.238 8.91642 415.757 10.1765 416.934 11.726C417.888 13.1562 418.349 14.8561 418.248 16.5696V23.4759C418.248 26.5699 417.064 28.1905 414.844 28.1905C412.878 27.9662 410.975 27.3659 409.238 26.4225C400.317 22.4993 390.648 20.5453 380.896 20.695C372.479 20.695 365.819 22.0025 361.249 24.8019C356.661 27.6012 354.312 31.8555 354.312 37.8777C354.312 42.003 355.792 45.539 358.752 48.32C361.693 51.1193 367.151 53.9186 374.976 56.4233L395.955 63.0165C406.574 66.4051 414.27 71.1198 418.84 77.142C423.409 83.1643 425.629 90.0705 425.629 97.7135C425.629 104.03 424.297 109.776 421.8 114.767C419.136 119.777 415.584 124.178 411.014 127.714C406.426 131.398 400.969 134.031 394.623 135.946C387.963 137.991 381.044 139.022 373.496 139.022ZM401.413 210.479C352.832 246.207 282.236 265.158 221.556 265.158C136.493 265.158 59.8658 233.849 1.96078 181.804C-2.60872 177.697 1.51678 172.098 6.99278 175.34C69.5968 211.492 146.834 233.407 226.717 233.407C280.626 233.407 339.826 222.229 394.327 199.3C402.449 195.616 409.386 204.585 401.413 210.479ZM421.652 187.532C415.436 179.612 380.582 183.719 364.783 185.635C360.065 186.224 359.325 182.099 363.617 179.005C391.367 159.612 437.007 165.192 442.316 171.656C447.626 178.286 440.836 223.702 414.844 245.452C410.866 248.841 407.018 247.073 408.794 242.671C414.714 228.122 427.849 195.34 421.652 187.532Z" fill="#58CCE9"/>
</svg>
