<svg width="346" height="442" viewBox="0 0 346 442" fill="none" xmlns="http://www.w3.org/2000/svg">
<path d="M157.201 0H229.795V334.557C192.554 341.592 165.211 344.41 135.519 344.41C46.8854 344.41 0.690918 304.52 0.690918 228.017C0.690918 154.313 49.7159 106.467 125.621 106.467C137.406 106.467 146.36 107.388 157.201 110.205V0ZM157.201 168.384C149.31 165.73 141.016 164.459 132.688 164.627C95.9104 164.627 74.7094 187.15 74.7094 226.599C74.7094 265.089 94.9854 286.195 132.226 286.195C140.236 286.195 146.841 285.735 157.201 284.316V168.384ZM345.309 111.605V279.16C345.309 336.878 341.072 364.576 328.344 388.5C316.56 411.502 301.001 426.051 268.941 442L201.527 410.084C233.587 395.074 249.146 381.906 259.043 361.74C269.422 341.095 272.715 317.153 272.715 254.279V111.587L345.309 111.605ZM272.715 0.38675H345.309V74.5322H272.715V0.38675Z" fill="#58CCE9"/>
</svg>
