<svg width="334" height="271" viewBox="0 0 334 271" fill="none" xmlns="http://www.w3.org/2000/svg">
<path d="M194.597 121.094H224.086C224.771 121.094 225.427 120.79 225.912 120.248C226.397 119.706 226.671 118.971 226.675 118.203V88.7187C226.675 87.948 226.402 87.2088 225.917 86.6637C225.431 86.1187 224.773 85.8125 224.086 85.8125H194.597C193.914 85.8125 193.259 86.1171 192.776 86.6592C192.294 87.2012 192.022 87.9365 192.022 88.7031V118.203C192.022 119.797 193.177 121.094 194.597 121.094ZM153.487 36.25H182.963C183.649 36.25 184.308 35.9438 184.793 35.3988C185.278 34.8538 185.551 34.1145 185.551 33.3437V3.84375C185.547 3.07567 185.273 2.34047 184.788 1.79881C184.303 1.25716 183.647 0.953114 182.963 0.953125H153.487C152.804 0.953125 152.149 1.25767 151.667 1.79977C151.184 2.34187 150.913 3.07711 150.913 3.84375V33.3437C150.913 34.9375 152.054 36.25 153.487 36.25ZM153.487 78.6719H182.963C183.648 78.6678 184.304 78.3603 184.789 77.8161C185.274 77.272 185.548 76.5351 185.551 75.7656V46.2813C185.547 45.5132 185.273 44.778 184.788 44.2363C184.303 43.6947 183.647 43.3906 182.963 43.3906H153.487C152.804 43.3906 152.149 43.6952 151.667 44.2373C151.184 44.7794 150.913 45.5146 150.913 46.2813V75.7656C150.913 77.3594 152.054 78.6562 153.487 78.6719ZM112.711 78.6719H142.215C142.896 78.6636 143.548 78.3538 144.027 77.8097C144.506 77.2655 144.775 76.531 144.775 75.7656V46.2813C144.775 45.5146 144.504 44.7794 144.021 44.2373C143.538 43.6952 142.884 43.3906 142.201 43.3906H112.725C112.042 43.3906 111.388 43.6952 110.905 44.2373C110.422 44.7794 110.151 45.5146 110.151 46.2813V75.7656C110.151 77.3594 111.306 78.6562 112.725 78.6719M71.4762 78.6719H100.966C101.65 78.6677 102.305 78.3597 102.787 77.8151C103.269 77.2706 103.54 76.5337 103.54 75.7656V46.2813C103.54 45.5146 103.269 44.7794 102.786 44.2373C102.303 43.6952 101.648 43.3906 100.966 43.3906H71.4762C70.7921 43.3906 70.1358 43.6947 69.6508 44.2363C69.1658 44.778 68.8914 45.5132 68.8877 46.2813V75.7656C68.8877 77.3594 70.0567 78.6562 71.4762 78.6719ZM153.487 121.094H182.963C183.647 121.094 184.303 120.79 184.788 120.248C185.273 119.706 185.547 118.971 185.551 118.203V88.7187C185.551 87.948 185.278 87.2088 184.793 86.6637C184.308 86.1187 183.649 85.8125 182.963 85.8125H153.487C152.804 85.8125 152.149 86.1171 151.667 86.6592C151.184 87.2012 150.913 87.9365 150.913 88.7031V118.203C150.913 119.797 152.054 121.094 153.487 121.094ZM112.711 121.094H142.215C142.895 121.09 143.546 120.783 144.026 120.242C144.506 119.7 144.775 118.967 144.775 118.203V88.7187C144.777 88.3391 144.712 87.9629 144.585 87.6114C144.457 87.2599 144.269 86.94 144.031 86.6702C143.793 86.4003 143.511 86.1857 143.199 86.0385C142.887 85.8913 142.553 85.8145 142.215 85.8125H112.711C112.031 85.8166 111.38 86.123 110.9 86.6646C110.42 87.2063 110.151 87.9392 110.151 88.7031V118.203C110.151 119.797 111.306 121.094 112.725 121.094M71.4762 121.094H100.966C101.648 121.094 102.303 120.789 102.786 120.247C103.269 119.705 103.54 118.97 103.54 118.203V88.7187C103.542 88.3391 103.477 87.9629 103.35 87.6114C103.222 87.2599 103.034 86.94 102.796 86.6702C102.558 86.4003 102.275 86.1857 101.964 86.0385C101.652 85.8913 101.318 85.8145 100.98 85.8125H71.4762C70.7897 85.8125 70.1313 86.1187 69.6459 86.6637C69.1605 87.2088 68.8877 87.948 68.8877 88.7187V118.203C68.8877 119.797 70.0567 121.094 71.4762 121.094ZM30.8396 121.094H60.3429C61.0233 121.09 61.6746 120.783 62.1544 120.242C62.6342 119.7 62.9036 118.967 62.9036 118.203V88.7187C62.9054 88.3391 62.8406 87.9629 62.7129 87.6114C62.5852 87.2599 62.3971 86.94 62.1593 86.6702C61.9216 86.4003 61.6388 86.1857 61.3271 86.0385C61.0154 85.8913 60.681 85.8145 60.3429 85.8125H30.8396C30.1592 85.8166 29.5079 86.123 29.0281 86.6646C28.5482 87.2063 28.2789 87.9392 28.2789 88.7031V118.203C28.2789 119.797 29.4062 121.094 30.8396 121.094ZM330.702 102.531C329.797 101.734 321.35 94.5625 303.509 94.5625C298.805 94.5781 294.101 95.0313 289.453 95.9219C286.002 69.3594 266.449 56.3906 265.572 55.8281L260.785 52.7188L257.64 57.8281C253.687 64.6719 250.82 72.2344 249.122 80.1719C245.922 95.3281 247.87 109.578 254.731 121.75C246.451 126.937 233.16 128.203 230.46 128.313H10.4517C7.6894 128.317 5.04091 129.548 3.08509 131.738C1.12927 133.928 0.0251855 136.899 0.0141536 140C-0.24356 161.638 3.02008 183.147 9.64449 203.469C17.2291 225.781 28.5016 242.219 43.1837 252.281C59.6053 263.578 86.3253 270.047 116.594 270.047C130.274 270.094 143.912 268.703 157.37 265.891C176.058 262.036 194.04 254.701 210.573 244.187C224.212 235.328 236.458 224.062 246.896 210.812C264.319 188.656 274.701 163.984 282.425 142.063H285.501C304.594 142.063 316.326 133.484 322.797 126.297C327.098 121.719 330.452 116.141 332.636 109.953L334 105.453L330.702 102.531Z" fill="#58CCE9"/>
</svg>
