<svg width="334" height="141" viewBox="0 0 334 141" fill="none" xmlns="http://www.w3.org/2000/svg">
<path d="M334 20.0313H299.654V138.234H279.822V20.0313H245.56V0.656256H334V20.0313ZM238.643 138.234H171.551V0.656256H235.985V20.0313H191.382V59H232.478V78.2813H191.382V118.969H238.643V138.234ZM145.29 138.234H123.608L66.5217 37.1094C65.0937 34.5925 63.8911 31.9233 62.9312 29.1406H62.4302C62.8755 32.0937 63.0982 38.3906 63.0982 48.0469V138.234H43.9349V0.656256H67.0227L122.202 99.4063C124.526 103.484 126.029 106.313 126.697 107.844H127.031C126.475 104.203 126.196 98.0156 126.196 89.3281V0.640625H145.29V138.234ZM24.1733 127.406C24.1733 129.109 23.8603 130.794 23.2524 132.367C22.6445 133.939 21.7535 135.368 20.6303 136.571C19.5071 137.774 18.1738 138.728 16.7066 139.378C15.2395 140.028 13.6672 140.361 12.0797 140.359C10.4921 140.359 8.92014 140.024 7.45362 139.372C5.9871 138.72 4.6548 137.764 3.53291 136.56C2.41101 135.356 1.52154 133.926 0.915333 132.352C0.309131 130.779 -0.00190623 129.093 8.78932e-06 127.391C0.00387031 123.958 1.27825 120.667 3.54321 118.241C5.80817 115.816 8.87847 114.453 12.0797 114.453C13.6672 114.451 15.2395 114.785 16.7066 115.435C18.1738 116.085 19.5071 117.039 20.6303 118.242C21.7535 119.445 22.6445 120.873 23.2524 122.446C23.8603 124.018 24.1733 125.704 24.1733 127.406Z" fill="#58CCE9"/>
</svg>
