<svg width="334" height="375" viewBox="0 0 334 375" fill="none" xmlns="http://www.w3.org/2000/svg">
<path d="M166.666 0.00392995C163.841 2.5262e-05 161.043 0.622762 158.433 1.83637C155.823 3.04998 153.453 4.83055 151.458 7.07581L121.172 41.0727L159.588 84.2039C168.518 80.8196 178.751 83.0867 185.865 91.0774C193.018 99.1164 195.026 110.707 191.936 120.765L204.601 134.987L250.203 83.793L181.868 7.07581C179.874 4.83018 177.505 3.04932 174.896 1.83565C172.287 0.621991 169.49 -0.000520853 166.666 0.00392995ZM106.295 57.7805L82.4698 84.5321L150.794 161.243C152.93 163.643 155.414 165.415 158.054 166.591V137.984C154.914 136.546 152.063 134.415 149.671 131.716C142.099 123.221 140.278 110.745 144.162 100.304L106.295 57.7805ZM258.21 92.7805L212.612 143.974L228.954 162.329C237.911 158.865 248.245 161.107 255.397 169.151C265.396 180.374 265.396 198.562 255.397 209.788C245.396 221.018 229.202 221.018 219.197 209.788C211.679 201.34 209.817 188.938 213.626 178.538L197.723 160.69L189.54 169.877C181.14 179.315 181.14 194.61 189.54 204.041L259.033 282.057L327.701 204.96C336.1 195.526 336.1 180.227 327.701 170.796L258.21 92.7805ZM74.3147 93.6805L6.30112 170.038C-2.10037 179.476 -2.10037 194.77 6.30112 204.201L73.6508 279.82L141.666 203.455C150.064 194.021 150.064 178.724 141.666 169.291L74.3147 93.6805ZM179.097 139.77V163.185C179.816 162.56 180.556 161.982 181.216 161.243L189.719 151.696L179.097 139.77ZM158.054 205.745C154.83 206.87 151.772 208.755 149.218 211.62C126.502 237.127 103.785 262.634 81.067 288.138L152.132 367.923C160.528 377.352 174.149 377.352 182.556 367.923L250.701 291.41L179.636 211.621C179.469 211.434 179.269 211.305 179.097 211.126V241.779C181.6 243.167 183.886 245.002 185.865 247.212C195.861 258.434 195.861 276.616 185.865 287.856C175.866 299.077 159.66 299.077 149.671 287.856C139.673 276.616 139.673 258.434 149.671 247.212C152.068 244.52 154.918 242.389 158.054 240.943V205.745Z" fill="#58CCE9"/>
</svg>
