<svg width="334" height="367" viewBox="0 0 334 367" fill="none" xmlns="http://www.w3.org/2000/svg">
<path d="M167 0.640625C74.7325 0.640625 0 84.5938 0 188.141C0 271 47.8455 341.266 114.186 366.031C122.536 367.797 125.598 362 125.598 357.016C125.598 352.563 125.459 340.766 125.389 325.141C78.9353 336.453 69.138 299.984 69.138 299.984C61.5395 278.344 50.5592 272.563 50.5592 272.563C35.4318 260.938 51.7283 261.172 51.7283 261.172C68.4978 262.484 77.3071 280.484 77.3071 280.484C92.1979 309.156 116.399 300.875 125.946 296.078C127.449 283.953 131.749 275.688 136.523 271C99.4346 266.313 60.454 250.188 60.454 178.344C60.454 157.875 66.9253 141.156 77.6411 128.031C75.7623 123.297 70.1261 104.234 79.1023 78.4063C79.1023 78.4063 93.0886 73.375 125.027 97.625C138.387 93.4531 152.582 91.3906 166.777 91.2969C180.972 91.3906 195.167 93.4531 208.527 97.625C240.257 73.375 254.244 78.4063 254.244 78.4063C263.22 104.234 257.584 123.297 255.914 128.031C266.56 141.156 273.031 157.875 273.031 178.344C273.031 250.375 233.995 266.234 196.837 270.844C202.682 276.469 208.11 287.969 208.11 305.531C208.11 330.625 207.901 350.781 207.901 356.875C207.901 361.797 210.824 367.656 219.382 365.781C286.196 341.188 334 270.875 334 188.141C334 84.5938 259.226 0.640625 167 0.640625Z" fill="#58CCE9"/>
</svg>
