<svg width="334" height="363" viewBox="0 0 334 363" fill="none" xmlns="http://www.w3.org/2000/svg">
<path d="M328.439 143.886L327.97 142.539L282.509 9.33444C281.584 6.72294 279.946 4.50756 277.83 3.00632C275.713 1.53145 273.244 0.82139 270.756 0.971995C268.268 1.1226 265.881 2.12662 263.917 3.84851C261.975 5.61954 260.566 8.01957 259.881 10.7219L229.188 116.159H104.897L74.2011 10.7219C73.5353 8.00456 72.123 5.59221 70.1653 3.82819C68.2014 2.10678 65.8144 1.10332 63.3265 0.953277C60.8386 0.803232 58.3696 1.51382 56.2528 2.98913C54.1417 4.49603 52.5052 6.70889 51.574 9.31569L6.02892 142.461L5.57663 143.808C-0.96771 163.006 -1.77562 184.072 3.27472 203.83C8.32506 223.588 18.9598 240.967 33.5756 253.347L33.7328 253.483L34.1503 253.816L103.4 312.041L137.662 341.155L158.531 358.844C160.972 360.925 163.953 362.051 167.018 362.051C170.083 362.051 173.064 360.925 175.505 358.844L196.373 341.155L230.634 312.041L300.301 253.464L300.475 253.308C315.058 240.926 325.668 223.565 330.711 203.833C335.753 184.102 334.956 163.065 328.439 143.886Z" fill="#58CCE9"/>
</svg>
