<svg width="334" height="344" viewBox="0 0 334 344" fill="none" xmlns="http://www.w3.org/2000/svg">
<path d="M55.6639 343.222C24.922 343.222 0 315.166 0 280.559C0 245.951 24.922 217.895 55.6639 217.895C86.4058 217.895 111.328 245.951 111.328 280.559C111.328 315.166 86.4058 343.222 55.6639 343.222ZM326.542 249.216L215.196 32.1276C199.824 2.15259 165.777 -8.12318 139.15 9.18222C112.523 26.4876 103.394 64.8161 118.766 94.7912L230.112 311.879C245.484 341.854 279.532 352.11 306.158 334.825C332.786 317.519 341.896 279.191 326.542 249.216ZM104.566 59.8858L21.7726 221.325C31.8762 213.986 43.6427 210.077 55.6667 210.065C91.2892 209.947 120.028 243.881 118.21 283.93L162.977 196.631L112.746 98.7141C106.485 86.505 103.948 73.0302 104.566 59.8858Z" fill="#58CCE9"/>
</svg>
