<svg width="444" height="439" viewBox="0 0 444 439" fill="none" xmlns="http://www.w3.org/2000/svg">
<g clip-path="url(#clip0_6275_59)">
<path d="M0 0H444V439H0V0ZM407.629 334.298C404.392 314.269 391.201 297.441 352.074 281.747C338.458 275.436 323.324 271.046 318.829 260.894C317.145 254.858 316.886 251.565 317.978 247.998C320.753 236.182 334.905 232.633 346.005 235.926C353.22 238.121 359.881 243.608 364.062 252.388C383.191 240.023 383.19 240.023 396.529 231.81C391.534 224.128 389.055 220.817 385.688 217.543C374.033 204.647 358.511 198.062 333.259 198.629L320.217 200.257C307.711 203.275 295.796 209.86 288.581 218.64C267.491 242.255 273.578 283.411 299.108 300.422C324.36 319.08 361.287 323.177 366.004 340.755C370.444 362.157 349.909 369.016 329.633 366.547C314.63 363.254 306.323 355.828 297.165 342.109L263.31 361.334C267.195 370.114 271.636 373.937 278.296 381.619C310.486 413.739 390.96 412.093 405.409 363.254C405.945 361.608 409.849 350.359 406.778 333.073L407.629 334.298ZM241.443 201.775H199.856C199.856 237.225 199.689 272.454 199.689 307.958C199.689 330.494 200.855 351.182 197.136 357.547C191.031 370.15 175.306 368.54 168.165 366.327C160.839 362.742 157.121 357.803 152.81 350.688C151.645 348.767 150.775 347.103 150.461 347.103L116.698 367.681C122.341 379.205 130.573 389.119 141.192 395.429C157.009 404.758 178.266 407.776 200.521 402.837C215.007 398.703 227.494 390.198 234.025 377.028C243.46 360.017 241.462 339.164 241.369 315.824C241.591 278.253 241.369 240.663 241.369 202.8L241.443 201.775Z" fill="#58CCE9"/>
</g>
<defs>
<clipPath id="clip0_6275_59">
<rect width="444" height="439" fill="white"/>
</clipPath>
</defs>
</svg>
