<svg width="276" height="376" viewBox="0 0 276 376" fill="none" xmlns="http://www.w3.org/2000/svg">
<path d="M145.014 0C142.857 0 140.63 0.125333 138.334 0.329C79.5223 5.546 95.1229 75.6387 94.2183 98.9977C93.1606 116.106 90.0433 129.595 79.6058 146.311C67.2895 162.777 50.005 189.394 41.8081 217.14C37.9393 230.175 36.1023 243.523 37.814 256.134C37.1793 256.712 36.658 257.433 36.2832 258.249C32.6649 262.448 30.0207 267.649 27.0565 271.394C24.287 274.511 20.3069 275.577 15.9649 277.66C11.609 279.791 6.80771 281.875 3.94087 288.314C2.68837 291.275 2.0482 294.486 2.10387 297.745C2.10387 300.863 2.47962 304.012 2.86929 306.142C3.67645 312.393 4.48362 317.548 3.42595 321.339C-0.0392975 331.992 -0.470713 339.277 1.95079 344.588C4.37229 349.821 9.39621 351.952 15.0325 354.004C26.305 357.137 41.6133 356.119 53.6373 363.404C66.5241 370.705 79.6058 373.901 90.0433 370.767C97.3635 368.95 103.542 363.498 106.855 355.947C115.024 355.9 123.972 351.732 138.306 350.714C148.034 349.805 160.211 354.897 174.17 353.847C174.517 355.947 175.046 356.949 175.756 359.064L175.798 359.111C181.239 371.3 191.287 376.846 202.017 375.89C212.747 374.95 224.172 367.493 233.427 355.43C242.208 343.445 256.848 338.447 266.521 331.883C271.364 328.765 275.274 324.535 275.552 318.519C275.873 312.252 272.769 305.813 265.616 296.962V295.442L265.574 295.395C263.208 292.262 262.095 287.013 260.87 280.888C259.687 274.605 258.338 268.574 254.023 264.5H253.982C253.161 263.654 252.27 263.451 251.365 262.385C250.587 261.774 249.67 261.426 248.721 261.383C254.719 241.361 252.395 221.433 246.314 203.51C238.896 181.42 225.926 162.181 216.045 148.943C204.967 133.198 194.112 118.283 194.335 96.1777C194.697 62.463 197.619 0.094 145.014 0ZM152.376 53.345H152.557C155.521 53.345 158.068 54.3163 160.684 56.447C163.328 58.562 165.277 61.6483 166.78 64.7973C168.241 68.855 168.979 71.9883 169.09 76.14C169.09 75.8267 169.173 75.5133 169.173 75.2V76.845C169.143 76.7384 169.124 76.6278 169.118 76.516L169.062 76.14C169.034 79.9474 168.324 83.7093 166.975 87.2007C166.325 89.165 165.315 90.9532 164.01 92.449C163.616 92.1983 163.207 91.9785 162.786 91.791C161.338 91.086 160.03 90.7883 158.833 89.7073C157.842 89.2626 156.817 88.9166 155.772 88.6733C156.468 87.7333 157.804 86.5897 158.318 85.5713C159.056 83.566 159.46 81.4353 159.543 79.2733V78.96C159.575 76.8323 159.288 74.7138 158.694 72.6933C158.068 70.594 157.289 69.56 156.147 67.4763C154.978 66.4423 153.823 65.4083 152.432 65.4083H152.209C150.915 65.4083 149.76 65.8783 148.563 67.4763C147.241 68.9273 146.261 70.7255 145.71 72.709C144.971 74.6996 144.547 76.8205 144.457 78.9757V79.2733C144.485 80.6677 144.569 82.0777 144.736 83.4563C142.05 82.4067 138.64 81.3413 136.288 80.2917C136.148 79.254 136.064 78.2076 136.038 77.1583V76.845C135.929 72.7093 136.642 68.5984 138.125 64.813C139.267 61.3663 141.354 58.4523 144.11 56.4627C146.489 54.4328 149.391 53.3483 152.376 53.345ZM111.155 54.2693H111.656C113.632 54.2693 115.413 55.0213 117.209 56.3843C119.24 58.4053 120.883 60.8963 121.996 63.6693C123.248 66.787 123.944 69.936 124.125 74.119V74.1817C124.223 76.281 124.209 77.315 124.097 78.349V79.6023C123.68 79.712 123.318 79.8843 122.942 79.9783C120.827 80.84 119.129 82.0933 117.473 83.1117C117.64 81.7017 117.654 80.2917 117.515 78.9287V78.6937C117.348 76.61 116.958 75.5603 116.374 73.4767C115.94 71.88 115.143 70.4382 114.063 69.2937C113.721 68.9426 113.318 68.6728 112.881 68.5006C112.443 68.3283 111.979 68.257 111.517 68.291H111.224C110.236 68.385 109.415 68.9177 108.636 70.359C107.748 71.572 107.171 73.0344 106.966 74.589C106.59 76.2777 106.481 78.0279 106.646 79.759V79.994C106.813 82.109 107.161 83.1273 107.759 85.2267C108.399 87.326 109.123 88.36 110.069 89.4253C110.209 89.5663 110.348 89.7073 110.543 89.8013C109.568 90.6943 108.914 90.898 108.093 91.932C107.572 92.4503 106.946 92.8162 106.27 92.9973C104.823 91.0363 103.542 88.9279 102.443 86.6993C101.127 83.4071 100.395 79.8576 100.286 76.2497C100.055 72.7131 100.434 69.1596 101.399 65.7843C102.166 62.7061 103.509 59.8482 105.338 57.4027C107.119 55.319 108.956 54.2693 111.155 54.2693ZM130.221 80.9967C134.841 80.9967 140.422 82.015 147.143 87.2477C151.221 90.381 154.422 91.462 161.784 94.5797H161.825C165.374 96.7103 167.462 98.747 168.478 100.831V98.7783C168.977 99.9175 169.255 101.163 169.294 102.433C169.332 103.703 169.13 104.967 168.7 106.142C166.989 110.998 161.519 116.215 153.907 119.333V119.364C150.177 121.479 146.935 124.581 143.121 126.649C139.28 128.764 134.938 131.224 129.038 130.832C126.918 130.956 124.798 130.599 122.803 129.783C121.262 128.839 119.766 127.803 118.322 126.681C115.608 124.566 113.27 121.479 109.805 119.396V119.317H109.735C104.169 115.463 101.163 111.296 100.189 108.194C99.2144 103.995 100.119 100.831 102.874 98.794C105.992 96.679 108.163 94.5483 109.596 93.53C111.044 92.3707 111.586 91.932 112.046 91.4777H112.073V91.4307C114.425 88.266 118.141 84.0673 123.749 82.015C125.684 81.451 127.841 80.9967 130.235 80.9967H130.221ZM169.187 114.555C174.17 136.754 185.832 168.996 193.333 184.632C197.313 192.998 205.232 210.623 208.669 232.008C210.84 231.929 213.261 232.29 215.808 233.01C224.798 206.831 208.21 178.694 200.653 170.876C197.591 167.743 197.424 165.628 198.941 165.628C207.152 173.994 217.937 190.256 221.848 208.821C223.657 217.203 224.075 226.117 222.14 234.984C223.073 235.423 224.019 235.924 224.993 236.034C239.355 244.4 244.657 250.729 242.111 260.114V259.44C241.276 259.393 240.441 259.44 239.606 259.44H239.383C241.484 252.124 236.85 246.515 224.562 240.264C211.828 233.997 201.655 235 199.929 247.549C199.818 248.223 199.748 248.583 199.679 249.664C198.732 250.024 197.744 250.494 196.77 250.667C190.786 254.865 187.557 261.148 185.734 269.263C183.925 277.613 183.368 287.374 182.881 298.544V298.591C182.603 303.824 180.516 311.72 178.442 319.741C157.567 336.536 128.62 343.836 104.016 324.974C102.472 321.935 100.592 319.13 98.4211 316.623C97.3839 314.679 96.0939 312.92 94.594 311.406C97.1269 311.406 99.2979 310.936 101.065 310.357C103.067 309.312 104.632 307.437 105.435 305.124C106.938 300.941 105.435 294.204 100.634 286.904C95.8326 279.587 87.6775 271.315 75.7509 263.075C66.9834 256.808 62.029 249.445 59.7467 241.204C57.4505 232.838 57.7566 224.206 59.538 215.432C62.9475 198.669 71.6872 182.376 77.2678 172.145C78.7569 171.127 77.7827 174.26 71.5898 187.405C66.0788 199.17 55.7248 226.524 69.892 247.784C70.4271 232.272 73.4787 217.002 78.896 202.727C86.745 182.705 103.153 147.831 104.447 120.195C105.115 120.759 107.467 122.31 108.469 123.359C111.503 125.443 113.757 128.576 116.68 130.644C119.602 133.793 123.318 135.893 128.871 135.893C129.414 135.94 129.915 135.987 130.402 135.987C136.135 135.987 140.561 133.887 144.277 131.788C148.312 129.689 151.513 126.555 154.575 125.521H154.644C161.144 123.406 166.265 119.223 169.173 114.555H169.187ZM199.595 254.897C200.11 264.297 204.369 274.402 211.87 276.47C220.053 278.569 231.826 271.253 236.795 264.485L239.731 264.328C244.115 264.218 247.761 264.485 251.518 268.527L251.56 268.574C254.455 271.691 255.805 276.877 257.002 282.298C258.184 288.564 259.145 294.518 262.693 298.998C269.457 307.255 271.67 313.192 271.544 316.858L271.586 316.749V317.031L271.544 316.858C271.336 320.963 268.97 323.047 264.614 326.164C255.846 332.447 240.315 337.319 230.421 350.761C221.82 362.307 211.355 368.621 202.086 369.42C192.846 370.25 184.871 366.287 180.182 355.351L180.112 355.304C177.189 349.038 178.442 339.246 180.891 328.828C183.341 318.362 186.848 307.772 187.335 299.108C187.85 287.922 188.392 278.193 190.048 270.689C191.718 263.404 194.335 258.202 198.969 255.273L199.595 254.928V254.897ZM49.1005 255.664H49.2396C49.9772 255.664 50.7009 255.743 51.4245 255.884C56.6572 256.745 61.2497 261.101 65.6613 267.665L78.3255 293.734L78.3672 293.781C81.749 302.132 88.8604 310.451 94.9141 319.428C100.954 328.796 105.63 337.147 105.059 344.024V344.118C104.266 355.774 98.3794 362.104 89.4031 364.391C80.4269 366.506 68.2498 364.422 56.0727 357.122C42.6014 348.724 26.5972 349.774 16.3128 347.69C11.1775 346.656 7.82362 344.557 6.25104 341.424C4.7202 338.29 4.67845 331.992 7.96279 322.154V322.091L7.99062 322.044C9.61887 316.811 8.40812 310.263 7.61487 304.529C6.84945 298.246 6.45979 293.405 8.21329 289.802C10.44 284.569 13.7243 283.535 17.8158 281.452C21.9073 279.337 26.7225 278.287 30.5495 274.088H30.5774V274.057C34.14 269.858 36.7703 264.641 39.8737 260.928C42.5179 257.779 45.162 255.664 49.1005 255.664ZM148.73 113.505C142.676 116.654 135.579 121.887 128.022 121.887C120.479 121.887 114.523 117.704 110.209 114.586C108.065 112.487 106.312 110.387 105.018 109.338C102.735 107.238 103.014 104.121 103.988 104.121C105.505 104.371 105.783 106.22 106.757 107.254C108.093 108.288 109.749 110.387 111.767 112.471C115.831 115.604 121.231 119.787 128.008 119.787C134.758 119.787 142.662 115.604 147.463 112.487C150.177 110.372 153.656 107.254 156.481 105.17C158.652 103.04 158.555 100.987 160.364 100.987C162.146 101.238 160.837 103.087 158.318 106.189C155.232 108.817 152.027 111.264 148.716 113.521L148.73 113.505ZM133.672 88.7047V88.36C133.589 88.0467 133.853 87.702 134.076 87.5767C135.105 86.903 136.581 87.1537 137.694 87.6393C138.571 87.6393 139.921 88.689 139.781 89.7543C139.698 90.522 138.599 90.7883 137.903 90.7883C137.137 90.7883 136.622 90.1147 135.94 89.723C135.217 89.441 133.909 89.5977 133.672 88.7047ZM126.004 88.7047C125.726 89.6133 124.431 89.4723 123.694 89.7387C123.04 90.1303 122.497 90.804 121.745 90.804C121.05 90.804 119.936 90.4907 119.853 89.7387C119.714 88.7047 121.077 87.655 121.94 87.655C123.054 87.1693 124.501 86.9187 125.545 87.5767C125.809 87.7177 126.046 88.0467 125.962 88.36V88.6733H126.004V88.7047Z" fill="#58CCE9"/>
</svg>
