<svg width="334" height="250" viewBox="0 0 334 250" fill="none" xmlns="http://www.w3.org/2000/svg">
<path d="M96.2338 0.136767C68.8458 0.136767 44.9787 20.1901 28.4457 48.9071C9.79733 81.2588 0 123.167 0 163.368C0 174.428 0.974167 184.815 2.9225 194.278C3.87908 198.858 5.11123 203.36 6.61042 207.751C8.04612 211.874 9.77266 215.861 11.7735 219.674C21.4595 237.831 37.074 249.863 61.7761 249.863C82.6093 249.863 98.4187 239.351 116.956 211.574C127.532 195.719 132.876 186.1 154.016 143.894L164.537 122.916L167.125 117.825C167.974 119.391 168.809 120.895 169.672 122.525L199.621 178.846C209.696 197.803 222.792 218.89 233.995 230.766C248.552 246.229 261.717 249.879 276.58 249.879C291.54 249.879 302.688 244.317 310.745 236.672C315.244 232.348 319.056 227.193 322.018 221.428C329.561 206.717 334 188.105 334 162.757C334 120.143 324.523 78.8304 304.998 46.0401C287.157 16.0854 263.846 0.136767 239.367 0.136767C224.796 0.136767 210.309 7.45309 196.879 20.6288C187.805 29.5588 179.386 40.8388 171.551 52.7454C161.948 39.0371 152.972 28.5091 144.302 20.5348C127.852 5.40076 112.085 0.121094 96.2338 0.121094V0.136767ZM237.627 32.3004C253.59 32.3004 268.077 44.1758 279.266 63.6181C295.019 91.0034 302.187 129.34 302.187 163.885C302.187 188.137 297.065 209.318 276.594 209.318C268.522 209.318 262.301 205.715 253.436 193.589C246.534 184.173 234.746 164.167 214.024 125.313L205.438 109.208C199.857 98.6988 194.033 88.3553 187.972 78.1881C188.947 76.4804 189.935 74.6788 190.909 73.0651C206.496 46.9488 220.37 32.3004 237.627 32.3004ZM95.6632 40.9641C113.268 40.9641 124.304 53.3564 132.89 63.6181C137.163 68.7411 143.147 77.2638 150.063 88.3558L135.868 112.89C125.333 131.11 109.677 160.156 96.3868 180.852C79.8121 206.686 71.1977 209.318 61.79 209.318C54.4977 209.318 47.3445 205.605 42.5432 196.879C38.8832 190.205 36.0859 179.175 36.0859 164.825C36.0859 130.029 44.8534 93.7764 59.1876 69.4461C65.5057 58.6831 72.6032 50.2388 80.5218 45.4291C85.155 42.5307 90.3628 40.995 95.6632 40.9641Z" fill="#58CCE9"/>
</svg>
