<svg width="334" height="256" viewBox="0 0 334 256" fill="none" xmlns="http://www.w3.org/2000/svg">
<path d="M228.303 26.1829C226.703 26.1829 225.617 26.4022 224.49 26.6999V26.9036H224.685C225.436 28.5329 226.716 29.7236 227.663 31.1806C228.414 32.8569 229.054 34.5333 229.806 36.1939L230.001 35.9589C231.309 34.9249 231.949 33.2642 231.949 30.7419C231.392 30.0056 231.309 29.2693 230.836 28.5486C230.279 27.4989 229.082 26.9819 228.331 26.1516L228.303 26.1829ZM80.2992 232.889H67.3984C67.0356 209.809 65.7819 186.757 63.6409 163.799H63.5296L43.9071 232.889H34.0958L14.6125 163.799H14.4733C12.9494 186.793 12.0444 209.833 11.7596 232.889H0C0.765417 202.088 2.672 173.199 5.70583 146.252H21.71L40.2888 209.922H40.4001L59.1458 146.252H74.3846C77.7524 177.821 79.7286 206.726 80.3409 232.889H80.2992ZM136.202 168.969C130.942 201.007 124.011 224.319 115.439 238.842C108.731 250.06 101.383 255.653 93.4087 255.653C91.2794 255.653 88.677 254.932 85.5318 253.491V245.751C87.0627 246.018 88.8718 246.159 90.9037 246.159C94.6333 246.159 97.6254 244.984 99.9078 242.681C102.649 239.861 104.013 236.696 104.013 233.202C104.013 230.774 102.942 225.839 100.812 218.413L86.7008 168.969H99.365L109.482 205.942C111.765 214.34 112.725 220.199 112.335 223.536C117.902 206.867 121.771 188.646 123.956 168.969H136.202ZM307.725 232.889H271.125V146.252H283.441V222.236H307.725V232.889ZM261.522 235.004L247.383 227.171C248.635 225.98 249.846 224.695 250.931 223.254C256.957 215.327 259.949 203.545 259.949 187.957C259.949 159.287 249.957 144.936 229.959 144.936C220.162 144.936 212.507 148.571 206.996 155.856C201.012 163.815 198.006 175.533 198.006 191.028C198.006 206.256 200.651 217.442 205.995 224.554C210.865 230.978 218.199 234.189 228.025 234.189C231.699 234.189 235.066 233.672 238.114 232.654L256.554 244.749L261.564 235.004H261.522ZM215.708 215.546C212.577 209.906 211.018 200.819 211.018 188.349C211.018 166.525 216.919 155.605 228.693 155.605C234.858 155.605 239.408 158.222 242.289 163.439C245.407 169.11 246.965 178.103 246.965 190.432C246.965 212.428 241.065 223.458 229.291 223.458C223.098 223.458 218.575 220.841 215.681 215.624L215.708 215.546ZM192.635 208.888C192.635 216.251 190.241 222.298 185.454 226.998C180.666 231.698 174.278 234.048 166.193 234.048C158.636 234.048 151.386 231.354 144.302 225.98L147.6 218.523C153.696 221.969 159.193 223.661 164.161 223.661C168.781 223.661 172.414 222.518 175.058 220.215C176.379 219.093 177.446 217.635 178.172 215.961C178.898 214.286 179.261 212.442 179.233 210.58C179.233 205.41 176.032 201.023 170.215 197.341C164.815 194.004 154.03 187.048 154.03 187.048C148.157 182.239 145.234 177.084 145.234 168.609C145.234 161.559 147.419 155.919 151.775 151.61C156.159 147.255 161.795 145.109 168.754 145.109C175.879 145.109 182.392 147.239 188.237 151.532L185.273 158.989C180.602 156.68 175.566 155.454 170.465 155.386C166.527 155.386 163.479 156.451 161.364 158.613C160.29 159.614 159.425 160.868 158.829 162.287C158.232 163.705 157.92 165.253 157.912 166.823C157.912 171.961 161.169 176.379 167.181 180.139C172.65 183.508 183.7 190.636 183.7 190.636C189.726 195.414 192.718 200.506 192.718 208.935L192.635 208.888ZM323.201 117.206C315.755 116.987 309.98 117.833 305.151 120.152C303.759 120.778 301.532 120.778 301.338 122.768C302.103 123.598 302.214 124.961 302.868 126.121C303.982 128.22 305.902 131.024 307.684 132.497C309.632 134.22 311.58 135.881 313.626 137.354C317.244 139.86 321.35 141.349 324.899 143.871C326.916 145.344 328.976 147.208 331.022 148.775C332.038 149.558 332.692 150.968 334 151.469V151.156C333.36 150.216 333.165 148.853 332.539 147.803C331.606 146.754 330.674 145.814 329.755 144.78C327.023 140.726 323.762 137.161 320.083 134.205C317.105 131.917 310.592 128.721 309.368 124.883L309.187 124.664C311.218 124.46 313.64 123.63 315.588 123.003C318.747 122.063 321.642 122.267 324.912 121.342C326.388 120.919 327.877 120.402 329.366 119.87V118.93C327.696 117.05 326.443 114.496 324.718 112.741C319.901 108.002 314.764 103.691 309.354 99.8476C306.431 97.7483 302.729 96.4009 299.654 94.6149C298.54 93.9883 296.675 93.6749 296.035 92.6252C294.365 90.3379 293.391 87.2986 292.208 84.5726C289.476 78.6049 286.936 72.5275 284.596 66.3522C282.926 62.2476 281.91 58.1586 279.864 54.3986C270.262 36.5856 259.866 25.7913 243.876 15.2319C240.438 13.0386 236.319 12.0986 231.963 10.9392C229.639 10.8139 227.315 10.6259 225.005 10.5162C223.474 9.77992 221.999 7.79025 220.691 6.83458C215.402 3.07458 201.708 -5.07209 197.812 5.70658C195.307 12.5059 201.527 19.2113 203.684 22.6579C205.285 25.0549 207.303 27.7966 208.416 30.4913C209.07 32.3086 209.251 34.1729 209.905 36.0686C211.38 40.6746 212.786 45.8132 214.734 50.1216C215.75 52.3149 216.863 54.6179 218.172 56.5919C218.923 57.7356 220.203 58.2683 220.496 60.1483C219.188 62.2789 219.104 65.3809 218.352 67.9816C215.012 79.8412 216.321 94.5052 221.052 103.232C222.541 105.832 226.09 111.598 230.836 109.389C235.011 107.509 234.092 101.555 235.289 96.3069C235.567 95.0536 235.387 94.2233 235.957 93.3773V93.6123C237.265 96.5576 238.573 99.3619 239.77 102.307C242.637 107.446 247.647 112.773 251.836 116.329C254.063 118.209 255.83 121.468 258.613 122.627V122.314H258.405C257.806 121.405 257.013 120.966 256.261 120.23C254.497 118.285 252.868 116.19 251.391 113.963C247.47 107.932 243.993 101.55 240.995 94.8812C239.464 91.5912 238.184 88.0506 236.959 84.8076C236.402 83.5543 236.402 81.6743 235.47 81.0476C234.078 83.3349 232.033 85.3246 231.017 88.1446C229.249 92.6566 229.068 98.2026 228.4 103.968C228.025 104.078 228.206 103.968 228.025 104.187C225.046 103.373 224.031 99.8946 222.917 96.9806C220.134 89.5389 219.675 77.5852 222.082 69.0156C222.736 66.8222 225.52 59.8976 224.406 57.7983C223.822 55.8086 221.985 54.6649 220.969 53.0513C219.662 50.951 218.543 48.7102 217.629 46.3616C215.402 40.5023 214.289 34.0162 211.867 28.1569C210.754 25.4466 208.806 22.6109 207.219 20.1199C205.452 17.2999 203.503 15.3102 202.098 11.9732C201.639 10.8296 200.985 8.93392 201.722 7.68059C201.917 6.83459 202.307 6.50558 203.03 6.27058C204.255 5.14258 207.692 6.61525 208.903 7.24191C212.341 8.80858 215.235 10.2812 218.116 12.4746C219.424 13.5086 220.83 15.4983 222.5 16.0153H224.448C227.426 16.7516 230.78 16.2346 233.563 17.1589C238.504 18.9449 242.957 21.5456 246.951 24.3656C259.258 33.2159 269.268 45.5712 275.968 60.1796C277.081 62.5923 277.568 64.8013 278.584 67.3079C280.532 72.4779 282.94 77.6949 284.916 82.6926C286.864 87.6276 288.743 92.6566 291.54 96.7456C292.932 98.9389 298.526 100.083 301.031 101.226C302.882 102.166 305.763 103.028 307.433 104.172C310.634 106.365 313.751 108.872 316.757 111.284C318.288 112.475 322.922 115.091 323.201 117.206Z" fill="#58CCE9"/>
</svg>
