<svg width="297" height="375" viewBox="0 0 297 375" fill="none" xmlns="http://www.w3.org/2000/svg">
<path d="M148.073 375.004C143.606 375.004 139.153 373.691 135.242 371.145L94.3828 344.004C88.2873 340.176 91.2655 338.816 93.2695 338.02C101.411 334.848 103.053 334.113 111.751 328.582C112.655 328.004 113.852 328.223 114.785 328.848L146.181 349.77C147.322 350.473 148.922 350.473 149.966 349.77L272.363 270.457C273.504 269.723 274.228 268.254 274.228 266.738V108.145C274.228 106.598 273.49 105.145 272.321 104.363L149.98 25.1133C148.853 24.3789 147.35 24.3789 146.209 25.1133L23.8949 104.379C22.712 105.145 21.9605 106.645 21.9605 108.145V266.738C21.9605 268.254 22.712 269.691 23.8949 270.41L57.4202 292.16C75.6093 302.379 86.7565 290.348 86.7565 278.254V121.676C86.7565 119.457 88.343 117.723 90.3192 117.723H105.836C107.771 117.723 109.385 119.473 109.385 121.676V278.254C109.385 305.52 96.1642 321.145 73.146 321.145C66.0763 321.145 60.4957 321.145 44.9508 312.535L12.8312 291.801C4.89867 286.66 0 277.035 0 266.738V108.145C0 97.8477 4.91258 88.2227 12.8312 83.0977L135.228 3.69141C142.98 -1.23047 153.264 -1.23047 160.946 3.69141L283.329 83.0977C291.262 88.2383 296.188 97.8477 296.188 108.145V266.738C296.188 277.035 291.262 286.629 283.329 291.801L160.946 371.145C157.05 373.691 152.61 375.004 148.073 375.004ZM246.896 218.645C246.896 188.957 229.027 181.051 191.41 175.473C153.403 169.832 149.535 166.91 149.535 156.926C149.535 148.676 152.805 137.66 180.958 137.66C206.106 137.66 215.374 143.738 219.187 162.77C219.521 164.566 220.983 165.879 222.625 165.879H238.504C239.492 165.879 240.424 165.395 241.092 164.613C241.76 163.77 242.122 162.691 242.025 161.551C239.561 128.77 220.162 113.488 180.958 113.488C146.055 113.488 125.236 130.02 125.236 157.754C125.236 187.832 145.944 196.145 179.441 199.863C219.521 204.27 222.625 210.848 222.625 219.691C222.625 235.051 211.645 241.598 185.857 241.598C153.473 241.598 146.348 232.473 143.954 214.379C143.676 212.441 142.201 211.02 140.433 211.02H124.61C122.648 211.02 121.075 212.77 121.075 214.973C121.075 238.129 132.292 265.723 185.857 265.723C224.657 265.738 246.896 248.598 246.896 218.645Z" fill="#58CCE9"/>
</svg>
