<svg width="215" height="113" viewBox="0 0 215 113" fill="none" xmlns="http://www.w3.org/2000/svg">
<path d="M62.7979 40.5866H54.3412L49.7277 64.0876H57.2348C62.2156 64.0876 65.9244 63.1557 68.361 61.3008C70.7977 59.4371 72.4371 56.3397 73.2881 51.991C74.1123 47.8197 73.736 44.8732 72.1773 43.1603C70.6096 41.4475 67.4921 40.5866 62.7979 40.5866ZM107.5 0.480469C48.1331 0.480469 0 25.5612 0 56.4995C0 87.4377 48.1331 112.527 107.5 112.527C166.867 112.527 215 87.4377 215 56.4995C215 25.5612 166.867 0.480469 107.5 0.480469ZM78.2958 66.6081C75.9577 68.8268 73.1448 70.4953 70.081 71.4982C67.071 72.4567 63.2279 72.9537 58.5696 72.9537H47.9898L45.0604 87.8726H32.7158L43.7346 31.7293H67.4742C74.614 31.7293 79.8187 33.5842 83.0975 37.3028C86.3762 41.0126 87.3617 46.1956 86.0537 52.8518C85.5528 55.4857 84.6304 58.0234 83.3215 60.369C82.0404 62.6321 80.3652 64.7177 78.2958 66.6081ZM114.344 72.9537L119.209 48.1126C119.773 45.2903 119.558 43.3556 118.599 42.335C117.641 41.3055 115.589 40.7907 112.445 40.7907H102.662L96.3558 72.9626H84.1008L95.1196 16.8105H107.366L104.436 31.7382H115.347C122.219 31.7382 126.949 32.9275 129.555 35.2971C132.162 37.6667 132.942 41.5096 131.911 46.8257L126.787 72.9537H114.344ZM182.401 52.8518C181.908 55.4879 180.985 58.0268 179.668 60.369C178.387 62.6321 176.712 64.7177 174.643 66.6081C172.303 68.8201 169.498 70.4903 166.428 71.4982C163.418 72.4567 159.575 72.9537 154.907 72.9537H144.337L141.407 87.8815H129.063L140.081 31.7382H163.812C170.952 31.7382 176.157 33.5931 179.435 37.3117C182.714 41.0126 183.709 46.1956 182.401 52.8518ZM159.154 40.5866H150.706L146.084 64.0876H153.591C158.58 64.0876 162.289 63.1557 164.717 61.3008C167.154 59.4371 168.793 56.3397 169.653 51.991C170.477 47.8197 170.092 44.8732 168.533 43.1603C166.974 41.4475 163.839 40.5866 159.154 40.5866Z" fill="#58CCE9"/>
</svg>
