<svg width="444" height="442" viewBox="0 0 444 442" fill="none" xmlns="http://www.w3.org/2000/svg">
<path d="M263.625 3.315L280.275 6.99833L293.78 11.7867L304.695 17.3117L313.02 23.205L319.31 29.4667L323.935 35.7283L326.895 41.8058L328.745 47.3308L329.485 52.1192L329.855 55.8025L329.67 58.1967V156.542L328.745 168.144L326.34 178.273L322.455 186.745L317.645 193.743L312.095 199.452L305.99 204.057L299.515 207.556L293.04 210.134L286.935 211.976L281.385 213.265L276.575 214.002L272.69 214.37H162.245L149.48 215.291L138.565 217.869L129.315 221.921L121.73 226.893L115.625 232.787L110.63 239.232L106.93 245.862L104.155 252.677L102.305 259.122L101.01 265.016L100.27 269.988L99.9001 273.856V330.211H58.6451L54.7601 329.658L49.5801 328.369L43.6601 326.159L37.1851 322.844L30.5251 318.056L23.8651 311.426L17.3901 302.954L11.4701 292.088L6.29014 278.644L2.40514 262.437L-0.184863 243.1L-1.10986 220.447L0.000136694 197.979L2.96014 178.826L7.40014 162.803L13.3201 149.727L19.9801 139.23L27.3801 131.127L35.1501 125.049L42.9201 120.629L50.3201 117.682L56.9801 115.841L62.9001 114.92L67.3401 114.736H70.3001L71.4101 114.92H222.37V99.6342H114.33L114.145 48.9883L113.775 42.1742L114.7 35.9125L116.735 30.2033L119.88 25.0467L124.505 20.2583L130.24 16.0225L137.27 12.3392L145.41 9.02417L154.845 6.26167L165.575 4.05167L177.415 2.21L190.55 1.105L204.795 0.368333L220.335 0L243.83 0.920833L263.625 3.315ZM147.075 39.78L142.82 45.8575L141.34 53.4083L142.82 60.9592L147.075 67.2208L153.18 71.2725L160.765 72.93L168.35 71.2725L174.455 67.2208L178.71 60.9592L180.19 53.4083L178.71 45.8575L174.455 39.78L168.35 35.7283L160.765 34.0708L153.18 35.7283L147.075 39.78ZM389.24 112.526L394.42 113.631L400.34 115.841L406.815 119.156L413.475 124.128L420.135 130.574L426.61 139.23L432.53 150.096L437.71 163.54L441.595 179.747L444.185 198.9L445.11 221.552L444 244.205L441.04 263.358L436.6 279.197L430.68 292.272L424.02 302.77L416.62 311.057L408.85 317.135L401.08 321.555L393.68 324.502L387.02 326.159L381.1 327.08L376.66 327.448L373.7 327.264H221.63V342.366H329.67L329.855 393.196L330.225 399.826L329.3 406.087L327.265 411.797L324.12 417.137L319.495 421.742L313.76 426.162L306.73 429.845L298.59 432.976L289.155 435.738L278.425 438.133L266.585 439.79L253.45 441.079L239.205 441.816L223.665 442L200.17 441.263L180.375 438.685L163.725 435.002L150.22 430.398L139.305 424.872L130.98 418.795L124.69 412.533L120.065 406.272L117.105 400.194L115.255 394.669L114.515 390.065L114.145 386.382L114.33 383.987V285.642L115.255 273.856L117.66 263.911L121.545 255.439L126.355 248.441L131.905 242.547L138.01 238.127L144.485 234.444L150.96 231.866L157.065 230.024L162.615 228.919L167.425 228.182L171.31 227.814L173.715 227.63H281.755L294.52 226.709L305.435 224.131L314.685 220.263L322.27 215.107L328.375 209.213L333.37 202.767L337.07 196.137L339.845 189.507L341.695 183.062L342.99 177.168L343.73 172.012L344.1 168.144V111.789H382.765L385.355 111.973L389.24 112.526ZM269.545 374.963L265.29 381.041L263.81 388.592L265.29 396.142L269.545 402.22L275.65 406.456L283.235 407.929L290.82 406.456L296.925 402.22L301.18 396.142L302.66 388.592L301.18 381.041L296.925 374.963L290.82 370.727L283.235 369.254L275.65 370.727L269.545 374.963Z" fill="#58CCE9"/>
</svg>
