<svg width="444" height="392" viewBox="0 0 444 392" fill="none" xmlns="http://www.w3.org/2000/svg">
<path d="M263.255 195.573C263.255 206.417 258.899 216.818 251.146 224.487C243.392 232.157 232.875 236.468 221.907 236.473C210.937 236.473 200.415 232.164 192.657 224.494C184.9 216.824 180.541 206.42 180.541 195.573C180.541 184.729 184.897 174.328 192.651 166.659C200.404 158.989 210.921 154.678 221.889 154.673C232.86 154.673 243.382 158.982 251.139 166.652C258.897 174.323 263.255 184.726 263.255 195.573ZM312.243 0.0351562C287.342 0.0351562 254.763 17.5952 221.815 47.9959C188.885 17.7598 156.288 0.400989 131.406 0.400989C123.821 0.400989 116.92 2.10211 110.945 5.48607C85.507 19.9914 79.809 65.1901 92.944 121.913C36.63 139.107 0 166.599 0 195.573C0 224.657 36.815 252.222 93.2955 269.288C80.2715 326.23 86.0805 371.502 111.574 385.989C117.494 389.41 124.338 391.02 131.96 391.02C156.843 391.02 189.44 373.46 222.388 343.022C255.318 373.277 287.916 390.635 312.798 390.635C320.383 390.635 327.283 388.989 333.259 385.605C358.678 371.118 364.394 325.919 351.259 269.179C407.37 252.131 444 224.584 444 195.573C444 166.489 407.185 138.924 350.705 121.821C363.729 64.934 357.919 19.6255 332.426 5.12024C326.543 1.75457 319.717 0.0534479 312.243 0.0351562ZM312.15 19.9731V20.0828C316.313 20.0828 319.661 20.8877 322.473 22.4059C334.794 29.3933 340.141 55.9711 335.978 90.1582C334.979 98.5724 333.351 107.444 331.353 116.498C313.593 112.181 294.242 108.871 273.874 106.73C261.664 90.1765 248.992 75.1407 236.227 61.9707C265.679 34.8991 293.336 20.0462 312.169 19.9914L312.15 19.9731ZM131.406 20.3389C150.128 20.3389 177.915 35.1186 207.441 62.0439C194.75 75.2139 182.095 90.1582 170.07 106.712C149.591 108.852 130.221 112.163 112.48 116.553C110.408 107.59 108.873 98.9199 107.781 90.5789C103.526 56.4101 108.78 29.8506 120.99 22.7717C124.505 21.1254 128.39 20.4304 131.406 20.3389ZM221.722 76.1285C230.14 84.689 238.558 94.2738 246.883 104.737C238.743 104.371 230.418 104.115 222 104.115C213.49 104.115 205.073 104.298 196.84 104.737C204.98 94.2738 213.397 84.7073 221.722 76.1285ZM222 124.162C235.69 124.162 249.324 124.784 262.737 125.864C270.248 136.509 277.574 147.868 284.623 159.886C291.505 171.593 297.757 183.482 303.455 195.482C297.757 207.463 291.505 219.444 284.715 231.15C277.685 243.223 270.415 254.71 262.885 265.356C249.417 266.508 235.764 267.148 222 267.148C208.31 267.148 194.676 266.508 181.263 265.447C173.752 254.801 166.426 243.424 159.377 231.425C152.495 219.718 146.243 207.828 140.545 195.829C146.15 183.812 152.495 171.812 159.285 160.087C166.315 148.015 173.585 136.564 181.115 125.918C194.583 124.748 208.236 124.126 222 124.126V124.162ZM154.752 128.808C150.312 135.704 145.872 142.765 141.728 150.027C137.566 157.161 133.681 164.331 129.981 171.501C125.079 159.502 120.916 147.539 117.475 135.887C129.315 133.144 141.802 130.693 154.752 128.808ZM289.062 128.808C301.92 130.693 314.315 133.016 326.174 135.887C322.844 147.448 318.681 159.337 313.964 171.245C310.264 164.111 306.378 156.923 302.123 149.771C297.961 142.6 293.521 135.613 289.081 128.808H289.062ZM345.728 141.155C354.682 143.899 363.192 146.954 371.165 150.265C403.207 163.8 423.928 181.507 423.928 195.555C423.835 209.603 403.115 227.382 371.073 240.827C363.303 244.119 354.793 247.082 346.005 249.844C340.825 232.321 334.055 214.066 325.656 195.335C333.981 176.733 340.64 158.569 345.728 141.119V141.155ZM97.9205 141.229C103.064 158.789 109.853 177.025 118.271 195.738C109.946 214.34 103.249 232.504 98.1795 249.954C89.2255 247.21 80.7155 244.137 72.8345 240.808C40.7925 227.327 20.0725 209.603 20.0725 195.555C20.0725 181.507 40.7925 163.691 72.8345 150.265C80.6045 146.972 89.1145 144.009 97.9205 141.229ZM313.964 219.517C318.866 231.534 323.028 243.516 326.469 255.149C314.629 258.021 302.123 260.454 289.173 262.283C293.613 255.423 298.054 248.345 302.216 241.101C306.379 233.967 310.245 226.687 313.964 219.517ZM129.981 219.883C133.681 227.053 137.566 234.205 141.821 241.375C146.076 248.509 150.424 255.497 154.864 262.283C142.006 260.417 129.611 258.076 117.752 255.222C121.082 243.698 125.264 231.772 129.963 219.864L129.981 219.883ZM331.52 274.52C333.592 283.538 335.22 292.226 336.219 300.549C340.474 334.718 335.22 361.277 323.01 368.374C320.29 370.021 316.757 370.716 312.594 370.716C293.872 370.716 266.085 355.954 236.559 329.011C249.25 315.841 261.905 300.915 273.93 284.379C294.409 282.221 313.779 278.91 331.52 274.52ZM112.665 274.703C130.425 278.983 149.776 282.294 170.144 284.434C182.354 300.988 195.027 316.024 207.792 329.175C178.285 356.302 150.59 371.155 131.757 371.155C127.687 371.063 124.246 370.24 121.526 368.74C109.205 361.789 103.859 335.193 108.022 301.006C109.021 292.592 110.667 283.739 112.665 274.703ZM197.025 286.409C205.165 286.775 213.49 287.031 221.907 287.031C230.417 287.031 238.835 286.848 247.067 286.409C238.927 296.872 230.51 306.439 222.185 315.036C213.768 306.439 205.35 296.872 197.025 286.409Z" fill="#58CCE9"/>
</svg>
