<svg width="334" height="285" viewBox="0 0 334 285" fill="none" xmlns="http://www.w3.org/2000/svg">
<path d="M222.792 164.156C244.739 164.156 276.51 159.063 276.51 129.75C276.571 127.488 276.385 125.226 275.954 123.016L262.872 59.2656C259.866 45.2344 257.222 38.875 235.289 26.5625C218.269 16.7969 181.181 0.65625 170.215 0.65625C160.014 0.65625 157.036 15.4375 144.859 15.4375C133.141 15.4375 124.443 4.40625 113.477 4.40625C102.942 4.40625 96.0807 12.4531 90.7923 29.0312C90.7923 29.0312 76.0407 75.75 74.1341 82.5312C73.8309 83.7775 73.6995 85.0685 73.7444 86.3594C73.7444 104.516 137.441 164.078 222.792 164.078M279.864 141.656C282.898 157.781 282.898 159.469 282.898 161.609C282.898 189.187 255.287 204.5 218.979 204.5C136.94 204.563 65.0604 150.578 65.0604 114.906C65.0523 109.936 65.9523 105.017 67.7046 100.453C38.2152 102.109 0 108.031 0 145.891C0 207.906 130.886 284.344 234.51 284.344C313.974 284.344 334 244 334 212.156C334 187.078 314.698 158.641 279.906 141.656" fill="#58CCE9"/>
</svg>
