<svg width="334" height="135" viewBox="0 0 334 135" fill="none" xmlns="http://www.w3.org/2000/svg">
<path d="M22.424 0.0563723C21.6071 0.18915 20.8437 0.590874 20.2302 1.21075C19.6167 1.83063 19.1806 2.64082 18.9772 3.53891C18.7737 4.43699 18.812 5.38265 19.0872 6.25631C19.3624 7.12996 19.8621 7.89239 20.5232 8.44721C21.1843 9.00203 21.977 9.32431 22.8012 9.37333C23.6254 9.42235 24.4441 9.1959 25.1537 8.7226C25.8633 8.24929 26.4319 7.55039 26.7878 6.71426C27.1436 5.87813 27.2707 4.94232 27.1529 4.02513C27.0748 3.41576 26.8905 2.82964 26.6105 2.3003C26.3305 1.77096 25.9603 1.30879 25.5212 0.94019C25.082 0.571594 24.5824 0.303809 24.0509 0.152157C23.5195 0.00050463 22.9666 -0.0320424 22.424 0.0563723ZM34.6567 0.08762C33.5329 0.204594 32.4886 0.789132 31.7289 1.72642C30.9693 2.66371 30.5493 3.88601 30.5513 5.15325C30.5493 5.82314 30.6653 6.48686 30.8928 7.10618C31.1202 7.7255 31.4546 8.28819 31.8765 8.7618C32.2985 9.23542 32.7997 9.61062 33.3514 9.86578C33.9031 10.121 34.4943 10.251 35.0909 10.2486C35.6853 10.2469 36.2734 10.1138 36.8219 9.85678C37.3704 9.59978 37.8683 9.22392 38.2873 8.75072C38.7064 8.27751 39.0382 7.71623 39.2639 7.09895C39.4896 6.48167 39.6047 5.82051 39.6027 5.15325C39.6002 3.8105 39.124 2.52356 38.2785 1.57394C37.433 0.624332 36.2869 0.0893649 35.0909 0.0860628C34.9458 0.0782082 34.8019 0.0797654 34.6567 0.08762ZM11.4966 6.21887C10.4948 6.3817 9.5914 6.98417 8.98477 7.89405C8.37815 8.80393 8.11784 9.94687 8.261 11.072C8.56717 13.4158 10.4988 15.0158 12.5835 14.672C13.0771 14.5944 13.5521 14.4077 13.9811 14.1227C14.4101 13.8378 14.7845 13.4602 15.0828 13.0119C15.381 12.5636 15.5972 12.0533 15.7188 11.5106C15.8404 10.9679 15.8651 10.4036 15.7913 9.85012C15.4907 7.51731 13.5772 5.87669 11.4966 6.21887ZM40.5268 12.0782C40.5257 12.7958 40.6507 13.5066 40.8948 14.1698C41.1388 14.833 41.497 15.4355 41.9488 15.943C42.4007 16.4505 42.9373 16.8528 43.5279 17.127C44.1186 17.4012 44.7516 17.5418 45.3907 17.5407C46.6771 17.5354 47.9091 16.9572 48.8163 15.9331C49.7235 14.909 50.2317 13.5226 50.2295 12.0782C50.2251 10.6373 49.7116 9.25729 48.8018 8.24105C47.8919 7.22481 46.6601 6.65544 45.3767 6.65794C44.0934 6.65586 42.8617 7.22562 41.9521 8.24215C41.0426 9.25869 40.5308 10.6373 40.5268 12.0782ZM95.7036 12.5064C87.1685 12.5064 79.4211 17.8095 79.4211 27.9486C79.4211 43.5595 98.1223 39.4236 98.1223 50.3782C98.1223 55.9986 94.1282 59.9298 88.5003 59.9298C84.3838 59.9298 79.7815 58.3845 80.5094 53.7954L81.1607 49.7064H75.5884L74.7465 54.8939C73.416 63.7017 82.2044 66.522 87.7112 66.522C96.6708 66.522 104.346 60.3095 104.346 49.9517C104.346 33.7439 85.646 37.9548 85.646 27.5204C85.646 22.2673 89.7709 19.0048 94.9145 19.0048C97.9414 19.0048 102.045 20.1236 101.439 23.6767L100.894 27.3064H106.467L107.445 21.6611C108.595 14.9298 100.728 12.5064 95.7036 12.5064ZM4.67467 16.9907C3.78181 17.1392 2.97759 17.6784 2.43778 18.4906C1.89798 19.3028 1.66649 20.3219 1.79392 21.3251C1.85924 21.8202 2.01091 22.296 2.24026 22.7252C2.46962 23.1544 2.77214 23.5285 3.13049 23.8262C3.48885 24.1239 3.896 24.3393 4.32862 24.46C4.76124 24.5808 5.21083 24.6045 5.65162 24.5298C6.09283 24.4606 6.51752 24.2943 6.90132 24.0404C7.28512 23.7865 7.62048 23.4499 7.88814 23.0501C8.1558 22.6503 8.3505 22.1951 8.46105 21.7105C8.57161 21.226 8.59584 20.7217 8.53237 20.2267C8.39913 19.2251 7.9188 18.3232 7.19599 17.7174C6.47317 17.1116 5.56784 16.8494 4.67467 16.9907ZM50.9629 18.9751C49.6227 19.195 48.415 20.003 47.6049 21.2216C46.7948 22.4403 46.4484 23.97 46.6418 25.4751C46.8373 26.9801 47.5568 28.3364 48.6422 29.2463C49.7277 30.1563 51.0904 30.5454 52.4311 30.3283C53.0952 30.2205 53.7338 29.9669 54.3105 29.5818C54.8871 29.1967 55.3905 28.6877 55.7919 28.084C56.1932 27.4803 56.4846 26.7937 56.6494 26.0635C56.8142 25.3332 56.8491 24.5737 56.7522 23.8282C56.6561 23.0827 56.4301 22.3657 56.0871 21.7183C55.744 21.0709 55.2908 20.5056 54.7531 20.055C54.2155 19.6043 53.6041 19.2769 52.9537 19.0916C52.3034 18.9064 51.6269 18.8668 50.9629 18.9751ZM129.787 27.3064C118.956 27.3064 110.299 37.9392 110.299 50.072C110.299 59.8439 115.911 66.522 124.869 66.522C132.922 66.522 137.589 60.9673 137.589 60.9673L135.905 55.4142C135.905 55.4142 131.525 60.297 125.411 60.297C119.724 60.297 116.279 56.0673 116.279 49.5548C116.279 40.8986 122.503 33.5017 129.163 33.5017C132.068 33.5017 135.458 34.8329 135.033 37.8658L134.626 40.3986H139.817L140.551 36.0954C141.52 29.4361 134.208 27.3064 129.787 27.3064ZM235.901 27.3064C230.151 27.3064 225.208 33.072 223.752 36.4001H223.617C224.042 35.072 224.541 32.1626 224.541 31.2751C224.541 29.2751 223.62 28.1923 221.197 28.1923H214.294L213.397 33.7454H217.202C218.169 33.7454 218.41 34.3111 218.289 35.272L213.451 65.6376H219.323L221.986 48.9126C223.197 41.5142 227.614 33.8079 233.483 33.8079C236.874 33.8079 237.86 35.9611 237.86 38.9954C237.86 40.2533 237.605 41.7251 237.424 43.2064L233.864 65.6376H239.709L242.453 48.5173C243.545 41.3392 247.905 33.8079 253.598 33.8079C257.108 33.8079 258.055 35.9517 258.055 39.2095C258.055 42.7595 255.472 55.2595 255.472 58.7407C255.472 65.1032 259.462 65.7595 262.186 65.7595C263.637 65.7595 264.795 65.6376 264.795 65.6376L265.693 60.0829C265.693 60.0829 265.072 60.2361 264.225 60.2361C262.712 60.2361 261.507 59.7798 261.507 56.9704C261.507 54.0095 264.17 41.6361 264.17 37.1939C264.17 30.8314 260.979 27.3064 255.772 27.3064C250.687 27.3064 246.091 31.2986 243.731 36.4001H243.595C243.293 30.4814 240.803 27.3064 235.901 27.3064ZM166.836 27.7345C161.994 27.7345 157.886 32.3845 155.828 37.7142H155.691C156.177 35.9361 156.778 32.3267 156.778 31.3657C156.778 29.2173 155.878 28.1923 153.518 28.1923H146.614L145.634 33.7157H149.466C150.495 33.7157 150.677 34.4751 150.555 35.3642L145.77 65.6376H151.642L153.815 51.7204C155.146 43.1376 160.227 34.7532 165.857 34.7532C166.644 34.7532 167.188 34.9251 167.489 34.997L168.658 27.8876C168.055 27.7792 167.446 27.728 166.836 27.7345ZM173.686 28.1923L172.762 33.7157H177.844L175.017 51.9345C174.736 53.4915 174.59 55.0755 174.582 56.6642C174.582 63.6954 178.511 66.522 183.171 66.522C189.59 66.522 193.838 61.3954 195.838 57.5501H195.947C195.524 63.1736 197.947 65.7595 202.062 65.7595C202.996 65.7561 203.93 65.7154 204.862 65.6376L205.759 60.0829C205.759 60.0829 205.199 60.2361 204.291 60.2361C202.78 60.2361 201.573 59.6329 201.573 56.9704C201.583 56.203 201.646 55.4376 201.762 54.6814L206.003 28.1923H195.05L194.125 33.7157H199.209L197.414 45.1907C196.322 52.2923 191.35 59.9907 185.236 59.9907C181.788 59.9907 180.644 58.0017 180.644 54.7407C180.644 53.5595 180.83 52.022 181.132 50.4704L184.639 28.1923H173.686ZM2.69016 29.5361C2.2812 29.6013 1.88775 29.7566 1.53236 29.993C1.17697 30.2294 0.866642 30.5422 0.619174 30.9135C0.371705 31.2849 0.191965 31.7074 0.0902612 32.1569C-0.0114423 32.6064 -0.0331078 33.074 0.0265075 33.5329C0.274224 35.4673 1.89134 36.7986 3.61422 36.5236C4.02339 36.4585 4.41708 36.3033 4.77266 36.0669C5.12824 35.8304 5.43871 35.5175 5.68622 35.1459C5.93374 34.7744 6.11343 34.3516 6.21496 33.9018C6.3165 33.452 6.33788 32.9842 6.27787 32.5251C6.15305 31.5956 5.70565 30.7593 5.03342 30.199C4.36119 29.6386 3.51876 29.4013 2.69016 29.5361ZM5.73373 41.6814C5.38734 41.7371 5.05413 41.8689 4.75318 42.0694C4.45224 42.2699 4.18947 42.5351 3.97993 42.8497C3.77038 43.1644 3.61817 43.5224 3.53202 43.9032C3.44586 44.2839 3.42745 44.6801 3.47784 45.0689C3.58437 45.857 3.96449 46.5657 4.53509 47.04C5.10568 47.5143 5.82034 47.7157 6.52281 47.6001C6.86902 47.5444 7.20205 47.4126 7.50283 47.2122C7.8036 47.0118 8.06622 46.7467 8.27563 46.4322C8.48505 46.1177 8.63715 45.7599 8.72324 45.3793C8.80932 44.9987 8.8277 44.6028 8.77731 44.2142C8.66903 43.4272 8.28875 42.7199 7.71896 42.2458C7.14918 41.7716 6.43584 41.5688 5.73373 41.6814ZM12.61 51.8126C12.0049 51.9109 11.4593 52.2744 11.0925 52.8236C10.7257 53.3727 10.5678 54.0627 10.6533 54.7423C10.6966 55.0776 10.7987 55.3999 10.9536 55.6907C11.1085 55.9815 11.3131 56.2349 11.5557 56.4364C11.7983 56.6379 12.0741 56.7834 12.367 56.8646C12.66 56.9458 12.9644 56.9611 13.2626 56.9095C13.8681 56.812 14.4143 56.4487 14.7815 55.8994C15.1486 55.3501 15.3066 54.6597 15.2207 53.9798C15.177 53.6445 15.0747 53.3223 14.9196 53.0316C14.7645 52.7409 14.5597 52.4876 14.3171 52.2861C14.0744 52.0847 13.7986 51.9391 13.5057 51.8579C13.2127 51.7766 12.9083 51.7612 12.61 51.8126ZM47.2124 55.2611C44.1229 55.2611 41.6123 58.0579 41.6123 61.5173C41.6123 64.9845 44.1242 67.8032 47.2124 67.8032C48.6968 67.8016 50.12 67.1388 51.1696 65.9603C52.2192 64.7818 52.8096 63.1839 52.811 61.5173C52.811 58.0579 50.3005 55.2611 47.2124 55.2611ZM22.0148 56.4517C21.4679 56.5007 20.9575 56.779 20.5849 57.2312C20.2124 57.6833 20.0049 58.2763 20.0039 58.8923C20.0017 59.2176 20.0571 59.5402 20.1669 59.8412C20.2768 60.1422 20.4389 60.4157 20.6438 60.6458C20.8486 60.8758 21.0922 61.0578 21.3604 61.1811C21.6285 61.3044 21.9158 61.3667 22.2055 61.3642C22.493 61.3628 22.7775 61.2976 23.0425 61.1725C23.3076 61.0474 23.548 60.8648 23.7501 60.6352C23.9522 60.4055 24.1119 60.1334 24.2201 59.8343C24.3283 59.5352 24.3829 59.2151 24.3807 58.8923C24.3777 58.2458 24.1476 57.6266 23.7403 57.1696C23.3329 56.7126 22.7814 56.4546 22.2055 56.4517C22.142 56.4486 22.0784 56.4486 22.0148 56.4517ZM31.3668 57.8861C29.802 57.9567 28.3223 58.7047 27.2379 59.9733C26.1534 61.2418 25.5484 62.9324 25.5497 64.6908C25.5497 66.0366 25.9051 67.3522 26.5711 68.4712C27.237 69.5903 28.1836 70.4624 29.291 70.9775C30.3985 71.4925 31.6171 71.6272 32.7928 71.3647C33.9684 71.1021 35.0483 70.454 35.8959 69.5024C36.7436 68.5507 37.3208 67.3383 37.5546 66.0183C37.7885 64.6983 37.6685 63.3301 37.2097 62.0867C36.751 60.8433 35.9742 59.7806 34.9775 59.0329C33.9809 58.2851 32.8091 57.8861 31.6104 57.8861C31.5287 57.8842 31.4485 57.8842 31.3668 57.8861ZM62.0531 60.6314C59.2364 60.6314 56.9707 63.2095 56.9707 66.3689C56.9707 69.5376 59.2364 72.1064 62.0531 72.1064C63.4083 72.106 64.7079 71.5013 65.6661 70.4254C66.6244 69.3495 67.1629 67.8904 67.1633 66.3689C67.1614 64.8478 66.6225 63.3897 65.6645 62.3141C64.7066 61.2386 63.4078 60.6334 62.0531 60.6314ZM19.4055 68.597C18.5522 68.5962 17.7071 68.7843 16.9186 69.1505C16.1301 69.5168 15.4136 70.054 14.8103 70.7315C14.2069 71.4089 13.7284 72.2133 13.4022 73.0986C13.076 73.9839 12.9084 74.9327 12.9092 75.8907C12.9092 79.9267 15.8136 83.1845 19.4055 83.1845C20.2588 83.1855 21.104 82.9976 21.8926 82.6314C22.6812 82.2652 23.3977 81.728 24.0011 81.0505C24.6045 80.373 25.083 79.5685 25.4091 78.6832C25.7353 77.7978 25.9027 76.8489 25.9018 75.8907C25.9025 74.9327 25.735 73.9839 25.4088 73.0986C25.0825 72.2133 24.6041 71.4089 24.0007 70.7315C23.3973 70.054 22.6809 69.5168 21.8924 69.1505C21.1039 68.7843 20.2588 68.5962 19.4055 68.597ZM73.089 73.6329C72.505 73.6335 71.9269 73.7636 71.3878 74.0157C70.8487 74.2678 70.3593 74.6369 69.9476 75.1019C69.5359 75.5669 69.2101 76.1186 68.9887 76.7254C68.7674 77.3321 68.655 77.982 68.6579 78.6376C68.6579 81.4095 70.6258 83.6423 73.089 83.6423C73.6745 83.6429 74.2544 83.5139 74.7955 83.2626C75.3365 83.0113 75.8281 82.6427 76.2422 82.1778C76.6562 81.713 76.9845 81.161 77.2083 80.5536C77.4321 79.9461 77.5471 79.295 77.5465 78.6376C77.5458 77.3106 77.0759 76.0381 76.2401 75.0997C75.4043 74.1613 74.271 73.6338 73.089 73.6329ZM112.23 81.1704L90.3206 128.9H86.0259L85.3468 133.203H98.9643L99.6991 128.9H94.8602L100.977 115.503H117.557L119.431 128.9H114.512L113.859 133.203H127.287L127.967 128.9H123.672L116.931 81.1704H112.23ZM135.658 81.1704L134.979 85.3204H140.443L134.327 123.864C134.146 124.9 134.029 125.931 134.029 126.672C134.029 132.519 137.593 133.416 139.953 133.416C140.923 133.416 142.074 133.203 142.074 133.203L142.727 128.9C142.727 128.9 142.262 129.053 141.231 129.053C139.779 129.053 138.322 128.834 138.322 125.725C138.322 125.134 138.446 124.17 138.567 123.285L145.226 81.1704H135.658ZM151.832 81.1704L151.152 85.3204H156.589L150.5 123.864C150.317 124.9 150.173 125.931 150.173 126.672C150.173 132.519 153.765 133.416 156.126 133.416C157.096 133.416 158.246 133.203 158.246 133.203L158.899 128.9C158.899 128.9 158.432 129.053 157.403 129.053C155.949 129.053 154.495 128.834 154.495 125.725C154.495 125.134 154.618 124.17 154.739 123.285L161.372 81.1704H151.832ZM174.636 81.1704L173.604 87.4564H178.28L179.312 81.1704H174.636ZM13.3183 85.8408C11.5023 85.8432 9.76133 86.6543 8.47723 88.096C7.19312 89.5378 6.47074 91.4925 6.46853 93.5314C6.46853 97.7783 9.54133 101.191 13.3183 101.191C14.2164 101.194 15.1062 100.999 15.9369 100.615C16.7675 100.232 17.5226 99.6686 18.1589 98.9571C18.7953 98.2455 19.3003 97.4 19.645 96.469C19.9898 95.538 20.1676 94.5397 20.1681 93.5314C20.167 91.4921 19.445 89.5367 18.1606 88.0946C16.8763 86.6526 15.1347 85.842 13.3183 85.8408ZM327.504 86.4501C323.933 86.4501 321.062 90.0345 321.062 94.5392C321.062 99.0392 323.933 102.625 327.504 102.625C331.111 102.625 334 99.0376 334 94.5392C334 90.0345 331.111 86.4501 327.504 86.4501ZM113.806 86.5126H113.915C113.915 86.5126 113.919 88.1376 114.16 89.8392L117.068 111.141H102.853L112.637 89.8392C113.365 88.1361 113.806 86.5126 113.806 86.5126ZM327.504 87.947C330.422 87.947 332.668 90.8329 332.668 94.5392C332.668 98.2423 330.422 101.13 327.504 101.13C324.619 101.13 322.394 98.2423 322.394 94.5392C322.394 90.8329 324.619 87.947 327.504 87.947ZM77.765 89.472C77.2221 89.4712 76.6843 89.5907 76.1826 89.8236C75.6809 90.0565 75.2251 90.3984 74.8412 90.8295C74.4574 91.2606 74.1531 91.7725 73.9458 92.3359C73.7385 92.8993 73.6322 93.5031 73.6331 94.1126C73.6331 96.6751 75.4785 98.7501 77.765 98.7501C80.0515 98.7501 81.9233 96.6751 81.9233 94.1111C81.9233 91.5439 80.0515 89.472 77.765 89.472ZM325.302 90.3267V98.6892H326.58V95.4548H327.693L328.972 98.6892H330.385L329.081 95.6064C328.918 95.2283 328.836 95.1486 328.836 95.1486V95.0876C329.398 94.9126 330.085 94.1767 330.085 92.8908C330.085 91.3392 329.227 90.3283 327.939 90.3283L325.302 90.3267ZM326.58 91.5173H327.667C328.337 91.5173 328.781 92.0283 328.781 92.8908C328.781 93.7783 328.337 94.2939 327.668 94.2939H326.58V91.5173ZM199.1 95.0876C192.743 95.0876 188.038 98.9329 188.038 98.9329L189.289 103.022C189.289 103.022 193.424 99.5439 198.449 99.5439C203.11 99.5439 204.672 102.272 204.672 106.197C204.672 107.525 204.184 110.408 204.184 110.408H202.199C193.845 110.408 181.542 112.838 181.542 124.752C181.542 130.745 185.555 134.089 190.457 134.089C197.661 134.089 201.717 126.094 201.655 126.094H201.764C201.462 131.053 203.712 133.356 207.282 133.356C208.372 133.356 209.564 133.205 209.564 133.205L210.246 129.055C210.246 129.055 209.699 129.206 208.668 129.206C207.276 129.206 205.815 128.831 205.815 125.728C205.815 122.619 208.859 109.83 208.859 105.463C208.859 98.2861 204.912 95.0876 199.1 95.0876ZM239.737 95.0876C232.229 95.0876 227.382 101.763 226.174 104.945H226.037C226.584 103.391 227.07 99.8361 227.07 99.0236C227.07 97.1001 226.299 95.9736 223.999 95.9736H218.181L217.502 100.124H221.634C222.601 100.124 222.841 100.853 222.721 101.741L217.693 133.205H221.797L224.543 116.114C225.873 107.385 231.919 99.8173 238.459 99.8173C241.848 99.8173 243.732 101.825 243.732 106.044C243.732 110.188 240.878 123.652 240.878 126.978C240.878 132.603 244.515 133.356 246.695 133.356C247.722 133.356 248.923 133.205 248.923 133.205L249.602 129.055C249.602 129.055 249.05 129.206 248.081 129.206C246.631 129.206 245.173 128.909 245.173 125.728C245.173 122.767 248.026 109.225 248.026 104.641C248.026 98.5001 245.063 95.0876 239.737 95.0876ZM274.963 95.0876C264.854 95.0876 255.773 105.23 255.773 117.884C255.773 127.875 261.448 134.089 269.745 134.089C277.493 134.089 282.112 128.535 282.112 128.535L280.78 124.385C280.78 124.385 276.428 129.572 270.071 129.572C264.14 129.572 260.013 125.055 260.013 117.58C260.013 107.444 267.391 99.6048 274.473 99.6048C277.44 99.6048 281.565 101.011 281.079 104.488L280.644 107.235H284.476L285.075 103.297C285.982 97.2329 279.079 95.0876 274.963 95.0876ZM307.119 95.0876C296.827 95.0876 289.315 106.269 289.315 118.403C289.315 127.802 294.77 134.091 303.122 134.091C309.537 134.091 314.565 129.206 314.565 129.206L313.288 125.056C313.288 125.056 308.793 129.572 303.286 129.572C296.87 129.572 293.555 124.475 293.555 118.038C293.555 116.186 293.853 114.619 293.853 114.619H317.229C317.229 114.619 318.072 111.431 318.072 108.547C318.072 100.777 314.625 95.0876 307.119 95.0876ZM167.136 95.9736L166.482 100.124H171.92L168.06 124.11C167.938 125.147 167.733 126.086 167.733 126.827C167.733 132.674 171.385 133.358 173.687 133.358C174.533 133.358 175.807 133.205 175.807 133.205L176.459 129.055C176.459 129.055 175.965 129.206 174.937 129.206C173.482 129.206 172.056 128.834 172.056 125.728C172.056 125.136 172.098 124.406 172.219 123.591L176.704 95.9736H167.136ZM306.928 99.3001C310.926 99.3001 313.886 102.199 313.886 108.119C313.886 109.6 313.641 110.927 313.641 110.927H294.588C296.766 103.375 301.908 99.3001 306.928 99.3001ZM75.8626 105.922C73.9282 105.922 72.3556 107.688 72.3556 109.86C72.3556 112.027 73.9282 113.766 75.8626 113.766C77.797 113.766 79.3696 112.027 79.3696 109.86C79.3696 107.688 77.797 105.922 75.8626 105.922ZM201.82 114.192H203.587L203.286 115.809C201.959 122.247 197.178 129.939 191.491 129.939C187.433 129.939 185.728 127.2 185.728 124.017C185.728 114.842 196.733 114.192 201.82 114.192ZM68.6593 120.51C66.9921 120.51 65.6144 122.019 65.6144 123.897C65.6191 124.802 65.9415 125.668 66.5115 126.308C67.0816 126.948 67.8533 127.309 68.6593 127.314C70.3293 127.314 71.6765 125.77 71.6765 123.897C71.6772 123.452 71.5997 123.011 71.4483 122.6C71.2969 122.188 71.0747 121.815 70.7944 121.5C70.5141 121.185 70.1812 120.936 69.8148 120.766C69.4484 120.596 69.0557 120.509 68.6593 120.51ZM57.4063 128.536C56.6431 128.539 55.9118 128.881 55.3722 129.487C54.8325 130.093 54.5281 130.914 54.5256 131.77C54.5256 133.552 55.8226 134.974 57.4063 134.974C57.7813 134.975 58.1527 134.893 58.4994 134.732C58.846 134.572 59.1609 134.336 59.4261 134.038C59.6912 133.74 59.9013 133.387 60.0443 132.998C60.1873 132.608 60.2603 132.191 60.2592 131.77C60.2622 130.917 59.9635 130.097 59.4286 129.491C58.8937 128.884 58.1664 128.541 57.4063 128.536Z" fill="#58CCE9"/>
</svg>
