<svg width="444" height="442" viewBox="0 0 444 442" fill="none" xmlns="http://www.w3.org/2000/svg">
<g clip-path="url(#clip0_6275_69)">
<path d="M20.8125 0C9.287 0 0 9.24517 0 20.7187V421.281C0 432.755 9.287 442 20.8125 442H423.188C434.713 442 444 432.755 444 421.281V20.7187C444 9.24517 434.713 0 423.188 0H20.8125ZM342.028 179.562C353.35 179.562 363.377 180.244 372.127 181.607C380.381 182.838 388.48 184.937 396.288 187.868V233.137C392.54 230.556 388.558 228.33 384.393 226.488C380.098 224.564 375.664 222.964 371.129 221.7C362.537 219.317 353.666 218.078 344.748 218.016C339.198 218.016 334.147 218.532 329.596 219.6C325.54 220.464 321.649 221.969 318.071 224.057C314.926 225.972 312.52 228.275 310.8 230.945C309.07 233.637 308.169 236.774 308.21 239.969C308.21 243.579 309.19 246.839 311.096 249.712C313.02 252.585 315.758 255.31 319.292 257.889C322.825 260.467 327.117 262.972 332.167 265.439C337.218 267.926 342.935 270.486 349.299 273.101C357.994 276.729 365.8 280.596 372.719 284.666C379.638 288.755 385.577 293.377 390.535 298.534C395.493 303.672 399.267 309.547 401.894 316.159C404.521 322.77 405.853 330.45 405.853 339.235C405.853 351.335 403.541 361.519 398.953 369.733C394.47 377.834 388.037 384.7 380.23 389.715C371.816 395.026 362.491 398.747 352.721 400.691C342.25 402.901 331.205 404.006 319.606 404.006C308.19 404.056 296.794 403.045 285.566 400.986C275.852 399.314 266.431 396.256 257.594 391.907V343.471C274.314 357.635 295.524 365.463 317.478 365.571C323.639 365.571 329.023 365.018 333.611 363.913C338.217 362.808 342.047 361.261 345.136 359.309C348.207 357.32 350.501 355 352.036 352.311C353.734 349.18 354.506 345.635 354.263 342.086C354.021 338.537 352.774 335.128 350.667 332.255C347.919 328.634 344.557 325.518 340.733 323.047C335.991 319.917 330.997 317.182 325.804 314.87C319.647 312.071 313.436 309.394 307.174 306.84C290.191 299.786 277.537 291.149 269.193 280.965C260.868 270.78 256.688 258.459 256.688 244.039C256.688 232.731 258.963 223.026 263.514 214.904C268.065 206.782 274.244 200.097 282.088 194.848C290.385 189.4 299.595 185.476 309.283 183.264C320.013 180.746 331.004 179.503 342.028 179.562ZM62.4375 183.025H239.353V222.915H175.861V400.562H125.597V222.915H62.4375V183.025Z" fill="#58CCE9"/>
</g>
<defs>
<clipPath id="clip0_6275_69">
<rect width="444" height="442" fill="white"/>
</clipPath>
</defs>
</svg>
